SplineFontDB: 3.2
FontName: Swanston-Bold
FullName: Swanston Bold
FamilyName: Swanston
Weight: Bold
Copyright: Copyright (c) 2023 Liam Whitelaw
UComments: "2023-4-7: Created with FontForge (http://fontforge.org)"
Version: 001.000
ItalicAngle: 0
UnderlinePosition: -8
UnderlineWidth: 0
Ascent: 104
Descent: 24
InvalidEm: 0
LayerCount: 2
Layer: 0 1 "Back" 1
Layer: 1 1 "Fore" 0
XUID: [1021 819 1899051707 1393]
StyleMap: 0x0020
FSType: 0
OS2Version: 0
OS2_WeightWidthSlopeOnly: 0
OS2_UseTypoMetrics: 1
CreationTime: 1680916401
ModificationTime: 1694019620
PfmFamily: 49
TTFWeight: 700
TTFWidth: 5
LineGap: 8
VLineGap: 0
Panose: 2 0 8 9 0 0 0 0 0 0
OS2TypoAscent: 0
OS2TypoAOffset: 1
OS2TypoDescent: 0
OS2TypoDOffset: 1
OS2TypoLinegap: 8
OS2WinAscent: 0
OS2WinAOffset: 1
OS2WinDescent: 0
OS2WinDOffset: 1
HheadAscent: 0
HheadAOffset: 1
HheadDescent: 0
HheadDOffset: 1
OS2CapHeight: 80
OS2XHeight: 56
OS2Vendor: 'PfEd'
Lookup: 260 0 0 "'mark' Mark Positioning lookup 0" { "'mark' Mark Positioning lookup 0 subtable"  } ['mark' ('DFLT' <'dflt' > 'cyrl' <'dflt' > 'grek' <'dflt' > 'latn' <'dflt' > ) ]
Lookup: 262 0 0 "'mkmk' Mark to Mark lookup 1" { "'mkmk' Mark to Mark lookup 1 subtable"  } ['mkmk' ('DFLT' <'dflt' > 'cyrl' <'dflt' > 'grek' <'dflt' > 'latn' <'dflt' > ) ]
MarkAttachClasses: 1
DEI: 91125

StartChar: exclam
Encoding: 33 33 0
Width: 64
VWidth: 96
Flags: MW
HStem: 0 16<24 40>
VStem: 24 16<0 16 32 80>
LayerCount: 2
Fore
SplineSet
23 80 m 25,0,-1
 41 80 l 1,1,-1
 41 32 l 1,2,-1
 23 32 l 1,3,-1
 23 80 l 25,0,-1
23 16 m 25,4,-1
 41 16 l 5,5,-1
 41 0 l 5,6,-1
 23 0 l 1,7,-1
 23 16 l 25,4,-1
EndSplineSet
EndChar

StartChar: quotedbl
Encoding: 34 34 1
Width: 64
VWidth: 96
Flags: W
HStem: 56 24<8 24 32 48>
VStem: 8 16<56 80> 32 16<56 80>
LayerCount: 2
Fore
SplineSet
31 80 m 25,0,-1
 49 80 l 1,1,-1
 49 56 l 1,2,-1
 31 56 l 1,3,-1
 31 80 l 25,0,-1
7 80 m 25,4,-1
 25 80 l 1,5,-1
 25 56 l 1,6,-1
 7 56 l 1,7,-1
 7 80 l 25,4,-1
EndSplineSet
EndChar

StartChar: numbersign
Encoding: 35 35 2
Width: 64
VWidth: 96
Flags: MW
HStem: 16 8<0 8 24 32 48 56> 56 8<0 8 24 32 48 56>
VStem: 8 16<0 16 24 56 64 80> 32 16<0 16 24 56 64 80>
LayerCount: 2
Fore
SplineSet
31 56 m 25,0,-1
 25 56 l 1,1,-1
 25 24 l 1,2,-1
 31 24 l 1,3,-1
 31 56 l 25,0,-1
7 80 m 25,4,-1
 25 80 l 1,5,-1
 25 64 l 1,6,-1
 31 64 l 1,7,-1
 31 80 l 1,8,-1
 49 80 l 5,9,-1
 49 64 l 5,10,-1
 56 64 l 1,11,-1
 56 56 l 1,12,-1
 49 56 l 1,13,-1
 49 24 l 1,14,-1
 56 24 l 1,15,-1
 56 16 l 1,16,-1
 49 16 l 1,17,-1
 49 0 l 1,18,-1
 31 0 l 1,19,-1
 31 16 l 1,20,-1
 25 16 l 1,21,-1
 25 0 l 1,22,-1
 7 0 l 1,23,-1
 7 16 l 1,24,-1
 0 16 l 1,25,-1
 0 24 l 1,26,-1
 7 24 l 1,27,-1
 7 56 l 1,28,-1
 0 56 l 1,29,-1
 0 64 l 1,30,-1
 7 64 l 1,31,-1
 7 80 l 25,4,-1
EndSplineSet
EndChar

StartChar: dollar
Encoding: 36 36 3
Width: 64
VWidth: 96
Flags: MW
HStem: 8 8<16 24 32 40> 32 16<16 24 32 40> 64 8<16 24 32 40>
VStem: 0 16<20 24 48 60> 24 8<0 8 16 32 48 64 72 80> 40 16<20 32 56 60>
CounterMasks: 1 fc
LayerCount: 2
Fore
SplineSet
56 56 m 1,0,-1
 38 56 l 1,1,-1
 38 64 l 1,2,-1
 33 64 l 1,3,-1
 33 48 l 1,4,-1
 44 48 l 1,5,-1
 56 36 l 1,6,-1
 56 20 l 1,7,-1
 44 8 l 1,8,-1
 33 8 l 1,9,-1
 33 0 l 1,10,-1
 23 0 l 1,11,-1
 23 8 l 1,12,-1
 12 8 l 1,13,-1
 0 20 l 1,14,-1
 0 24 l 1,15,-1
 18 24 l 1,16,-1
 18 16 l 1,17,-1
 23 16 l 1,18,-1
 23 32 l 1,19,-1
 12 32 l 1,20,-1
 0 44 l 1,21,-1
 0 60 l 1,22,-1
 12 72 l 1,23,-1
 23 72 l 1,24,-1
 23 80 l 1,25,-1
 33 80 l 1,26,-1
 33 72 l 1,27,-1
 44 72 l 1,28,-1
 56 60 l 1,29,-1
 56 56 l 1,0,-1
33 32 m 1,30,-1
 33 16 l 1,31,-1
 38 16 l 1,32,-1
 38 32 l 1,33,-1
 33 32 l 1,30,-1
23 48 m 1,34,-1
 23 64 l 1,35,-1
 18 64 l 1,36,-1
 18 48 l 1,37,-1
 23 48 l 1,34,-1
EndSplineSet
EndChar

StartChar: percent
Encoding: 37 37 5
Width: 64
Flags: W
HStem: 0 8<40 48> 16 8<40 48> 56 8<8 16> 72 8<8 16>
VStem: 0 8<64 72> 16 8<64 72> 32 8<8 16> 48 8<8 16>
LayerCount: 2
Fore
SplineSet
46 16 m 25,0,-1
 42 16 l 1,1,-1
 42 8 l 1,2,-1
 46 8 l 1,3,-1
 46 16 l 25,0,-1
14 72 m 25,4,-1
 10 72 l 1,5,-1
 10 64 l 1,6,-1
 14 64 l 1,7,-1
 14 72 l 25,4,-1
32 16 m 17,8,-1
 40 24 l 1,9,-1
 48 24 l 1,10,-1
 56 16 l 1,11,-1
 56 8 l 1,12,-1
 48 0 l 1,13,-1
 40 0 l 1,14,-1
 32 8 l 1,15,-1
 32 16 l 17,8,-1
0 72 m 25,16,-1
 8 80 l 1,17,-1
 16 80 l 1,18,-1
 24 72 l 1,19,-1
 24 64 l 1,20,-1
 16 56 l 1,21,-1
 8 56 l 1,22,-1
 0 64 l 1,23,-1
 0 72 l 25,16,-1
38 80 m 25,24,-1
 56 80 l 1,25,-1
 18 0 l 1,26,-1
 0 0 l 1,27,-1
 38 80 l 25,24,-1
EndSplineSet
EndChar

StartChar: ampersand
Encoding: 38 38 6
Width: 64
Flags: W
HStem: 0 8<16 32 48 56> 48 8<16 32 48 56>
VStem: 0 16<12 44 60 68> 32 16<12 48 56 64>
LayerCount: 2
Fore
SplineSet
12 80 m 1,0,-1
 32 80 l 1,1,-1
 32 72 l 1,2,-1
 18 72 l 1,3,-1
 18 56 l 1,4,-1
 32 56 l 1,5,-1
 32 64 l 1,6,-1
 50 64 l 1,7,-1
 50 56 l 1,8,-1
 56 56 l 1,9,-1
 56 48 l 1,10,-1
 50 48 l 1,11,-1
 50 8 l 1,12,-1
 56 8 l 1,13,-1
 56 0 l 1,14,-1
 44 0 l 1,15,-1
 32 12 l 1,16,-1
 32 48 l 1,17,-1
 18 48 l 1,18,-1
 18 8 l 1,19,-1
 32 8 l 1,20,-1
 32 0 l 1,21,-1
 12 0 l 1,22,-1
 0 12 l 1,23,-1
 0 44 l 1,24,-1
 8 52 l 1,25,-1
 0 60 l 1,26,-1
 0 68 l 1,27,-1
 12 80 l 1,0,-1
EndSplineSet
EndChar

StartChar: parenleft
Encoding: 40 40 7
Width: 64
Flags: MW
VStem: 0 16<32 48>
LayerCount: 2
Fore
SplineSet
24 80 m 1,0,-1
 42 80 l 1,1,-1
 26 64 l 1,2,-1
 18 48 l 1,3,-1
 18 32 l 1,4,-1
 26 16 l 1,5,-1
 42 0 l 1,6,-1
 24 0 l 1,7,-1
 8 16 l 1,8,-1
 0 32 l 1,9,-1
 0 48 l 1,10,-1
 8 64 l 1,11,-1
 24 80 l 1,0,-1
EndSplineSet
EndChar

StartChar: parenright
Encoding: 41 41 8
Width: 64
Flags: MW
VStem: 40 16<32 48>
LayerCount: 2
Fore
SplineSet
32 80 m 1,0,-1
 48 64 l 1,1,-1
 56 48 l 1,2,-1
 56 32 l 1,3,-1
 48 16 l 1,4,-1
 32 0 l 1,5,-1
 14 0 l 1,6,-1
 30 16 l 1,7,-1
 38 32 l 1,8,-1
 38 48 l 1,9,-1
 30 64 l 1,10,-1
 14 80 l 1,11,-1
 32 80 l 1,0,-1
EndSplineSet
EndChar

StartChar: asterisk
Encoding: 42 42 9
Width: 64
Flags: MW
HStem: 32 16<0 16 40 56>
LayerCount: 2
Fore
SplineSet
0 64 m 1,0,-1
 18 64 l 1,1,-1
 26 56 l 1,2,-1
 30 56 l 1,3,-1
 38 64 l 1,4,-1
 56 64 l 1,5,-1
 40 48 l 1,6,-1
 56 48 l 1,7,-1
 56 32 l 1,8,-1
 40 32 l 1,9,-1
 56 16 l 1,10,-1
 38 16 l 1,11,-1
 30 24 l 1,12,-1
 26 24 l 1,13,-1
 18 16 l 1,14,-1
 0 16 l 1,15,-1
 16 32 l 1,16,-1
 0 32 l 1,17,-1
 0 48 l 1,18,-1
 16 48 l 1,19,-1
 0 64 l 1,0,-1
EndSplineSet
EndChar

StartChar: plus
Encoding: 43 43 10
Width: 64
Flags: W
HStem: 32 16<8 24 40 56>
VStem: 24 16<16 32 48 64>
LayerCount: 2
Fore
SplineSet
23 64 m 25,0,-1
 41 64 l 1,1,-1
 41 48 l 1,2,-1
 57 48 l 1,3,-1
 57 32 l 1,4,-1
 41 32 l 1,5,-1
 41 16 l 1,6,-1
 23 16 l 1,7,-1
 23 32 l 1,8,-1
 7 32 l 1,9,-1
 7 48 l 1,10,-1
 23 48 l 1,11,-1
 23 64 l 25,0,-1
EndSplineSet
EndChar

StartChar: comma
Encoding: 44 44 11
Width: 64
Flags: W
HStem: -8 24<24 32>
VStem: 24 16<8 16>
LayerCount: 2
Fore
SplineSet
23 16 m 1,0,-1
 41 16 l 5,1,-1
 41 8 l 5,2,-1
 33 -8 l 1,3,-1
 15 -8 l 1,4,-1
 23 8 l 1,5,-1
 23 16 l 1,0,-1
EndSplineSet
EndChar

StartChar: hyphen
Encoding: 45 45 12
Width: 64
Flags: W
HStem: 32 16<8 56>
LayerCount: 2
Fore
SplineSet
7 48 m 25,0,-1
 57 48 l 1,1,-1
 57 32 l 1,2,-1
 7 32 l 1,3,-1
 7 48 l 25,0,-1
EndSplineSet
EndChar

StartChar: period
Encoding: 46 46 13
Width: 64
Flags: W
HStem: 0 16<24 40>
VStem: 24 16<0 16>
LayerCount: 2
Fore
SplineSet
23 16 m 25,0,-1
 41 16 l 5,1,-1
 41 0 l 5,2,-1
 23 0 l 1,3,-1
 23 16 l 25,0,-1
EndSplineSet
EndChar

StartChar: slash
Encoding: 47 47 14
Width: 64
Flags: MW
LayerCount: 2
Fore
SplineSet
38 80 m 25,0,-1
 56 80 l 1,1,-1
 18 0 l 1,2,-1
 0 0 l 1,3,-1
 38 80 l 25,0,-1
EndSplineSet
EndChar

StartChar: zero
Encoding: 48 48 15
Width: 64
Flags: W
HStem: 0 8<16 40> 72 8<16 40>
VStem: 0 16<12 20 36 68> 40 16<12 44 60 68>
LayerCount: 2
Fore
SplineSet
38 44 m 1,0,-1
 18 20 l 1,1,-1
 18 8 l 1,2,-1
 38 8 l 1,3,-1
 38 44 l 1,0,-1
38 72 m 1,4,-1
 18 72 l 1,5,-1
 18 36 l 1,6,-1
 38 60 l 1,7,-1
 38 72 l 1,4,-1
12 80 m 1,8,-1
 44 80 l 1,9,-1
 56 68 l 1,10,-1
 56 12 l 1,11,-1
 44 0 l 1,12,-1
 12 0 l 1,13,-1
 0 12 l 1,14,-1
 0 68 l 1,15,-1
 12 80 l 1,8,-1
EndSplineSet
EndChar

StartChar: one
Encoding: 49 49 16
Width: 64
Flags: MW
HStem: 0 8<8 24 40 56>
VStem: 24 16<8 56>
LayerCount: 2
Fore
SplineSet
8 0 m 25,0,-1
 8 8 l 1,1,-1
 23 8 l 1,2,-1
 23 56 l 1,3,-1
 8 56 l 1,4,-1
 8 60 l 1,5,-1
 28 80 l 1,6,-1
 41 80 l 1,7,-1
 41 8 l 1,8,-1
 56 8 l 1,9,-1
 56 0 l 1,10,-1
 8 0 l 25,0,-1
EndSplineSet
EndChar

StartChar: two
Encoding: 50 50 17
Width: 64
Flags: MW
HStem: 0 8<16 56> 72 8<16 40>
VStem: 0 16<56 68> 40 16<48 68>
LayerCount: 2
Fore
SplineSet
0 68 m 1,0,-1
 12 80 l 1,1,-1
 44 80 l 1,2,-1
 56 68 l 1,3,-1
 56 48 l 1,4,-1
 18 8 l 1,5,-1
 56 8 l 1,6,-1
 56 0 l 1,7,-1
 0 0 l 1,8,-1
 0 8 l 1,9,-1
 38 48 l 1,10,-1
 38 72 l 1,11,-1
 18 72 l 1,12,-1
 18 56 l 1,13,-1
 0 56 l 1,14,-1
 0 68 l 1,0,-1
EndSplineSet
EndChar

StartChar: three
Encoding: 51 51 18
Width: 64
Flags: MW
HStem: 0 8<16 40> 40 8<24 40> 72 8<16 40>
VStem: 0 16<12 24 56 68> 40 16<12 36 52 68>
LayerCount: 2
Fore
SplineSet
0 68 m 1,0,-1
 12 80 l 1,1,-1
 44 80 l 1,2,-1
 56 68 l 1,3,-1
 56 52 l 1,4,-1
 48 44 l 1,5,-1
 56 36 l 1,6,-1
 56 12 l 1,7,-1
 44 0 l 1,8,-1
 12 0 l 1,9,-1
 0 12 l 1,10,-1
 0 24 l 1,11,-1
 18 24 l 1,12,-1
 18 8 l 1,13,-1
 38 8 l 1,14,-1
 38 40 l 1,15,-1
 22 40 l 1,16,-1
 22 48 l 1,17,-1
 38 48 l 1,18,-1
 38 72 l 1,19,-1
 18 72 l 1,20,-1
 18 56 l 1,21,-1
 0 56 l 1,22,-1
 0 68 l 1,0,-1
EndSplineSet
EndChar

StartChar: four
Encoding: 52 52 19
Width: 64
Flags: MW
HStem: 16 8<16 32 48 56>
VStem: 32 16<0 16 24 56>
LayerCount: 2
Fore
SplineSet
31 47 m 1,0,-1
 18 24 l 1,1,-1
 31 24 l 1,2,-1
 31 47 l 1,0,-1
31 80 m 1,3,-1
 49 80 l 1,4,-1
 49 24 l 1,5,-1
 56 24 l 1,6,-1
 56 16 l 1,7,-1
 49 16 l 1,8,-1
 49 0 l 1,9,-1
 31 0 l 1,10,-1
 31 16 l 1,11,-1
 0 16 l 1,12,-1
 0 24 l 1,13,-1
 31 80 l 1,3,-1
EndSplineSet
EndChar

StartChar: A
Encoding: 65 65 20
Width: 64
Flags: MW
HStem: 24 8<16 40> 64 16<24 32>
VStem: 0 16<0 24 32 48> 40 16<0 24 32 48>
AnchorPoint: "bottom" 48 0 basechar 0
AnchorPoint: "top" 28 80 basechar 0
LayerCount: 2
Fore
SplineSet
30 64 m 1,0,-1
 26 64 l 1,1,-1
 18 48 l 1,2,-1
 18 32 l 1,3,-1
 38 32 l 1,4,-1
 38 48 l 1,5,-1
 30 64 l 1,0,-1
16 80 m 1,6,-1
 40 80 l 1,7,-1
 56 48 l 1,8,-1
 56 0 l 1,9,-1
 38 0 l 1,10,-1
 38 24 l 1,11,-1
 18 24 l 1,12,-1
 18 0 l 1,13,-1
 0 0 l 1,14,-1
 0 48 l 1,15,-1
 16 80 l 1,6,-1
EndSplineSet
EndChar

StartChar: B
Encoding: 66 66 21
Width: 64
Flags: W
HStem: 0 8<16 40> 40 8<16 40> 72 8<16 40>
VStem: 0 16<8 40 48 72> 40 16<12 36 52 68>
AnchorPoint: "bottom" 28 0 basechar 0
AnchorPoint: "top" 28 80 basechar 0
LayerCount: 2
Fore
SplineSet
38 40 m 1,0,-1
 18 40 l 1,1,-1
 18 8 l 1,2,-1
 38 8 l 1,3,-1
 38 40 l 1,0,-1
38 72 m 25,4,-1
 18 72 l 1,5,-1
 18 48 l 1,6,-1
 38 48 l 1,7,-1
 38 72 l 25,4,-1
0 80 m 1,8,-1
 44 80 l 1,9,-1
 56 68 l 1,10,-1
 56 52 l 1,11,-1
 48 44 l 1,12,-1
 56 36 l 1,13,-1
 56 12 l 1,14,-1
 44 0 l 1,15,-1
 0 0 l 1,16,-1
 0 80 l 1,8,-1
EndSplineSet
EndChar

StartChar: C
Encoding: 67 67 22
Width: 64
Flags: MW
HStem: 0 8<16 40> 72 8<16 40>
VStem: 0 16<12 68> 40 16<12 24 56 68>
AnchorPoint: "bottom" 28 0 basechar 0
AnchorPoint: "top" 28 80 basechar 0
LayerCount: 2
Fore
SplineSet
0 68 m 1,0,-1
 12 80 l 1,1,-1
 44 80 l 1,2,-1
 56 68 l 1,3,-1
 56 56 l 1,4,-1
 38 56 l 1,5,-1
 38 72 l 1,6,-1
 18 72 l 1,7,-1
 18 8 l 1,8,-1
 38 8 l 5,9,-1
 38 24 l 5,10,-1
 56 24 l 1,11,-1
 56 12 l 1,12,-1
 44 0 l 1,13,-1
 12 0 l 1,14,-1
 0 12 l 1,15,-1
 0 68 l 1,0,-1
EndSplineSet
EndChar

StartChar: five
Encoding: 53 53 23
Width: 64
Flags: W
HStem: 0 8<16 40> 40 8<16 40> 72 8<16 56>
VStem: 0 16<12 16 48 72> 40 16<12 36>
LayerCount: 2
Fore
SplineSet
0 16 m 1,0,-1
 18 16 l 1,1,-1
 18 8 l 1,2,-1
 38 8 l 1,3,-1
 38 40 l 1,4,-1
 0 40 l 1,5,-1
 0 80 l 1,6,-1
 56 80 l 1,7,-1
 56 72 l 1,8,-1
 18 72 l 1,9,-1
 18 48 l 1,10,-1
 44 48 l 1,11,-1
 56 36 l 1,12,-1
 56 12 l 1,13,-1
 44 0 l 1,14,-1
 12 0 l 1,15,-1
 0 12 l 1,16,-1
 0 16 l 1,0,-1
EndSplineSet
EndChar

StartChar: six
Encoding: 54 54 24
Width: 64
Flags: W
HStem: 0 8<16 40> 40 8<16 40> 72 8<28 48>
VStem: 0 16<12 40 48 60> 40 16<12 36>
LayerCount: 2
Fore
SplineSet
38 40 m 1,0,-1
 18 40 l 1,1,-1
 18 8 l 1,2,-1
 38 8 l 1,3,-1
 38 40 l 1,0,-1
20 80 m 1,4,-1
 48 80 l 1,5,-1
 48 72 l 1,6,-1
 30 72 l 1,7,-1
 18 60 l 1,8,-1
 18 48 l 1,9,-1
 44 48 l 1,10,-1
 56 36 l 1,11,-1
 56 12 l 1,12,-1
 44 0 l 1,13,-1
 12 0 l 1,14,-1
 0 12 l 1,15,-1
 0 48 l 1,16,-1
 0 60 l 1,17,-1
 20 80 l 1,4,-1
EndSplineSet
EndChar

StartChar: seven
Encoding: 55 55 25
Width: 64
Flags: MW
HStem: 72 8<0 40>
LayerCount: 2
Fore
SplineSet
0 80 m 1,0,-1
 56 80 l 1,1,-1
 56 72 l 1,2,-1
 24 0 l 1,3,-1
 6 0 l 1,4,-1
 38 72 l 1,5,-1
 0 72 l 1,6,-1
 0 80 l 1,0,-1
EndSplineSet
EndChar

StartChar: eight
Encoding: 56 56 26
Width: 64
Flags: W
HStem: 0 8<16 40> 40 8<16 40> 72 8<16 40>
VStem: 0 16<12 36 52 68> 40 16<12 36 52 68>
LayerCount: 2
Fore
SplineSet
38 40 m 1,0,-1
 18 40 l 1,1,-1
 18 8 l 1,2,-1
 38 8 l 1,3,-1
 38 40 l 1,0,-1
38 72 m 25,4,-1
 18 72 l 1,5,-1
 18 48 l 1,6,-1
 38 48 l 1,7,-1
 38 72 l 25,4,-1
12 80 m 1,8,-1
 44 80 l 1,9,-1
 56 68 l 1,10,-1
 56 52 l 1,11,-1
 48 44 l 1,12,-1
 56 36 l 1,13,-1
 56 12 l 1,14,-1
 44 0 l 1,15,-1
 12 0 l 1,16,-1
 0 12 l 1,17,-1
 0 36 l 1,18,-1
 8 44 l 1,19,-1
 0 52 l 1,20,-1
 0 68 l 1,21,-1
 12 80 l 1,8,-1
EndSplineSet
EndChar

StartChar: nine
Encoding: 57 57 27
Width: 64
Flags: W
HStem: 0 8<8 28> 40 8<16 40> 72 8<16 40>
VStem: 0 16<52 68> 40 16<20 40 48 68>
LayerCount: 2
Fore
SplineSet
18 48 m 1,0,-1
 38 48 l 1,1,-1
 38 72 l 1,2,-1
 18 72 l 1,3,-1
 18 48 l 1,0,-1
8 0 m 1,4,-1
 8 8 l 1,5,-1
 26 8 l 1,6,-1
 38 20 l 1,7,-1
 38 40 l 1,8,-1
 12 40 l 1,9,-1
 0 52 l 1,10,-1
 0 68 l 1,11,-1
 12 80 l 1,12,-1
 44 80 l 1,13,-1
 56 68 l 1,14,-1
 56 40 l 1,15,-1
 56 20 l 1,16,-1
 36 0 l 1,17,-1
 8 0 l 1,4,-1
EndSplineSet
EndChar

StartChar: colon
Encoding: 58 58 28
Width: 64
Flags: W
HStem: 0 16<24 40> 40 16<24 40>
VStem: 24 16<0 16 40 56>
LayerCount: 2
Fore
SplineSet
23 16 m 25,0,-1
 41 16 l 1,1,-1
 41 0 l 1,2,-1
 23 0 l 1,3,-1
 23 16 l 25,0,-1
23 56 m 25,4,-1
 41 56 l 1,5,-1
 41 40 l 1,6,-1
 23 40 l 1,7,-1
 23 56 l 25,4,-1
EndSplineSet
EndChar

StartChar: semicolon
Encoding: 59 59 29
Width: 64
Flags: W
HStem: 40 16<24 40>
VStem: 24 16<8 16 40 56>
LayerCount: 2
Fore
SplineSet
23 16 m 9,0,-1
 41 16 l 1,1,-1
 41 8 l 1,2,-1
 33 -8 l 1,3,-1
 15 -8 l 1,4,-1
 23 8 l 1,5,-1
 23 16 l 9,0,-1
23 56 m 25,6,-1
 41 56 l 1,7,-1
 41 40 l 1,8,-1
 23 40 l 1,9,-1
 23 56 l 25,6,-1
EndSplineSet
EndChar

StartChar: less
Encoding: 60 60 30
Width: 64
Flags: MW
LayerCount: 2
Fore
SplineSet
32 80 m 1,0,-1
 50 80 l 1,1,-1
 18 40 l 1,2,-1
 50 0 l 1,3,-1
 32 0 l 1,4,-1
 0 40 l 1,5,-1
 32 80 l 1,0,-1
EndSplineSet
EndChar

StartChar: greater
Encoding: 62 62 31
Width: 64
Flags: MW
LayerCount: 2
Fore
SplineSet
24 80 m 1,0,-1
 56 40 l 1,1,-1
 24 0 l 1,2,-1
 6 0 l 1,3,-1
 38 40 l 1,4,-1
 6 80 l 1,5,-1
 24 80 l 1,0,-1
EndSplineSet
EndChar

StartChar: equal
Encoding: 61 61 32
Width: 64
Flags: W
HStem: 16 16<0 56> 40 16<0 56>
LayerCount: 2
Fore
SplineSet
0 32 m 25,0,-1
 58 32 l 1,1,-1
 58 16 l 1,2,-1
 0 16 l 1,3,-1
 0 32 l 25,0,-1
0 56 m 1,4,-1
 58 56 l 1,5,-1
 58 40 l 1,6,-1
 0 40 l 1,7,-1
 0 56 l 1,4,-1
EndSplineSet
EndChar

StartChar: question
Encoding: 63 63 33
Width: 64
Flags: MW
HStem: 0 16<16 32> 72 8<16 32>
VStem: 0 16<56 68> 16 16<0 16> 32 16<48 68>
LayerCount: 2
Fore
SplineSet
0 56 m 1,0,-1
 0 68 l 1,1,-1
 12 80 l 1,2,-1
 36 80 l 1,3,-1
 48 68 l 1,4,-1
 48 48 l 1,5,-1
 33 32 l 1,6,-1
 15 32 l 1,7,-1
 30 48 l 1,8,-1
 30 72 l 1,9,-1
 18 72 l 1,10,-1
 18 56 l 1,11,-1
 0 56 l 1,0,-1
15 16 m 25,12,-1
 33 16 l 1,13,-1
 33 0 l 1,14,-1
 15 0 l 1,15,-1
 15 16 l 25,12,-1
EndSplineSet
EndChar

StartChar: at
Encoding: 64 64 34
Width: 64
Flags: W
HStem: 0 8<16 40> 24 8<24 32> 40 8<24 32> 72 8<16 40>
VStem: 0 16<12 32 40 68> 40 16<12 16 44 68>
LayerCount: 2
Fore
SplineSet
0 68 m 1,0,-1
 12 80 l 1,1,-1
 44 80 l 1,2,-1
 56 68 l 1,3,-1
 56 42 l 1,4,-1
 38 24 l 1,5,-1
 24 24 l 1,6,-1
 18 30 l 1,7,-1
 18 8 l 1,8,-1
 38 8 l 1,9,-1
 38 16 l 1,10,-1
 56 16 l 1,11,-1
 56 12 l 1,12,-1
 44 0 l 1,13,-1
 12 0 l 1,14,-1
 0 12 l 1,15,-1
 0 68 l 1,0,-1
24 48 m 1,16,-1
 32 48 l 1,17,-1
 38 42 l 1,18,-1
 38 72 l 1,19,-1
 18 72 l 1,20,-1
 18 42 l 1,21,-1
 24 48 l 1,16,-1
32 40 m 1,22,-1
 24 40 l 1,23,-1
 24 32 l 1,24,-1
 32 32 l 1,25,-1
 32 40 l 1,22,-1
EndSplineSet
EndChar

StartChar: D
Encoding: 68 68 35
Width: 64
Flags: W
HStem: 0 8<16 28> 72 8<16 28>
VStem: 0 16<8 72> 40 16<24 56>
AnchorPoint: "bottom" 28 0 basechar 0
AnchorPoint: "top" 28 80 basechar 0
LayerCount: 2
Fore
SplineSet
26 72 m 1,0,-1
 18 72 l 1,1,-1
 18 8 l 1,2,-1
 26 8 l 1,3,-1
 38 24 l 1,4,-1
 38 56 l 1,5,-1
 26 72 l 1,0,-1
0 80 m 25,6,-1
 40 80 l 1,7,-1
 56 56 l 1,8,-1
 56 24 l 1,9,-1
 40 0 l 1,10,-1
 0 0 l 1,11,-1
 0 80 l 25,6,-1
EndSplineSet
EndChar

StartChar: E
Encoding: 69 69 36
Width: 64
Flags: W
HStem: 0 8<16 56> 40 8<16 48> 72 8<16 56>
VStem: 0 16<8 40 48 72>
AnchorPoint: "bottom" 52 0 basechar 0
AnchorPoint: "top" 28 80 basechar 0
LayerCount: 2
Fore
SplineSet
0 80 m 25,0,-1
 56 80 l 1,1,-1
 56 72 l 1,2,-1
 18 72 l 1,3,-1
 18 48 l 1,4,-1
 48 48 l 1,5,-1
 48 40 l 1,6,-1
 18 40 l 1,7,-1
 18 8 l 1,8,-1
 56 8 l 1,9,-1
 56 0 l 1,10,-1
 0 0 l 1,11,-1
 0 80 l 25,0,-1
EndSplineSet
EndChar

StartChar: F
Encoding: 70 70 37
Width: 64
Flags: MW
HStem: 40 8<16 48> 72 8<16 56>
VStem: 0 16<0 40 48 72>
AnchorPoint: "bottom" 8 0 basechar 0
AnchorPoint: "top" 28 80 basechar 0
LayerCount: 2
Fore
SplineSet
0 80 m 25,0,-1
 56 80 l 1,1,-1
 56 72 l 1,2,-1
 18 72 l 1,3,-1
 18 48 l 1,4,-1
 48 48 l 1,5,-1
 48 40 l 1,6,-1
 18 40 l 1,7,-1
 18 0 l 1,8,-1
 0 0 l 1,9,-1
 0 80 l 25,0,-1
EndSplineSet
EndChar

StartChar: G
Encoding: 71 71 38
Width: 64
Flags: MW
HStem: 0 8<16 40> 32 8<24 40> 72 8<16 40>
VStem: 0 16<12 68> 40 16<12 32 56 68>
AnchorPoint: "bottom" 28 0 basechar 0
AnchorPoint: "top" 28 80 basechar 0
LayerCount: 2
Fore
SplineSet
0 68 m 1,0,-1
 12 80 l 1,1,-1
 44 80 l 1,2,-1
 56 68 l 1,3,-1
 56 56 l 1,4,-1
 38 56 l 1,5,-1
 38 72 l 1,6,-1
 18 72 l 1,7,-1
 18 8 l 1,8,-1
 38 8 l 1,9,-1
 38 32 l 1,10,-1
 24 32 l 1,11,-1
 24 40 l 1,12,-1
 56 40 l 1,13,-1
 56 12 l 1,14,-1
 44 0 l 1,15,-1
 12 0 l 1,16,-1
 0 12 l 1,17,-1
 0 68 l 1,0,-1
EndSplineSet
EndChar

StartChar: H
Encoding: 72 72 39
Width: 64
Flags: MW
HStem: 40 8<16 40>
VStem: 0 16<0 40 48 80> 40 16<0 40 48 80>
AnchorPoint: "bottom" 28 0 basechar 0
AnchorPoint: "top" 28 80 basechar 0
LayerCount: 2
Fore
SplineSet
0 80 m 25,0,-1
 18 80 l 1,1,-1
 18 48 l 1,2,-1
 38 48 l 1,3,-1
 38 80 l 1,4,-1
 56 80 l 1,5,-1
 56 0 l 1,6,-1
 38 0 l 1,7,-1
 38 40 l 1,8,-1
 18 40 l 1,9,-1
 18 0 l 1,10,-1
 0 0 l 1,11,-1
 0 80 l 25,0,-1
EndSplineSet
EndChar

StartChar: I
Encoding: 73 73 40
Width: 64
Flags: W
HStem: 0 8<8 16 32 40> 72 8<8 16 32 40>
VStem: 16 16<8 72>
AnchorPoint: "bottom" 24 0 basechar 0
AnchorPoint: "top" 24 80 basechar 0
LayerCount: 2
Fore
SplineSet
8 80 m 25,0,-1
 40 80 l 1,1,-1
 40 72 l 1,2,-1
 33 72 l 1,3,-1
 33 8 l 1,4,-1
 40 8 l 1,5,-1
 40 0 l 1,6,-1
 8 0 l 1,7,-1
 8 8 l 1,8,-1
 15 8 l 1,9,-1
 15 72 l 1,10,-1
 8 72 l 1,11,-1
 8 80 l 25,0,-1
EndSplineSet
EndChar

StartChar: J
Encoding: 74 74 41
Width: 64
Flags: MW
HStem: 0 8<16 40>
VStem: 0 16<12 24> 40 16<12 80>
LayerCount: 2
Fore
SplineSet
38 80 m 1,0,-1
 56 80 l 1,1,-1
 56 12 l 1,2,-1
 44 0 l 1,3,-1
 12 0 l 1,4,-1
 0 12 l 1,5,-1
 0 24 l 1,6,-1
 18 24 l 1,7,-1
 18 8 l 1,8,-1
 38 8 l 1,9,-1
 38 80 l 1,0,-1
EndSplineSet
EndChar

StartChar: K
Encoding: 75 75 42
Width: 64
Flags: MW
HStem: 32 16
VStem: 0 16<0 32 48 80>
AnchorPoint: "top" 28 80 basechar 0
AnchorPoint: "bottom" 28 0 basechar 0
LayerCount: 2
Fore
SplineSet
0 80 m 25,0,-1
 18 80 l 1,1,-1
 18 48 l 1,2,-1
 38 80 l 1,3,-1
 56 80 l 1,4,-1
 30 40 l 1,5,-1
 56 0 l 1,6,-1
 38 0 l 1,7,-1
 18 32 l 1,8,-1
 18 0 l 1,9,-1
 0 0 l 1,10,-1
 0 80 l 25,0,-1
EndSplineSet
EndChar

StartChar: L
Encoding: 76 76 43
Width: 64
Flags: MW
HStem: 0 8<16 56>
VStem: 0 16<8 80>
AnchorPoint: "top" 8 80 basechar 0
AnchorPoint: "bottom" 32 0 basechar 0
LayerCount: 2
Fore
SplineSet
0 80 m 25,0,-1
 18 80 l 1,1,-1
 18 8 l 1,2,-1
 56 8 l 1,3,-1
 56 0 l 1,4,-1
 0 0 l 1,5,-1
 0 80 l 25,0,-1
EndSplineSet
EndChar

StartChar: M
Encoding: 77 77 44
Width: 64
Flags: MW
VStem: 0 16<0 56> 40 16<0 56>
LayerCount: 2
Fore
SplineSet
0 0 m 25,0,-1
 0 80 l 1,1,-1
 18 80 l 1,2,-1
 28 64 l 1,3,-1
 38 80 l 1,4,-1
 56 80 l 1,5,-1
 56 0 l 1,6,-1
 38 0 l 1,7,-1
 38 56 l 1,8,-1
 28 40 l 1,9,-1
 18 56 l 1,10,-1
 18 0 l 1,11,-1
 0 0 l 25,0,-1
EndSplineSet
EndChar

StartChar: N
Encoding: 78 78 45
Width: 64
Flags: MW
VStem: 0 16<0 48> 40 16<32 80>
AnchorPoint: "bottom" 28 0 basechar 0
AnchorPoint: "top" 28 80 basechar 0
LayerCount: 2
Fore
SplineSet
0 80 m 25,0,-1
 18 80 l 1,1,-1
 38 32 l 1,2,-1
 38 80 l 1,3,-1
 56 80 l 1,4,-1
 56 0 l 1,5,-1
 38 0 l 1,6,-1
 18 48 l 1,7,-1
 18 0 l 1,8,-1
 0 0 l 1,9,-1
 0 80 l 25,0,-1
EndSplineSet
EndChar

StartChar: O
Encoding: 79 79 46
Width: 64
Flags: W
HStem: 0 8<16 40> 72 8<16 40>
VStem: 0 16<12 68> 40 16<12 68>
AnchorPoint: "bottom" 28 0 basechar 0
AnchorPoint: "top" 28 80 basechar 0
LayerCount: 2
Fore
SplineSet
38 72 m 25,0,-1
 18 72 l 1,1,-1
 18 8 l 1,2,-1
 38 8 l 1,3,-1
 38 72 l 25,0,-1
12 80 m 1,4,-1
 44 80 l 1,5,-1
 56 68 l 1,6,-1
 56 12 l 1,7,-1
 44 0 l 1,8,-1
 12 0 l 1,9,-1
 0 12 l 1,10,-1
 0 68 l 1,11,-1
 12 80 l 1,4,-1
EndSplineSet
EndChar

StartChar: P
Encoding: 80 80 47
Width: 64
Flags: MW
HStem: 40 8<16 40> 72 8<16 40>
VStem: 0 16<0 40 48 72> 40 16<52 68>
AnchorPoint: "bottom" 8 0 basechar 0
AnchorPoint: "top" 28 80 basechar 0
LayerCount: 2
Fore
SplineSet
38 72 m 25,0,-1
 18 72 l 1,1,-1
 18 48 l 1,2,-1
 38 48 l 1,3,-1
 38 72 l 25,0,-1
0 0 m 25,4,-1
 0 80 l 1,5,-1
 44 80 l 1,6,-1
 56 68 l 1,7,-1
 56 52 l 1,8,-1
 44 40 l 1,9,-1
 18 40 l 1,10,-1
 18 0 l 1,11,-1
 0 0 l 25,4,-1
EndSplineSet
EndChar

StartChar: Q
Encoding: 81 81 48
Width: 64
Flags: W
HStem: 0 8<16 24> 72 8<16 40>
VStem: 0 16<12 68> 40 16<24 68>
AnchorPoint: "bottom" 28 0 basechar 0
AnchorPoint: "top" 28 80 basechar 0
LayerCount: 2
Fore
SplineSet
38 72 m 25,0,-1
 18 72 l 1,1,-1
 18 8 l 1,2,-1
 22 8 l 1,3,-1
 38 24 l 1,4,-1
 38 72 l 25,0,-1
0 68 m 1,5,-1
 12 80 l 1,6,-1
 44 80 l 1,7,-1
 56 68 l 1,8,-1
 56 24 l 1,9,-1
 48 16 l 1,10,-1
 56 8 l 1,11,-1
 56 0 l 1,12,-1
 46 0 l 1,13,-1
 40 6 l 1,14,-1
 34 0 l 1,15,-1
 12 0 l 1,16,-1
 0 12 l 1,17,-1
 0 68 l 1,5,-1
EndSplineSet
EndChar

StartChar: R
Encoding: 82 82 49
Width: 64
Flags: MW
HStem: 40 8<32 40> 72 8<16 40>
VStem: 0 16<0 40 48 72> 40 16<0 12 52 68>
AnchorPoint: "bottom" 28 0 basechar 0
AnchorPoint: "top" 28 80 basechar 0
LayerCount: 2
Fore
SplineSet
38 72 m 1,0,-1
 18 72 l 1,1,-1
 18 48 l 1,2,-1
 38 48 l 1,3,-1
 38 72 l 1,0,-1
0 0 m 25,4,-1
 0 80 l 1,5,-1
 44 80 l 1,6,-1
 56 68 l 1,7,-1
 56 52 l 1,8,-1
 44 40 l 1,9,-1
 36 40 l 1,10,-1
 56 12 l 1,11,-1
 56 0 l 1,12,-1
 38 0 l 1,13,-1
 38 12 l 1,14,-1
 18 40 l 1,15,-1
 18 0 l 1,16,-1
 0 0 l 25,4,-1
EndSplineSet
EndChar

StartChar: S
Encoding: 83 83 50
Width: 64
Flags: W
HStem: 0 8<16 40> 72 8<16 40>
VStem: 0 16<12 16 56 68> 40 16<12 28 64 68>
AnchorPoint: "bottom" 28 0 basechar 0
AnchorPoint: "top" 28 80 basechar 0
LayerCount: 2
Fore
SplineSet
0 68 m 1,0,-1
 12 80 l 1,1,-1
 44 80 l 1,2,-1
 56 68 l 1,3,-1
 56 64 l 1,4,-1
 38 64 l 1,5,-1
 38 72 l 1,6,-1
 18 72 l 1,7,-1
 18 56 l 1,8,-1
 56 32 l 1,9,-1
 56 12 l 1,10,-1
 44 0 l 1,11,-1
 12 0 l 1,12,-1
 0 12 l 1,13,-1
 0 16 l 1,14,-1
 18 16 l 1,15,-1
 18 8 l 1,16,-1
 38 8 l 1,17,-1
 38 28 l 1,18,-1
 0 52 l 1,19,-1
 0 68 l 1,0,-1
EndSplineSet
EndChar

StartChar: T
Encoding: 84 84 51
Width: 64
Flags: MW
HStem: 72 8<0 16 32 48>
VStem: 16 16<0 72>
AnchorPoint: "bottom" 24 0 basechar 0
AnchorPoint: "top" 24 80 basechar 0
LayerCount: 2
Fore
SplineSet
0 80 m 25,0,-1
 48 80 l 1,1,-1
 48 72 l 1,2,-1
 33 72 l 1,3,-1
 33 0 l 1,4,-1
 15 0 l 1,5,-1
 15 72 l 1,6,-1
 0 72 l 1,7,-1
 0 80 l 25,0,-1
EndSplineSet
EndChar

StartChar: U
Encoding: 85 85 52
Width: 64
Flags: MW
HStem: 0 8<16 40>
VStem: 0 16<12 80> 40 16<12 80>
AnchorPoint: "bottom" 28 0 basechar 0
AnchorPoint: "top" 28 80 basechar 0
LayerCount: 2
Fore
SplineSet
0 80 m 25,0,-1
 18 80 l 1,1,-1
 18 8 l 1,2,-1
 38 8 l 5,3,-1
 38 80 l 5,4,-1
 56 80 l 1,5,-1
 56 12 l 1,6,-1
 44 0 l 1,7,-1
 12 0 l 1,8,-1
 0 12 l 1,9,-1
 0 80 l 25,0,-1
EndSplineSet
EndChar

StartChar: V
Encoding: 86 86 53
Width: 64
Flags: MW
LayerCount: 2
Fore
SplineSet
0 80 m 1,0,-1
 18 80 l 1,1,-1
 28 32 l 1,2,-1
 38 80 l 1,3,-1
 56 80 l 1,4,-1
 37 0 l 1,5,-1
 19 0 l 1,6,-1
 0 80 l 1,0,-1
EndSplineSet
EndChar

StartChar: W
Encoding: 87 87 54
Width: 64
Flags: MW
VStem: 0 16<24 80> 40 16<24 80>
AnchorPoint: "bottom" 28 0 basechar 0
AnchorPoint: "top" 28 80 basechar 0
LayerCount: 2
Fore
SplineSet
0 80 m 25,0,-1
 18 80 l 1,1,-1
 18 24 l 1,2,-1
 28 40 l 1,3,-1
 38 24 l 1,4,-1
 38 80 l 1,5,-1
 56 80 l 1,6,-1
 56 0 l 1,7,-1
 38 0 l 5,8,-1
 28 16 l 1,9,-1
 18 0 l 1,10,-1
 0 0 l 1,11,-1
 0 80 l 25,0,-1
EndSplineSet
EndChar

StartChar: X
Encoding: 88 88 55
Width: 64
Flags: MW
LayerCount: 2
Fore
SplineSet
0 80 m 1,0,-1
 18 80 l 1,1,-1
 28 56 l 1,2,-1
 38 80 l 1,3,-1
 56 80 l 1,4,-1
 37 40 l 1,5,-1
 56 0 l 1,6,-1
 38 0 l 1,7,-1
 28 24 l 1,8,-1
 18 0 l 1,9,-1
 0 0 l 1,10,-1
 19 40 l 1,11,-1
 0 80 l 1,0,-1
EndSplineSet
EndChar

StartChar: Y
Encoding: 89 89 56
Width: 64
Flags: MW
VStem: 20 16<0 32>
AnchorPoint: "bottom" 28 0 basechar 0
AnchorPoint: "top" 28 80 basechar 0
LayerCount: 2
Fore
SplineSet
0 80 m 1,0,-1
 18 80 l 1,1,-1
 28 54 l 1,2,-1
 38 80 l 1,3,-1
 56 80 l 1,4,-1
 37 32 l 1,5,-1
 37 0 l 1,6,-1
 19 0 l 1,7,-1
 19 32 l 1,8,-1
 0 80 l 1,0,-1
EndSplineSet
EndChar

StartChar: Z
Encoding: 90 90 57
Width: 64
Flags: W
HStem: 0 8<16 56> 72 8<0 40>
AnchorPoint: "bottom" 28 0 basechar 0
AnchorPoint: "top" 28 80 basechar 0
LayerCount: 2
Fore
SplineSet
0 80 m 1,0,-1
 56 80 l 1,1,-1
 56 72 l 1,2,-1
 18 8 l 1,3,-1
 56 8 l 1,4,-1
 56 0 l 1,5,-1
 0 0 l 1,6,-1
 0 8 l 1,7,-1
 38 72 l 1,8,-1
 0 72 l 1,9,-1
 0 80 l 1,0,-1
EndSplineSet
EndChar

StartChar: bracketleft
Encoding: 91 91 58
Width: 64
Flags: W
HStem: 0 8<16 40> 72 8<16 40>
VStem: 0 16<8 72>
LayerCount: 2
Fore
SplineSet
0 80 m 25,0,-1
 40 80 l 1,1,-1
 40 72 l 1,2,-1
 18 72 l 5,3,-1
 18 8 l 5,4,-1
 40 8 l 1,5,-1
 40 0 l 1,6,-1
 0 0 l 1,7,-1
 0 80 l 25,0,-1
EndSplineSet
EndChar

StartChar: backslash
Encoding: 92 92 59
Width: 64
Flags: MW
LayerCount: 2
Fore
SplineSet
0 80 m 25,0,-1
 18 80 l 1,1,-1
 56 0 l 1,2,-1
 38 0 l 5,3,-1
 0 80 l 25,0,-1
EndSplineSet
EndChar

StartChar: bracketright
Encoding: 93 93 60
Width: 64
Flags: W
HStem: 0 8<16 40> 72 8<16 40>
VStem: 40 16<8 72>
LayerCount: 2
Fore
SplineSet
16 80 m 25,0,-1
 56 80 l 1,1,-1
 56 0 l 1,2,-1
 16 0 l 1,3,-1
 16 8 l 1,4,-1
 38 8 l 1,5,-1
 38 72 l 1,6,-1
 16 72 l 1,7,-1
 16 80 l 25,0,-1
EndSplineSet
EndChar

StartChar: underscore
Encoding: 95 95 61
Width: 64
Flags: W
HStem: 0 8<0 56>
LayerCount: 2
Fore
SplineSet
0 10 m 25,0,-1
 56 10 l 1,1,-1
 56 0 l 1,2,-1
 0 0 l 1,3,-1
 0 10 l 25,0,-1
EndSplineSet
EndChar

StartChar: grave
Encoding: 96 96 62
Width: 64
Flags: W
HStem: 64 16<16 24>
VStem: 8 24
LayerCount: 2
Fore
SplineSet
7 80 m 25,0,-1
 25 80 l 1,1,-1
 33 64 l 1,2,-1
 15 64 l 1,3,-1
 7 80 l 25,0,-1
EndSplineSet
EndChar

StartChar: a
Encoding: 97 97 63
Width: 64
Flags: W
HStem: 0 8<16 40> 24 8<16 40> 48 8<8 40>
VStem: 0 16<12 20> 40 16<12 24 32 44>
CounterMasks: 1 e0
AnchorPoint: "bottom" 28 0 basechar 0
AnchorPoint: "top" 28 56 basechar 0
LayerCount: 2
Fore
SplineSet
38 24 m 25,0,-1
 18 24 l 1,1,-1
 18 8 l 1,2,-1
 38 8 l 1,3,-1
 38 24 l 25,0,-1
0 12 m 1,4,-1
 0 20 l 1,5,-1
 12 32 l 1,6,-1
 38 32 l 1,7,-1
 38 48 l 1,8,-1
 8 48 l 1,9,-1
 8 56 l 1,10,-1
 44 56 l 1,11,-1
 56 44 l 1,12,-1
 56 12 l 1,13,-1
 44 0 l 1,14,-1
 12 0 l 1,15,-1
 0 12 l 1,4,-1
EndSplineSet
EndChar

StartChar: b
Encoding: 98 98 64
Width: 64
Flags: MW
HStem: 0 8<16 40> 48 8<16 40>
VStem: 0 16<8 48 56 80> 40 16<12 44>
LayerCount: 2
Fore
SplineSet
38 48 m 29,0,-1
 18 48 l 1,1,-1
 18 8 l 1,2,-1
 38 8 l 5,3,-1
 38 48 l 29,0,-1
0 80 m 25,4,-1
 18 80 l 1,5,-1
 18 56 l 1,6,-1
 44 56 l 1,7,-1
 56 44 l 1,8,-1
 56 12 l 1,9,-1
 44 0 l 1,10,-1
 0 0 l 1,11,-1
 0 80 l 25,4,-1
EndSplineSet
EndChar

StartChar: c
Encoding: 99 99 65
Width: 64
Flags: W
HStem: 0 8<16 40> 48 8<16 40>
VStem: 0 16<12 44> 40 16<12 16 40 44>
AnchorPoint: "bottom" 28 0 basechar 0
AnchorPoint: "top" 28 56 basechar 0
LayerCount: 2
Fore
SplineSet
12 56 m 1,0,-1
 44 56 l 1,1,-1
 56 44 l 1,2,-1
 56 40 l 1,3,-1
 38 40 l 1,4,-1
 38 48 l 1,5,-1
 18 48 l 1,6,-1
 18 8 l 1,7,-1
 38 8 l 5,8,-1
 38 16 l 5,9,-1
 56 16 l 1,10,-1
 56 12 l 1,11,-1
 44 0 l 1,12,-1
 12 0 l 1,13,-1
 0 12 l 1,14,-1
 0 44 l 1,15,-1
 12 56 l 1,0,-1
EndSplineSet
EndChar

StartChar: d
Encoding: 100 100 66
Width: 64
Flags: MW
HStem: 0 8<16 40> 48 8<16 40>
VStem: 0 16<12 44> 40 16<8 48 56 80>
LayerCount: 2
Fore
SplineSet
38 48 m 29,0,-1
 18 48 l 1,1,-1
 18 8 l 1,2,-1
 38 8 l 5,3,-1
 38 48 l 29,0,-1
38 80 m 25,4,-1
 56 80 l 1,5,-1
 56 0 l 1,6,-1
 12 0 l 1,7,-1
 0 12 l 1,8,-1
 0 44 l 1,9,-1
 12 56 l 1,10,-1
 38 56 l 1,11,-1
 38 80 l 25,4,-1
EndSplineSet
EndChar

StartChar: e
Encoding: 101 101 67
Width: 64
Flags: W
HStem: 0 8<16 40> 24 8<16 40> 48 8<16 40>
VStem: 0 16<12 24 32 44> 40 16<12 16 32 44>
CounterMasks: 1 e0
AnchorPoint: "bottom" 28 0 basechar 0
AnchorPoint: "top" 28 56 basechar 0
LayerCount: 2
Fore
SplineSet
38 48 m 25,0,-1
 18 48 l 1,1,-1
 18 32 l 1,2,-1
 38 32 l 1,3,-1
 38 48 l 25,0,-1
12 56 m 1,4,-1
 44 56 l 1,5,-1
 56 44 l 1,6,-1
 56 24 l 1,7,-1
 18 24 l 1,8,-1
 18 8 l 1,9,-1
 38 8 l 1,10,-1
 38 16 l 1,11,-1
 56 16 l 1,12,-1
 56 12 l 1,13,-1
 44 0 l 1,14,-1
 12 0 l 1,15,-1
 0 12 l 1,16,-1
 0 44 l 1,17,-1
 12 56 l 1,4,-1
EndSplineSet
EndChar

StartChar: f
Encoding: 102 102 68
Width: 64
Flags: MW
HStem: 48 8<0 16 32 48> 72 8<32 48>
VStem: 16 16<0 48 56 68>
LayerCount: 2
Fore
SplineSet
15 0 m 1,0,-1
 15 48 l 1,1,-1
 0 48 l 1,2,-1
 0 56 l 1,3,-1
 15 56 l 1,4,-1
 15 68 l 1,5,-1
 27 80 l 1,6,-1
 48 80 l 1,7,-1
 48 72 l 1,8,-1
 33 72 l 1,9,-1
 33 56 l 1,10,-1
 48 56 l 1,11,-1
 48 48 l 1,12,-1
 33 48 l 1,13,-1
 33 0 l 1,14,-1
 15 0 l 1,0,-1
EndSplineSet
EndChar

StartChar: g
Encoding: 103 103 69
Width: 64
Flags: MW
HStem: -16 8<16 40> 8 8<16 40> 48 8<16 40>
VStem: 0 16<-4 0 20 44> 40 16<-4 8 16 48>
AnchorPoint: "bottom" 28 -16 basechar 0
AnchorPoint: "top" 28 56 basechar 0
LayerCount: 2
Fore
SplineSet
38 48 m 25,0,-1
 18 48 l 1,1,-1
 18 16 l 1,2,-1
 38 16 l 1,3,-1
 38 48 l 25,0,-1
0 44 m 1,4,-1
 12 56 l 1,5,-1
 56 56 l 1,6,-1
 56 -4 l 1,7,-1
 44 -16 l 1,8,-1
 12 -16 l 1,9,-1
 0 -4 l 1,10,-1
 0 0 l 1,11,-1
 18 0 l 1,12,-1
 18 -8 l 1,13,-1
 38 -8 l 1,14,-1
 38 8 l 1,15,-1
 12 8 l 1,16,-1
 0 20 l 1,17,-1
 0 44 l 1,4,-1
EndSplineSet
EndChar

StartChar: h
Encoding: 104 104 70
Width: 64
Flags: MW
HStem: 48 8<16 40>
VStem: 0 16<0 48 56 80> 40 16<0 44>
LayerCount: 2
Fore
SplineSet
0 80 m 25,0,-1
 18 80 l 1,1,-1
 18 56 l 1,2,-1
 44 56 l 1,3,-1
 56 44 l 1,4,-1
 56 0 l 1,5,-1
 38 0 l 1,6,-1
 38 48 l 1,7,-1
 18 48 l 1,8,-1
 18 0 l 1,9,-1
 0 0 l 1,10,-1
 0 80 l 25,0,-1
EndSplineSet
EndChar

StartChar: i
Encoding: 105 105 71
Width: 64
Flags: W
HStem: 0 8<8 16 32 40> 40 8<8 16> 64 16<16 32>
VStem: 16 16<8 40 64 80>
AnchorPoint: "bottom" 24 0 basechar 0
AnchorPoint: "top" 24 56 basechar 0
LayerCount: 2
Fore
SplineSet
15 64 m 25,0,-1
 15 80 l 1,1,-1
 33 80 l 1,2,-1
 33 64 l 1,3,-1
 15 64 l 25,0,-1
8 0 m 1,4,-1
 8 8 l 1,5,-1
 15 8 l 1,6,-1
 15 40 l 1,7,-1
 8 40 l 1,8,-1
 8 48 l 1,9,-1
 33 48 l 1,10,-1
 33 8 l 1,11,-1
 40 8 l 1,12,-1
 40 0 l 1,13,-1
 8 0 l 1,4,-1
EndSplineSet
EndChar

StartChar: j
Encoding: 106 106 72
Width: 64
Flags: MW
HStem: -16 8<16 40> 40 8<32 40> 64 16<40 56>
VStem: 40 16<-4 40 64 80>
AnchorPoint: "bottom" 28 -16 basechar 0
AnchorPoint: "top" 48 56 basechar 0
LayerCount: 2
Fore
SplineSet
32 48 m 1,0,-1
 56 48 l 1,1,-1
 56 -4 l 1,2,-1
 44 -16 l 1,3,-1
 12 -16 l 1,4,-1
 0 -4 l 1,5,-1
 0 0 l 1,6,-1
 18 0 l 1,7,-1
 18 -8 l 1,8,-1
 38 -8 l 1,9,-1
 38 40 l 1,10,-1
 32 40 l 1,11,-1
 32 48 l 1,0,-1
38 80 m 25,12,-1
 56 80 l 1,13,-1
 56 64 l 1,14,-1
 38 64 l 1,15,-1
 38 80 l 25,12,-1
EndSplineSet
EndChar

StartChar: k
Encoding: 107 107 73
Width: 64
Flags: MW
VStem: 0 16<0 24 32 80>
AnchorPoint: "bottom" 24 0 basechar 0
AnchorPoint: "top" 28 80 basechar 0
LayerCount: 2
Fore
SplineSet
0 80 m 25,0,-1
 18 80 l 1,1,-1
 18 34 l 1,2,-1
 38 56 l 1,3,-1
 56 56 l 1,4,-1
 34 32 l 1,5,-1
 34 24 l 1,6,-1
 56 0 l 1,7,-1
 38 0 l 1,8,-1
 18 22 l 1,9,-1
 18 0 l 1,10,-1
 0 0 l 1,11,-1
 0 80 l 25,0,-1
EndSplineSet
EndChar

StartChar: l
Encoding: 108 108 74
Width: 64
Flags: MW
VStem: 24 16<12 80>
AnchorPoint: "bottom" 32 0 basechar 0
AnchorPoint: "top" 32 80 basechar 0
LayerCount: 2
Fore
SplineSet
23 80 m 1,0,-1
 41 80 l 1,1,-1
 41 12 l 1,2,-1
 53 0 l 1,3,-1
 35 0 l 1,4,-1
 23 12 l 1,5,-1
 23 80 l 1,0,-1
EndSplineSet
EndChar

StartChar: m
Encoding: 109 109 75
Width: 64
Flags: MW
HStem: 40 16<16 20 32 40>
VStem: 0 16<0 40> 24 8<0 40> 40 16<0 40>
CounterMasks: 1 70
LayerCount: 2
Fore
SplineSet
0 0 m 25,0,-1
 0 56 l 1,1,-1
 22 56 l 1,2,-1
 32 46 l 1,3,-1
 32 56 l 1,4,-1
 44 56 l 1,5,-1
 56 44 l 1,6,-1
 56 0 l 1,7,-1
 38 0 l 1,8,-1
 38 40 l 1,9,-1
 33 40 l 1,10,-1
 33 0 l 1,11,-1
 23 0 l 1,12,-1
 23 40 l 1,13,-1
 18 40 l 1,14,-1
 18 0 l 1,15,-1
 0 0 l 25,0,-1
EndSplineSet
EndChar

StartChar: n
Encoding: 110 110 76
Width: 64
Flags: MW
HStem: 48 8<16 40>
VStem: 0 16<0 48> 40 16<0 44>
AnchorPoint: "bottom" 28 0 basechar 0
AnchorPoint: "top" 28 56 basechar 0
LayerCount: 2
Fore
SplineSet
0 0 m 25,0,-1
 0 56 l 1,1,-1
 44 56 l 1,2,-1
 56 44 l 1,3,-1
 56 0 l 1,4,-1
 38 0 l 1,5,-1
 38 48 l 1,6,-1
 18 48 l 1,7,-1
 18 0 l 1,8,-1
 0 0 l 25,0,-1
EndSplineSet
EndChar

StartChar: o
Encoding: 111 111 77
Width: 64
Flags: W
HStem: 0 8<16 40> 48 8<16 40>
VStem: 0 16<12 44> 40 16<12 44>
AnchorPoint: "bottom" 28 0 basechar 0
AnchorPoint: "top" 28 56 basechar 0
LayerCount: 2
Fore
SplineSet
38 48 m 25,0,-1
 18 48 l 1,1,-1
 18 8 l 1,2,-1
 38 8 l 1,3,-1
 38 48 l 25,0,-1
12 56 m 1,4,-1
 44 56 l 1,5,-1
 56 44 l 1,6,-1
 56 12 l 1,7,-1
 44 0 l 1,8,-1
 12 0 l 1,9,-1
 0 12 l 1,10,-1
 0 44 l 1,11,-1
 12 56 l 1,4,-1
EndSplineSet
EndChar

StartChar: p
Encoding: 112 112 78
Width: 64
Flags: MW
HStem: 0 8<16 40> 48 8<16 40>
VStem: 0 16<-16 0 8 48> 40 16<12 44>
LayerCount: 2
Fore
SplineSet
38 48 m 25,0,-1
 18 48 l 1,1,-1
 18 8 l 1,2,-1
 38 8 l 1,3,-1
 38 48 l 25,0,-1
0 -16 m 25,4,-1
 0 56 l 1,5,-1
 44 56 l 1,6,-1
 56 44 l 1,7,-1
 56 12 l 1,8,-1
 44 0 l 1,9,-1
 18 0 l 1,10,-1
 18 -16 l 1,11,-1
 0 -16 l 25,4,-1
EndSplineSet
EndChar

StartChar: q
Encoding: 113 113 79
Width: 64
Flags: MW
HStem: 0 8<16 40> 48 8<16 40>
VStem: 0 16<12 44> 40 16<-16 0 8 48>
LayerCount: 2
Fore
SplineSet
18 48 m 25,0,-1
 18 8 l 1,1,-1
 38 8 l 1,2,-1
 38 48 l 1,3,-1
 18 48 l 25,0,-1
56 -16 m 25,4,-1
 38 -16 l 1,5,-1
 38 0 l 1,6,-1
 12 0 l 1,7,-1
 0 12 l 1,8,-1
 0 44 l 1,9,-1
 12 56 l 1,10,-1
 56 56 l 1,11,-1
 56 -16 l 25,4,-1
EndSplineSet
EndChar

StartChar: r
Encoding: 114 114 80
Width: 64
Flags: MW
VStem: 0 16<0 20 40 56>
AnchorPoint: "bottom" 8 0 basechar 0
AnchorPoint: "top" 28 56 basechar 0
LayerCount: 2
Fore
SplineSet
0 0 m 25,0,-1
 0 56 l 1,1,-1
 18 56 l 1,2,-1
 18 42 l 1,3,-1
 30 56 l 1,4,-1
 52 56 l 1,5,-1
 18 18 l 1,6,-1
 18 0 l 1,7,-1
 0 0 l 25,0,-1
EndSplineSet
EndChar

StartChar: s
Encoding: 115 115 81
Width: 64
Flags: W
HStem: 0 8<16 40> 48 8<16 40>
VStem: 0 16<12 16 40 44> 40 16<12 16 40 44>
AnchorPoint: "bottom" 28 0 basechar 0
AnchorPoint: "top" 28 56 basechar 0
LayerCount: 2
Fore
SplineSet
0 44 m 1,0,-1
 12 56 l 1,1,-1
 44 56 l 1,2,-1
 56 44 l 1,3,-1
 56 40 l 1,4,-1
 38 40 l 1,5,-1
 38 48 l 1,6,-1
 18 48 l 1,7,-1
 18 40 l 1,8,-1
 56 20 l 1,9,-1
 56 12 l 1,10,-1
 44 0 l 1,11,-1
 12 0 l 1,12,-1
 0 12 l 1,13,-1
 0 16 l 1,14,-1
 18 16 l 1,15,-1
 18 8 l 1,16,-1
 38 8 l 1,17,-1
 38 16 l 1,18,-1
 0 36 l 1,19,-1
 0 44 l 1,0,-1
EndSplineSet
EndChar

StartChar: t
Encoding: 116 116 82
Width: 64
Flags: MW
HStem: 0 8<32 48> 48 8<0 16 32 48>
VStem: 16 16<12 48 56 80>
AnchorPoint: "top" 24 80 basechar 0
AnchorPoint: "bottom" 32 0 basechar 0
LayerCount: 2
Fore
SplineSet
15 80 m 1,0,-1
 33 80 l 1,1,-1
 33 56 l 1,2,-1
 48 56 l 1,3,-1
 48 48 l 1,4,-1
 33 48 l 1,5,-1
 33 8 l 1,6,-1
 48 8 l 1,7,-1
 48 0 l 1,8,-1
 27 0 l 1,9,-1
 15 12 l 1,10,-1
 15 48 l 1,11,-1
 0 48 l 1,12,-1
 0 56 l 1,13,-1
 15 56 l 1,14,-1
 15 80 l 1,0,-1
EndSplineSet
EndChar

StartChar: u
Encoding: 117 117 83
Width: 64
Flags: MW
HStem: 0 8<16 40>
VStem: 0 16<12 56> 40 16<12 56>
AnchorPoint: "bottom" 28 0 basechar 0
AnchorPoint: "top" 28 56 basechar 0
LayerCount: 2
Fore
SplineSet
0 56 m 1,0,-1
 18 56 l 1,1,-1
 18 8 l 1,2,-1
 38 8 l 1,3,-1
 38 56 l 1,4,-1
 56 56 l 1,5,-1
 56 12 l 1,6,-1
 44 0 l 1,7,-1
 12 0 l 1,8,-1
 0 12 l 1,9,-1
 0 56 l 1,0,-1
EndSplineSet
EndChar

StartChar: v
Encoding: 118 118 84
Width: 64
Flags: MW
VStem: 0 16 40 16
LayerCount: 2
Fore
SplineSet
0 56 m 1,0,-1
 18 56 l 1,1,-1
 28 22 l 1,2,-1
 38 56 l 1,3,-1
 56 56 l 1,4,-1
 37 0 l 1,5,-1
 19 0 l 1,6,-1
 0 56 l 1,0,-1
EndSplineSet
EndChar

StartChar: w
Encoding: 119 119 85
Width: 64
Flags: MW
VStem: 0 16<24 56> 40 16<24 56>
AnchorPoint: "bottom" 28 0 basechar 0
AnchorPoint: "top" 28 56 basechar 0
LayerCount: 2
Fore
SplineSet
0 56 m 25,0,-1
 18 56 l 1,1,-1
 18 24 l 1,2,-1
 28 40 l 1,3,-1
 38 24 l 1,4,-1
 38 56 l 1,5,-1
 56 56 l 1,6,-1
 56 0 l 1,7,-1
 38 0 l 1,8,-1
 28 16 l 1,9,-1
 18 0 l 1,10,-1
 0 0 l 1,11,-1
 0 56 l 25,0,-1
EndSplineSet
EndChar

StartChar: x
Encoding: 120 120 86
Width: 64
Flags: MW
LayerCount: 2
Fore
SplineSet
0 56 m 1,0,-1
 18 56 l 1,1,-1
 28 40 l 1,2,-1
 38 56 l 1,3,-1
 56 56 l 1,4,-1
 38 28 l 1,5,-1
 56 0 l 1,6,-1
 38 0 l 1,7,-1
 28 16 l 1,8,-1
 18 0 l 1,9,-1
 0 0 l 1,10,-1
 18 28 l 1,11,-1
 0 56 l 1,0,-1
EndSplineSet
EndChar

StartChar: y
Encoding: 121 121 87
Width: 64
Flags: MW
HStem: -16 8<8 32> 0 8<16 40>
VStem: 0 16<12 56> 40 16<8 56>
AnchorPoint: "bottom" 28 -16 basechar 0
AnchorPoint: "top" 28 56 basechar 0
LayerCount: 2
Fore
SplineSet
0 56 m 1,0,-1
 18 56 l 1,1,-1
 18 8 l 1,2,-1
 38 8 l 1,3,-1
 38 56 l 1,4,-1
 56 56 l 1,5,-1
 56 0 l 1,6,-1
 40 -16 l 1,7,-1
 8 -16 l 1,8,-1
 8 -8 l 1,9,-1
 30 -8 l 1,10,-1
 38 0 l 1,11,-1
 12 0 l 1,12,-1
 0 12 l 1,13,-1
 0 56 l 1,0,-1
EndSplineSet
EndChar

StartChar: z
Encoding: 122 122 88
Width: 64
Flags: W
HStem: 0 8<16 56> 48 8<0 40>
AnchorPoint: "bottom" 28 0 basechar 0
AnchorPoint: "top" 28 56 basechar 0
LayerCount: 2
Fore
SplineSet
0 56 m 25,0,-1
 56 56 l 1,1,-1
 56 48 l 1,2,-1
 18 8 l 1,3,-1
 56 8 l 1,4,-1
 56 0 l 1,5,-1
 0 0 l 1,6,-1
 0 8 l 1,7,-1
 38 48 l 1,8,-1
 0 48 l 1,9,-1
 0 56 l 25,0,-1
EndSplineSet
EndChar

StartChar: braceleft
Encoding: 123 123 89
Width: 64
Flags: W
HStem: 0 8<32 48> 72 8<32 48>
VStem: 16 16<12 32 48 68>
LayerCount: 2
Fore
SplineSet
27 80 m 1,0,-1
 48 80 l 1,1,-1
 48 72 l 1,2,-1
 33 72 l 1,3,-1
 33 48 l 1,4,-1
 21 40 l 1,5,-1
 33 32 l 1,6,-1
 33 8 l 1,7,-1
 48 8 l 1,8,-1
 48 0 l 1,9,-1
 27 0 l 1,10,-1
 15 12 l 1,11,-1
 15 32 l 1,12,-1
 3 40 l 1,13,-1
 15 48 l 1,14,-1
 15 68 l 1,15,-1
 27 80 l 1,0,-1
EndSplineSet
EndChar

StartChar: bar
Encoding: 124 124 90
Width: 64
Flags: MW
HStem: 0 80G<24 40>
VStem: 24 16<0 80>
LayerCount: 2
Fore
SplineSet
23 80 m 25,0,-1
 41 80 l 1,1,-1
 41 0 l 1,2,-1
 23 0 l 1,3,-1
 23 80 l 25,0,-1
EndSplineSet
EndChar

StartChar: braceright
Encoding: 125 125 91
Width: 64
Flags: W
HStem: 0 8<8 24> 72 8<8 24>
VStem: 24 16<12 32 48 68>
LayerCount: 2
Fore
SplineSet
29 80 m 1,0,-1
 41 68 l 1,1,-1
 41 48 l 1,2,-1
 53 40 l 1,3,-1
 41 32 l 1,4,-1
 41 12 l 1,5,-1
 29 0 l 1,6,-1
 8 0 l 1,7,-1
 8 8 l 1,8,-1
 23 8 l 1,9,-1
 23 32 l 1,10,-1
 35 40 l 1,11,-1
 23 48 l 1,12,-1
 23 72 l 1,13,-1
 8 72 l 1,14,-1
 8 80 l 1,15,-1
 29 80 l 1,0,-1
EndSplineSet
EndChar

StartChar: asciitilde
Encoding: 126 126 92
Width: 64
Flags: WO
HStem: 24 32
LayerCount: 2
Fore
SplineSet
8 42 m 25,0,-1
 24 56 l 1,1,-1
 40 42 l 1,2,-1
 56 56 l 1,3,-1
 56 38 l 1,4,-1
 40 24 l 1,5,-1
 24 38 l 1,6,-1
 8 24 l 1,7,-1
 8 42 l 25,0,-1
EndSplineSet
EndChar

StartChar: gravecomb
Encoding: 768 768 93
Width: 64
Flags: W
HStem: 88 16<24 32>
VStem: 16 24
AnchorPoint: "topmark" 32 80 mark 0
AnchorPoint: "topmark" 32 104 basemark 0
AnchorPoint: "top" 32 80 mark 0
LayerCount: 2
Fore
SplineSet
16 104 m 1,0,-1
 32 104 l 1,1,-1
 40 88 l 1,2,-1
 24 88 l 1,3,-1
 16 104 l 1,0,-1
EndSplineSet
EndChar

StartChar: acutecomb
Encoding: 769 769 104
Width: 64
Flags: W
HStem: 88 16<32 40>
VStem: 24 24
AnchorPoint: "topmark" 32 80 mark 0
AnchorPoint: "topmark" 32 104 basemark 0
AnchorPoint: "top" 32 80 mark 0
LayerCount: 2
Fore
SplineSet
32 104 m 5,0,-1
 48 104 l 1,1,-1
 40 88 l 1,2,-1
 24 88 l 1,3,-1
 32 104 l 5,0,-1
EndSplineSet
EndChar

StartChar: uni0302
Encoding: 770 770 105
Width: 64
Flags: W
HStem: 88 16
AnchorPoint: "topmark" 32 80 mark 0
AnchorPoint: "topmark" 32 104 basemark 0
AnchorPoint: "top" 32 80 mark 0
LayerCount: 2
Fore
SplineSet
8 88 m 5,0,-1
 32 104 l 1,1,-1
 56 88 l 1,2,-1
 44 88 l 1,3,-1
 32 96 l 1,4,-1
 20 88 l 1,5,-1
 8 88 l 5,0,-1
EndSplineSet
EndChar

StartChar: tildecomb
Encoding: 771 771 106
Width: 64
Flags: W
HStem: 88 16
AnchorPoint: "topmark" 32 80 mark 0
AnchorPoint: "topmark" 32 104 basemark 0
AnchorPoint: "top" 32 80 mark 0
LayerCount: 2
Fore
SplineSet
8 96 m 1,0,-1
 24 104 l 1,1,-1
 40 96 l 1,2,-1
 56 104 l 1,3,-1
 56 96 l 1,4,-1
 40 88 l 1,5,-1
 24 96 l 1,6,-1
 8 88 l 1,7,-1
 8 96 l 1,0,-1
EndSplineSet
EndChar

StartChar: uni0304
Encoding: 772 772 129
Width: 64
Flags: W
HStem: 88 16<8 56>
AnchorPoint: "topmark" 32 80 mark 0
AnchorPoint: "topmark" 32 104 basemark 0
AnchorPoint: "top" 32 80 mark 0
LayerCount: 2
Fore
SplineSet
8 104 m 5,0,-1
 56 104 l 1,1,-1
 56 88 l 1,2,-1
 8 88 l 1,3,-1
 8 104 l 5,0,-1
EndSplineSet
EndChar

StartChar: uni0305
Encoding: 773 773 130
Width: 64
Flags: W
HStem: 96 8<0 64>
AnchorPoint: "topmark" 32 80 mark 0
AnchorPoint: "topmark" 32 104 basemark 0
AnchorPoint: "top" 32 80 mark 0
LayerCount: 2
Fore
SplineSet
0 104 m 5,0,-1
 64 104 l 1,1,-1
 64 96 l 1,2,-1
 0 96 l 1,3,-1
 0 104 l 5,0,-1
EndSplineSet
EndChar

StartChar: uni0306
Encoding: 774 774 131
Width: 64
Flags: W
HStem: 88 16<20 24 40 44>
AnchorPoint: "topmark" 32 80 mark 0
AnchorPoint: "topmark" 32 104 basemark 0
AnchorPoint: "top" 32 80 mark 0
LayerCount: 2
Fore
SplineSet
24 104 m 1,0,-1
 24 96 l 1,1,-1
 40 96 l 1,2,-1
 40 104 l 1,3,-1
 56 104 l 1,4,-1
 56 100 l 1,5,-1
 44 88 l 1,6,-1
 20 88 l 1,7,-1
 8 100 l 1,8,-1
 8 104 l 1,9,-1
 24 104 l 1,0,-1
EndSplineSet
EndChar

StartChar: uni0307
Encoding: 775 775 132
Width: 64
Flags: W
HStem: 88 16<24 40>
VStem: 24 16<88 104>
AnchorPoint: "topmark" 32 80 mark 0
AnchorPoint: "topmark" 32 104 basemark 0
AnchorPoint: "top" 32 80 mark 0
LayerCount: 2
Fore
SplineSet
24 104 m 1,0,-1
 40 104 l 1,1,-1
 40 88 l 1,2,-1
 24 88 l 1,3,-1
 24 104 l 1,0,-1
EndSplineSet
EndChar

StartChar: uni0308
Encoding: 776 776 133
Width: 64
Flags: W
HStem: 88 16<12 28 36 52>
VStem: 12 16<88 104> 36 16<88 104>
AnchorPoint: "topmark" 32 80 mark 0
AnchorPoint: "topmark" 32 104 basemark 0
AnchorPoint: "top" 32 80 mark 0
LayerCount: 2
Fore
SplineSet
36 104 m 1,0,-1
 52 104 l 1,1,-1
 52 88 l 1,2,-1
 36 88 l 1,3,-1
 36 104 l 1,0,-1
12 104 m 1,4,-1
 28 104 l 1,5,-1
 28 88 l 1,6,-1
 12 88 l 1,7,-1
 12 104 l 1,4,-1
EndSplineSet
EndChar

StartChar: dotlessi
Encoding: 305 305 180
Width: 64
Flags: W
HStem: 0 8<8 16 32 40> 40 8<8 16>
VStem: 16 16<8 40>
AnchorPoint: "bottom" 24 0 basechar 0
AnchorPoint: "top" 24 56 basechar 0
LayerCount: 2
Fore
SplineSet
8 0 m 1,0,-1
 8 8 l 1,1,-1
 16 8 l 1,2,-1
 16 40 l 1,3,-1
 8 40 l 1,4,-1
 8 48 l 1,5,-1
 32 48 l 1,6,-1
 32 8 l 1,7,-1
 40 8 l 1,8,-1
 40 0 l 1,9,-1
 8 0 l 1,0,-1
EndSplineSet
EndChar

StartChar: uni030A
Encoding: 778 778 247
Width: 64
Flags: W
HStem: 84 8<28 36> 96 8<28 36>
VStem: 20 8<92 96> 36 8<92 96>
AnchorPoint: "topmark" 32 80 mark 0
AnchorPoint: "topmark" 32 104 basemark 0
AnchorPoint: "top" 32 80 mark 0
LayerCount: 2
Fore
SplineSet
36 96 m 1,0,-1
 28 96 l 1,1,-1
 28 92 l 1,2,-1
 36 92 l 1,3,-1
 36 96 l 1,0,-1
28 104 m 1,4,-1
 36 104 l 1,5,-1
 44 96 l 1,6,-1
 44 92 l 1,7,-1
 36 84 l 1,8,-1
 28 84 l 1,9,-1
 20 92 l 1,10,-1
 20 96 l 1,11,-1
 28 104 l 1,4,-1
EndSplineSet
EndChar

StartChar: uni030C
Encoding: 780 780 248
Width: 64
Flags: W
HStem: 88 16
AnchorPoint: "topmark" 32 80 mark 0
AnchorPoint: "topmark" 32 104 basemark 0
AnchorPoint: "top" 32 80 mark 0
LayerCount: 2
Fore
SplineSet
56 104 m 5,0,-1
 32 88 l 1,1,-1
 8 104 l 1,2,-1
 20 104 l 1,3,-1
 32 96 l 1,4,-1
 44 104 l 1,5,-1
 56 104 l 5,0,-1
EndSplineSet
EndChar

StartChar: uni0237
Encoding: 567 567 254
Width: 64
Flags: MW
HStem: -16 8<16 40> 40 8<32 40>
VStem: 40 16<-4 40>
AnchorPoint: "bottom" 28 -16 basechar 0
AnchorPoint: "top" 48 56 basechar 0
LayerCount: 2
Fore
SplineSet
32 48 m 1,0,-1
 56 48 l 1,1,-1
 56 -4 l 1,2,-1
 44 -16 l 1,3,-1
 12 -16 l 1,4,-1
 0 -4 l 1,5,-1
 0 0 l 1,6,-1
 16 0 l 1,7,-1
 16 -8 l 1,8,-1
 40 -8 l 1,9,-1
 40 40 l 1,10,-1
 32 40 l 1,11,-1
 32 48 l 1,0,-1
EndSplineSet
EndChar

StartChar: exclamdown
Encoding: 161 161 255
Width: 64
VWidth: 96
Flags: MW
HStem: 48 16<24 40>
VStem: 24 16<-16 32 48 64>
LayerCount: 2
Fore
SplineSet
40 -16 m 29,0,-1
 24 -16 l 1,1,-1
 24 32 l 1,2,-1
 40 32 l 1,3,-1
 40 -16 l 29,0,-1
40 48 m 29,4,-1
 24 48 l 1,5,-1
 24 64 l 1,6,-1
 40 64 l 1,7,-1
 40 48 l 29,4,-1
EndSplineSet
EndChar

StartChar: quotesingle
Encoding: 39 39 266
Width: 64
Flags: W
HStem: 56 24<16 32>
VStem: 16 16<56 80>
LayerCount: 2
Fore
SplineSet
15 80 m 1,0,-1
 33 80 l 1,1,-1
 33 56 l 1,2,-1
 15 56 l 1,3,-1
 15 80 l 1,0,-1
EndSplineSet
EndChar

StartChar: asciicircum
Encoding: 94 94 267
Width: 64
Flags: W
HStem: 52 28
LayerCount: 2
Fore
SplineSet
0 52 m 1,0,-1
 28 80 l 1,1,-1
 56 52 l 1,2,-1
 38 52 l 1,3,-1
 28 62 l 1,4,-1
 18 52 l 1,5,-1
 0 52 l 1,0,-1
EndSplineSet
EndChar

StartChar: cent
Encoding: 162 162 268
Width: 64
Flags: MW
HStem: 8 8<16 24 32 40> 40 8<16 24 32 40>
VStem: 0 16<20 36> 24 8<0 8 16 40 48 56> 40 16<20 24 32 36>
CounterMasks: 1 38
LayerCount: 2
Fore
SplineSet
24 40 m 25,0,-1
 16 40 l 1,1,-1
 16 16 l 1,2,-1
 24 16 l 1,3,-1
 24 40 l 25,0,-1
24 56 m 1,4,-1
 32 56 l 1,5,-1
 32 48 l 1,6,-1
 44 48 l 1,7,-1
 56 36 l 1,8,-1
 56 32 l 1,9,-1
 40 32 l 1,10,-1
 40 40 l 1,11,-1
 32 40 l 1,12,-1
 32 16 l 1,13,-1
 40 16 l 1,14,-1
 40 24 l 1,15,-1
 56 24 l 1,16,-1
 56 20 l 1,17,-1
 44 8 l 1,18,-1
 32 8 l 1,19,-1
 32 0 l 1,20,-1
 24 0 l 1,21,-1
 24 8 l 1,22,-1
 12 8 l 1,23,-1
 0 20 l 1,24,-1
 0 36 l 1,25,-1
 12 48 l 1,26,-1
 24 48 l 1,27,-1
 24 56 l 1,4,-1
EndSplineSet
EndChar

StartChar: sterling
Encoding: 163 163 269
Width: 64
Flags: MW
HStem: 0 8<0 8 24 56> 48 8<0 8 24 56>
VStem: 8 16<8 48 56 68> 40 16<64 68>
LayerCount: 2
Fore
SplineSet
0 0 m 25,0,-1
 0 8 l 1,1,-1
 8 8 l 1,2,-1
 8 48 l 1,3,-1
 0 48 l 1,4,-1
 0 56 l 1,5,-1
 8 56 l 1,6,-1
 8 68 l 1,7,-1
 20 80 l 1,8,-1
 44 80 l 1,9,-1
 56 68 l 1,10,-1
 56 64 l 1,11,-1
 40 64 l 1,12,-1
 40 72 l 1,13,-1
 24 72 l 1,14,-1
 24 56 l 1,15,-1
 56 56 l 1,16,-1
 56 48 l 1,17,-1
 24 48 l 1,18,-1
 24 8 l 1,19,-1
 56 8 l 1,20,-1
 56 0 l 1,21,-1
 0 0 l 25,0,-1
EndSplineSet
EndChar

StartChar: currency
Encoding: 164 164 270
Width: 64
Flags: W
HStem: 8 16<20 36> 48 16<20 36>
VStem: 0 16<28 44> 40 16<28 44>
LayerCount: 2
Fore
SplineSet
40 48 m 25,0,-1
 16 48 l 1,1,-1
 16 24 l 1,2,-1
 40 24 l 1,3,-1
 40 48 l 25,0,-1
20 64 m 1,4,-1
 36 64 l 1,5,-1
 44 56 l 1,6,-1
 48 64 l 1,7,-1
 56 64 l 1,8,-1
 56 56 l 1,9,-1
 48 52 l 1,10,-1
 56 44 l 1,11,-1
 56 28 l 1,12,-1
 48 20 l 1,13,-1
 56 16 l 1,14,-1
 56 8 l 1,15,-1
 48 8 l 1,16,-1
 44 16 l 1,17,-1
 36 8 l 1,18,-1
 20 8 l 1,19,-1
 12 16 l 1,20,-1
 8 8 l 1,21,-1
 0 8 l 1,22,-1
 0 16 l 1,23,-1
 8 20 l 1,24,-1
 0 28 l 1,25,-1
 0 44 l 1,26,-1
 8 52 l 1,27,-1
 0 56 l 1,28,-1
 0 64 l 1,29,-1
 8 64 l 1,30,-1
 12 56 l 1,31,-1
 20 64 l 1,4,-1
EndSplineSet
EndChar

StartChar: yen
Encoding: 165 165 271
Width: 64
Flags: MW
HStem: 8 8<8 20 36 48> 24 8<8 20 36 48>
VStem: 20 16<0 8 16 24>
LayerCount: 2
Fore
SplineSet
0 80 m 1,0,-1
 16 80 l 1,1,-1
 28 48 l 1,2,-1
 40 80 l 1,3,-1
 56 80 l 1,4,-1
 36 32 l 1,5,-1
 48 32 l 1,6,-1
 48 24 l 1,7,-1
 36 24 l 1,8,-1
 36 16 l 1,9,-1
 48 16 l 1,10,-1
 48 8 l 1,11,-1
 36 8 l 1,12,-1
 36 0 l 1,13,-1
 20 0 l 1,14,-1
 20 8 l 1,15,-1
 8 8 l 1,16,-1
 8 16 l 1,17,-1
 20 16 l 1,18,-1
 20 24 l 1,19,-1
 8 24 l 1,20,-1
 8 32 l 1,21,-1
 20 32 l 1,22,-1
 0 80 l 1,0,-1
EndSplineSet
EndChar

StartChar: brokenbar
Encoding: 166 166 272
Width: 64
Flags: MW
VStem: 24 16<0 32 48 80>
LayerCount: 2
Fore
SplineSet
24 32 m 1,0,-1
 40 32 l 1,1,-1
 40 0 l 1,2,-1
 24 0 l 1,3,-1
 24 32 l 1,0,-1
40 48 m 1,4,-1
 24 48 l 1,5,-1
 24 80 l 1,6,-1
 40 80 l 1,7,-1
 40 48 l 1,4,-1
EndSplineSet
EndChar

StartChar: section
Encoding: 167 167 273
Width: 64
Flags: W
HStem: 0 8<8 20> 72 8<36 48>
VStem: 0 16<28 52> 40 16<28 52>
LayerCount: 2
Fore
SplineSet
40 56 m 5,0,-1
 16 56 l 1,1,-1
 16 24 l 1,2,-1
 40 24 l 1,3,-1
 40 56 l 5,0,-1
0 52 m 5,4,-1
 28 80 l 1,5,-1
 48 80 l 1,6,-1
 48 72 l 1,7,-1
 36 72 l 1,8,-1
 56 52 l 1,9,-1
 56 28 l 1,10,-1
 28 0 l 1,11,-1
 8 0 l 1,12,-1
 8 8 l 1,13,-1
 20 8 l 1,14,-1
 0 28 l 1,15,-1
 0 52 l 5,4,-1
EndSplineSet
EndChar

StartChar: dieresis
Encoding: 168 168 274
Width: 64
Flags: W
HStem: 64 16<8 24 32 48>
VStem: 8 16<64 80> 32 16<64 80>
LayerCount: 2
Fore
SplineSet
32 80 m 1,0,-1
 48 80 l 1,1,-1
 48 64 l 1,2,-1
 32 64 l 1,3,-1
 32 80 l 1,0,-1
8 80 m 1,4,-1
 24 80 l 1,5,-1
 24 64 l 1,6,-1
 8 64 l 1,7,-1
 8 80 l 1,4,-1
EndSplineSet
EndChar

StartChar: copyright
Encoding: 169 169 275
Width: 64
Flags: W
HStem: 0 8<12 44> 16 8<28 40> 48 8<28 40> 64 8<12 44>
VStem: 0 8<12 60> 16 8<28 44> 48 8<12 60>
LayerCount: 2
Fore
SplineSet
16 44 m 1,0,-1
 28 56 l 1,1,-1
 40 56 l 1,2,-1
 40 48 l 1,3,-1
 28 48 l 1,4,-1
 24 44 l 1,5,-1
 24 28 l 1,6,-1
 28 24 l 1,7,-1
 40 24 l 1,8,-1
 40 16 l 1,9,-1
 28 16 l 1,10,-1
 16 28 l 1,11,-1
 16 44 l 1,0,-1
48 60 m 1,12,-1
 44 64 l 1,13,-1
 12 64 l 1,14,-1
 8 60 l 1,15,-1
 8 12 l 1,16,-1
 12 8 l 1,17,-1
 44 8 l 1,18,-1
 48 12 l 1,19,-1
 48 60 l 1,12,-1
12 72 m 1,20,-1
 44 72 l 1,21,-1
 56 60 l 1,22,-1
 56 12 l 1,23,-1
 44 0 l 1,24,-1
 12 0 l 1,25,-1
 0 12 l 1,26,-1
 0 60 l 1,27,-1
 12 72 l 1,20,-1
EndSplineSet
EndChar

StartChar: ordfeminine
Encoding: 170 170 276
Width: 64
Flags: W
HStem: 40 8<24 32> 56 8<24 32> 72 8<16 28>
VStem: 16 8<48 56> 32 8<48 56 64 68>
CounterMasks: 1 e0
LayerCount: 2
Fore
SplineSet
32 56 m 25,0,-1
 24 56 l 1,1,-1
 24 48 l 1,2,-1
 32 48 l 1,3,-1
 32 56 l 25,0,-1
16 80 m 1,4,-1
 28 80 l 1,5,-1
 40 68 l 1,6,-1
 40 40 l 1,7,-1
 24 40 l 1,8,-1
 16 48 l 1,9,-1
 16 56 l 1,10,-1
 24 64 l 1,11,-1
 32 64 l 1,12,-1
 32 72 l 1,13,-1
 16 72 l 1,14,-1
 16 80 l 1,4,-1
EndSplineSet
EndChar

StartChar: guillemotleft
Encoding: 171 171 277
Width: 64
Flags: MW
LayerCount: 2
Fore
SplineSet
40 40 m 1,0,-1
 56 40 l 1,1,-1
 40 20 l 1,2,-1
 56 0 l 1,3,-1
 40 0 l 1,4,-1
 24 20 l 1,5,-1
 40 40 l 1,0,-1
16 40 m 5,6,-1
 32 40 l 1,7,-1
 16 20 l 1,8,-1
 32 0 l 1,9,-1
 16 0 l 1,10,-1
 0 20 l 1,11,-1
 16 40 l 5,6,-1
EndSplineSet
EndChar

StartChar: logicalnot
Encoding: 172 172 278
Width: 64
Flags: W
HStem: 40 16<40 56> 48 8<0 40>
VStem: 40 16<40 48>
LayerCount: 2
Fore
SplineSet
0 56 m 5,0,-1
 56 56 l 1,1,-1
 56 40 l 1,2,-1
 40 40 l 1,3,-1
 40 48 l 1,4,-1
 0 48 l 1,5,-1
 0 56 l 5,0,-1
EndSplineSet
EndChar

StartChar: uni00AD
Encoding: 173 173 279
Width: 64
Flags: W
HStem: 32 16<8 56>
LayerCount: 2
Fore
SplineSet
8 48 m 29,0,-1
 56 48 l 1,1,-1
 56 32 l 1,2,-1
 8 32 l 1,3,-1
 8 48 l 29,0,-1
EndSplineSet
EndChar

StartChar: uni0327
Encoding: 807 807 280
Width: 64
Flags: W
HStem: -24 24
VStem: 24 16
AnchorPoint: "bottom" 28 0 mark 0
LayerCount: 2
Fore
SplineSet
24 0 m 5,0,-1
 32 0 l 1,1,-1
 40 -12 l 1,2,-1
 32 -24 l 1,3,-1
 24 -24 l 1,4,-1
 32 -12 l 1,5,-1
 24 0 l 5,0,-1
EndSplineSet
EndChar

StartChar: uni0328
Encoding: 808 808 283
Width: 64
Flags: W
HStem: -24 24
VStem: 16 16
AnchorPoint: "bottom" 28 0 mark 0
LayerCount: 2
Fore
SplineSet
24 0 m 5,0,-1
 32 0 l 1,1,-1
 24 -12 l 1,2,-1
 32 -24 l 1,3,-1
 24 -24 l 1,4,-1
 16 -12 l 1,5,-1
 24 0 l 5,0,-1
EndSplineSet
EndChar

StartChar: registered
Encoding: 174 174 296
Width: 64
Flags: MW
HStem: 0 8<12 44> 32 8<24 28> 48 8<24 28> 64 8<12 44>
VStem: 0 8<12 60> 16 8<16 32 40 48> 32 8<16 28 44 44> 48 8<12 60>
LayerCount: 2
Back
Fore
SplineSet
32 48 m 25,0,-1
 24 48 l 1,1,-1
 24 40 l 1,2,-1
 32 40 l 1,3,-1
 32 48 l 25,0,-1
16 56 m 25,4,-1
 28 56 l 1,5,-1
 40 44 l 1,6,-1
 32 36 l 1,7,-1
 40 28 l 1,8,-1
 40 16 l 1,9,-1
 32 16 l 1,10,-1
 32 28 l 1,11,-1
 28 32 l 1,12,-1
 24 32 l 1,13,-1
 24 16 l 1,14,-1
 16 16 l 1,15,-1
 16 56 l 25,4,-1
44 64 m 25,16,-1
 12 64 l 1,17,-1
 8 60 l 1,18,-1
 8 12 l 1,19,-1
 12 8 l 1,20,-1
 44 8 l 1,21,-1
 48 12 l 1,22,-1
 48 60 l 1,23,-1
 44 64 l 25,16,-1
12 72 m 1,24,-1
 44 72 l 1,25,-1
 56 60 l 1,26,-1
 56 12 l 1,27,-1
 44 0 l 1,28,-1
 12 0 l 1,29,-1
 0 12 l 1,30,-1
 0 60 l 1,31,-1
 12 72 l 1,24,-1
EndSplineSet
EndChar

StartChar: macron
Encoding: 175 175 297
Width: 64
Flags: W
HStem: 88 16<8 56>
LayerCount: 2
Fore
SplineSet
8 104 m 25,0,-1
 56 104 l 1,1,-1
 56 88 l 1,2,-1
 8 88 l 1,3,-1
 8 104 l 25,0,-1
EndSplineSet
EndChar

StartChar: degree
Encoding: 176 176 298
Width: 64
Flags: W
HStem: 40 8<24 32> 72 8<24 32>
VStem: 8 16<52 68> 32 16<52 68>
LayerCount: 2
Back
Fore
SplineSet
32 72 m 25,0,-1
 24 72 l 1,1,-1
 24 48 l 1,2,-1
 32 48 l 1,3,-1
 32 72 l 25,0,-1
20 80 m 1,4,-1
 36 80 l 1,5,-1
 48 68 l 1,6,-1
 48 52 l 1,7,-1
 36 40 l 1,8,-1
 20 40 l 1,9,-1
 8 52 l 1,10,-1
 8 68 l 1,11,-1
 20 80 l 1,4,-1
EndSplineSet
EndChar

StartChar: plusminus
Encoding: 177 177 299
Width: 64
Flags: MW
HStem: 0 16<8 56> 48 16<8 24 40 56>
VStem: 24 16<32 48 64 80>
LayerCount: 2
Fore
SplineSet
8 16 m 29,0,-1
 56 16 l 1,1,-1
 56 0 l 1,2,-1
 8 0 l 1,3,-1
 8 16 l 29,0,-1
24 80 m 25,4,-1
 40 80 l 1,5,-1
 40 64 l 1,6,-1
 56 64 l 1,7,-1
 56 48 l 1,8,-1
 40 48 l 1,9,-1
 40 32 l 1,10,-1
 24 32 l 1,11,-1
 24 48 l 1,12,-1
 8 48 l 1,13,-1
 8 64 l 1,14,-1
 24 64 l 1,15,-1
 24 80 l 25,4,-1
EndSplineSet
EndChar

StartChar: uni00B2
Encoding: 178 178 300
Width: 64
Flags: W
HStem: 40 8<24 40> 56 8<24 32> 72 8<16 32>
VStem: 16 8<48 56> 32 8<64 72>
CounterMasks: 1 e0
LayerCount: 2
Fore
SplineSet
16 80 m 5,0,-1
 40 80 l 1,1,-1
 40 56 l 1,2,-1
 24 56 l 1,3,-1
 24 48 l 1,4,-1
 40 48 l 1,5,-1
 40 40 l 1,6,-1
 16 40 l 1,7,-1
 16 64 l 1,8,-1
 32 64 l 1,9,-1
 32 72 l 1,10,-1
 16 72 l 1,11,-1
 16 80 l 5,0,-1
EndSplineSet
EndChar

StartChar: uni00B3
Encoding: 179 179 301
Width: 64
Flags: MW
HStem: 40 8<16 32> 56 8<16 32> 72 8<16 32>
VStem: 32 8<48 56 64 72>
CounterMasks: 1 e0
LayerCount: 2
Fore
SplineSet
16 80 m 1,0,-1
 40 80 l 1,1,-1
 40 40 l 1,2,-1
 16 40 l 1,3,-1
 16 48 l 1,4,-1
 32 48 l 1,5,-1
 32 56 l 1,6,-1
 16 56 l 1,7,-1
 16 64 l 1,8,-1
 32 64 l 1,9,-1
 32 72 l 1,10,-1
 16 72 l 1,11,-1
 16 80 l 1,0,-1
EndSplineSet
EndChar

StartChar: acute
Encoding: 180 180 302
Width: 64
Flags: W
HStem: 64 16<24 32>
VStem: 16 24
LayerCount: 2
Fore
SplineSet
24 80 m 1,0,-1
 40 80 l 1,1,-1
 32 64 l 1,2,-1
 16 64 l 1,3,-1
 24 80 l 1,0,-1
EndSplineSet
EndChar

StartChar: mu
Encoding: 181 181 303
Width: 64
Flags: MW
HStem: 0 8<16 40>
VStem: 0 16<-16 0 8 56> 40 16<12 56>
LayerCount: 2
Fore
SplineSet
0 56 m 25,0,-1
 16 56 l 1,1,-1
 16 8 l 1,2,-1
 40 8 l 1,3,-1
 40 56 l 1,4,-1
 56 56 l 1,5,-1
 56 12 l 1,6,-1
 44 0 l 1,7,-1
 16 0 l 1,8,-1
 16 -16 l 1,9,-1
 0 -16 l 1,10,-1
 0 56 l 25,0,-1
EndSplineSet
EndChar

StartChar: paragraph
Encoding: 182 182 304
Width: 64
Flags: MW
HStem: 72 8<32 40>
VStem: 16 16<0 36> 40 16<0 72>
LayerCount: 2
Fore
SplineSet
20 80 m 1,0,-1
 56 80 l 1,1,-1
 56 0 l 1,2,-1
 40 0 l 1,3,-1
 40 72 l 1,4,-1
 32 72 l 1,5,-1
 32 0 l 1,6,-1
 16 0 l 1,7,-1
 16 36 l 1,8,-1
 0 52 l 1,9,-1
 0 60 l 1,10,-1
 20 80 l 1,0,-1
EndSplineSet
EndChar

StartChar: periodcentered
Encoding: 183 183 305
Width: 64
Flags: W
HStem: 32 16<24 40>
VStem: 24 16<32 48>
LayerCount: 2
Fore
SplineSet
24 48 m 1,0,-1
 40 48 l 1,1,-1
 40 32 l 1,2,-1
 24 32 l 1,3,-1
 24 48 l 1,0,-1
EndSplineSet
EndChar

StartChar: cedilla
Encoding: 184 184 306
Width: 64
Flags: W
HStem: -24 24
VStem: 24 16
LayerCount: 2
Fore
SplineSet
24 0 m 25,0,-1
 32 0 l 1,1,-1
 40 -12 l 1,2,-1
 32 -24 l 1,3,-1
 24 -24 l 1,4,-1
 32 -12 l 1,5,-1
 24 0 l 25,0,-1
EndSplineSet
EndChar

StartChar: uni00B9
Encoding: 185 185 307
Width: 64
Flags: MW
HStem: 40 8<16 24 32 40> 64 8<16 24>
VStem: 24 8<48 64 72 80>
LayerCount: 2
Fore
SplineSet
24 80 m 1,0,-1
 32 80 l 1,1,-1
 32 48 l 1,2,-1
 40 48 l 1,3,-1
 40 40 l 1,4,-1
 16 40 l 1,5,-1
 16 48 l 1,6,-1
 24 48 l 1,7,-1
 24 64 l 1,8,-1
 16 64 l 1,9,-1
 16 72 l 1,10,-1
 24 72 l 1,11,-1
 24 80 l 1,0,-1
EndSplineSet
EndChar

StartChar: ordmasculine
Encoding: 186 186 308
Width: 64
Flags: W
HStem: 40 8<24 32> 72 8<24 32>
VStem: 16 8<48 72> 32 8<48 72>
LayerCount: 2
Fore
SplineSet
32 72 m 1,0,-1
 24 72 l 1,1,-1
 24 48 l 1,2,-1
 32 48 l 1,3,-1
 32 72 l 1,0,-1
16 72 m 1,4,-1
 24 80 l 1,5,-1
 32 80 l 1,6,-1
 40 72 l 1,7,-1
 40 48 l 1,8,-1
 32 40 l 1,9,-1
 24 40 l 1,10,-1
 16 48 l 1,11,-1
 16 72 l 1,4,-1
EndSplineSet
EndChar

StartChar: guillemotright
Encoding: 187 187 309
Width: 64
Flags: W
HStem: 0 84G<16 16 40 40>
LayerCount: 2
Fore
SplineSet
16 0 m 5,0,-1
 0 0 l 1,1,-1
 16 20 l 1,2,-1
 0 40 l 1,3,-1
 16 40 l 1,4,-1
 32 20 l 1,5,-1
 16 0 l 5,0,-1
40 0 m 5,6,-1
 24 0 l 1,7,-1
 40 20 l 1,8,-1
 24 40 l 1,9,-1
 40 40 l 1,10,-1
 56 20 l 1,11,-1
 40 0 l 5,6,-1
EndSplineSet
EndChar

StartChar: onequarter
Encoding: 188 188 310
Width: 64
Flags: MW
HStem: 8 8<40 48> 48 8<0 8 16 24> 72 8<0 8>
VStem: 8 8<56 72 80 88> 32 8<16 32> 48 8<-8 8 16 32>
LayerCount: 2
Back
Fore
SplineSet
48 72 m 1,0,-1
 56 72 l 1,1,-1
 8 8 l 1,2,-1
 0 8 l 1,3,-1
 48 72 l 1,0,-1
32 32 m 29,4,-1
 40 32 l 1,5,-1
 40 16 l 1,6,-1
 48 16 l 1,7,-1
 48 32 l 1,8,-1
 56 32 l 1,9,-1
 56 -8 l 1,10,-1
 48 -8 l 1,11,-1
 48 8 l 1,12,-1
 32 8 l 1,13,-1
 32 32 l 29,4,-1
0 80 m 25,14,-1
 8 80 l 1,15,-1
 8 88 l 1,16,-1
 16 88 l 1,17,-1
 16 56 l 1,18,-1
 24 56 l 1,19,-1
 24 48 l 1,20,-1
 0 48 l 1,21,-1
 0 56 l 1,22,-1
 8 56 l 1,23,-1
 8 72 l 1,24,-1
 0 72 l 1,25,-1
 0 80 l 25,14,-1
EndSplineSet
EndChar

StartChar: onehalf
Encoding: 189 189 311
Width: 64
Flags: MW
HStem: -8 8<40 56> 8 8<40 48> 24 8<32 48> 48 8<0 8 16 24> 72 8<0 8>
VStem: 8 8<56 72 80 88> 32 8<0 8> 48 8<16 24>
LayerCount: 2
Fore
SplineSet
32 32 m 1,0,-1
 56 32 l 1,1,-1
 56 8 l 1,2,-1
 40 8 l 1,3,-1
 40 0 l 1,4,-1
 56 0 l 1,5,-1
 56 -8 l 1,6,-1
 32 -8 l 1,7,-1
 32 16 l 1,8,-1
 48 16 l 1,9,-1
 48 24 l 1,10,-1
 32 24 l 1,11,-1
 32 32 l 1,0,-1
48 72 m 1,12,-1
 56 72 l 1,13,-1
 8 8 l 1,14,-1
 0 8 l 1,15,-1
 48 72 l 1,12,-1
0 80 m 25,16,-1
 8 80 l 1,17,-1
 8 88 l 1,18,-1
 16 88 l 1,19,-1
 16 56 l 1,20,-1
 24 56 l 1,21,-1
 24 48 l 1,22,-1
 0 48 l 1,23,-1
 0 56 l 1,24,-1
 8 56 l 1,25,-1
 8 72 l 1,26,-1
 0 72 l 1,27,-1
 0 80 l 25,16,-1
EndSplineSet
EndChar

StartChar: threequarters
Encoding: 190 190 312
Width: 64
Flags: MW
HStem: 8 8<40 48> 48 8<0 16> 64 8<0 16> 80 8<0 16>
VStem: 16 8<56 64 72 80> 32 8<16 32> 48 8<-8 8 16 32>
LayerCount: 2
Fore
SplineSet
48 72 m 1,0,-1
 56 72 l 1,1,-1
 8 8 l 1,2,-1
 0 8 l 1,3,-1
 48 72 l 1,0,-1
32 32 m 29,4,-1
 40 32 l 1,5,-1
 40 16 l 1,6,-1
 48 16 l 1,7,-1
 48 32 l 1,8,-1
 56 32 l 1,9,-1
 56 -8 l 1,10,-1
 48 -8 l 1,11,-1
 48 8 l 1,12,-1
 32 8 l 1,13,-1
 32 32 l 29,4,-1
0 72 m 1,14,-1
 16 72 l 1,15,-1
 16 80 l 1,16,-1
 0 80 l 1,17,-1
 0 88 l 1,18,-1
 24 88 l 1,19,-1
 24 48 l 1,20,-1
 0 48 l 1,21,-1
 0 56 l 1,22,-1
 16 56 l 1,23,-1
 16 64 l 1,24,-1
 0 64 l 1,25,-1
 0 72 l 1,14,-1
EndSplineSet
EndChar

StartChar: questiondown
Encoding: 191 191 313
Width: 64
Flags: W
HStem: -16 8<16 32> 48 16<16 32>
VStem: 0 16<-4 16> 16 16<48 64> 32 16<-4 8>
LayerCount: 2
Fore
SplineSet
48 8 m 5,0,-1
 48 -4 l 1,1,-1
 36 -16 l 1,2,-1
 12 -16 l 1,3,-1
 0 -4 l 1,4,-1
 0 16 l 1,5,-1
 16 32 l 1,6,-1
 32 32 l 1,7,-1
 16 16 l 1,8,-1
 16 -8 l 1,9,-1
 32 -8 l 1,10,-1
 32 8 l 1,11,-1
 48 8 l 5,0,-1
32 48 m 29,12,-1
 16 48 l 1,13,-1
 16 64 l 1,14,-1
 32 64 l 1,15,-1
 32 48 l 29,12,-1
EndSplineSet
EndChar

StartChar: AE
Encoding: 198 198 314
Width: 64
Flags: W
HStem: 0 8<40 56> 24 8<16 24> 40 8<40 56> 72 8<16 24 40 56>
VStem: 0 16<0 24 32 68> 24 16<8 24 32 40 48 72>
AnchorPoint: "bottom" 28 0 basechar 0
AnchorPoint: "top" 28 80 basechar 0
LayerCount: 2
Fore
SplineSet
24 72 m 25,0,-1
 16 72 l 1,1,-1
 16 32 l 1,2,-1
 24 32 l 1,3,-1
 24 72 l 25,0,-1
12 80 m 1,4,-1
 56 80 l 1,5,-1
 56 72 l 1,6,-1
 40 72 l 1,7,-1
 40 48 l 1,8,-1
 56 48 l 1,9,-1
 56 40 l 1,10,-1
 40 40 l 1,11,-1
 40 8 l 1,12,-1
 56 8 l 1,13,-1
 56 0 l 1,14,-1
 24 0 l 1,15,-1
 24 24 l 1,16,-1
 16 24 l 1,17,-1
 16 0 l 1,18,-1
 0 0 l 1,19,-1
 0 68 l 1,20,-1
 12 80 l 1,4,-1
EndSplineSet
EndChar

StartChar: ae
Encoding: 230 230 315
Width: 64
Flags: MW
HStem: 0 8<16 24 40 56> 16 8<40 48> 32 8<16 24> 48 8<8 24>
VStem: 0 16<12 28> 24 16<8 16 24 32> 48 8<24 40>
AnchorPoint: "bottom" 28 0 basechar 0
AnchorPoint: "top" 28 56 basechar 0
LayerCount: 2
Fore
SplineSet
24 32 m 1,0,-1
 16 32 l 1,1,-1
 16 8 l 1,2,-1
 24 8 l 1,3,-1
 24 32 l 1,0,-1
48 40 m 1,4,-1
 40 40 l 1,5,-1
 40 24 l 1,6,-1
 48 24 l 1,7,-1
 48 40 l 1,4,-1
8 56 m 1,8,-1
 44 56 l 1,9,-1
 56 44 l 1,10,-1
 56 16 l 1,11,-1
 40 16 l 1,12,-1
 40 8 l 1,13,-1
 56 8 l 1,14,-1
 56 0 l 1,15,-1
 12 0 l 1,16,-1
 0 12 l 1,17,-1
 0 28 l 1,18,-1
 12 40 l 1,19,-1
 24 40 l 1,20,-1
 24 48 l 1,21,-1
 8 48 l 1,22,-1
 8 56 l 1,8,-1
EndSplineSet
EndChar

StartChar: Eth
Encoding: 208 208 316
Width: 64
Flags: W
HStem: 0 8<24 28> 32 16<0 8 24 32> 72 8<24 28>
VStem: 8 16<8 32 48 72> 40 16<24 56>
CounterMasks: 1 e0
AnchorPoint: "top" 28 80 basechar 0
AnchorPoint: "bottom" 28 0 basechar 0
LayerCount: 2
Fore
SplineSet
28 72 m 5,0,-1
 24 72 l 1,1,-1
 24 48 l 1,2,-1
 32 48 l 1,3,-1
 32 32 l 1,4,-1
 24 32 l 1,5,-1
 24 8 l 1,6,-1
 28 8 l 1,7,-1
 40 24 l 1,8,-1
 40 56 l 1,9,-1
 28 72 l 5,0,-1
8 80 m 5,10,-1
 40 80 l 1,11,-1
 56 56 l 1,12,-1
 56 24 l 1,13,-1
 40 0 l 1,14,-1
 8 0 l 1,15,-1
 8 32 l 1,16,-1
 0 32 l 1,17,-1
 0 48 l 1,18,-1
 8 48 l 1,19,-1
 8 80 l 5,10,-1
EndSplineSet
EndChar

StartChar: eth
Encoding: 240 240 317
Width: 64
Flags: MW
HStem: 0 8<16 32> 48 8<16 32> 64 8<24 32 48 56>
VStem: 0 16<12 44> 32 16<8 48 56 64 72 80>
LayerCount: 2
Fore
SplineSet
32 80 m 5,0,-1
 48 80 l 1,1,-1
 48 72 l 1,2,-1
 56 72 l 1,3,-1
 56 64 l 1,4,-1
 48 64 l 1,5,-1
 48 0 l 1,6,-1
 12 0 l 1,7,-1
 0 12 l 1,8,-1
 0 44 l 1,9,-1
 12 56 l 1,10,-1
 32 56 l 1,11,-1
 32 64 l 1,12,-1
 24 64 l 1,13,-1
 24 72 l 1,14,-1
 32 72 l 1,15,-1
 32 80 l 5,0,-1
32 48 m 5,16,-1
 16 48 l 1,17,-1
 16 8 l 1,18,-1
 32 8 l 1,19,-1
 32 48 l 5,16,-1
EndSplineSet
EndChar

StartChar: multiply
Encoding: 215 215 318
Width: 64
Flags: MW
LayerCount: 2
Fore
SplineSet
8 56 m 1,0,-1
 8 64 l 1,1,-1
 16 64 l 1,2,-1
 32 48 l 1,3,-1
 48 64 l 1,4,-1
 56 64 l 1,5,-1
 56 56 l 1,6,-1
 40 40 l 1,7,-1
 56 24 l 1,8,-1
 56 16 l 1,9,-1
 48 16 l 1,10,-1
 32 32 l 1,11,-1
 16 16 l 1,12,-1
 8 16 l 1,13,-1
 8 24 l 1,14,-1
 24 40 l 1,15,-1
 8 56 l 1,0,-1
EndSplineSet
EndChar

StartChar: divide
Encoding: 247 247 319
Width: 64
Flags: W
HStem: 16 8<24 40> 32 16<8 56> 56 8<24 40>
VStem: 24 16<16 24 56 64>
CounterMasks: 1 e0
LayerCount: 2
Fore
SplineSet
40 56 m 5,0,-1
 24 56 l 1,1,-1
 24 64 l 1,2,-1
 40 64 l 1,3,-1
 40 56 l 5,0,-1
40 24 m 5,4,-1
 40 16 l 1,5,-1
 24 16 l 1,6,-1
 24 24 l 1,7,-1
 40 24 l 5,4,-1
56 32 m 5,8,-1
 8 32 l 1,9,-1
 8 48 l 1,10,-1
 56 48 l 1,11,-1
 56 32 l 5,8,-1
EndSplineSet
EndChar

StartChar: Oslash
Encoding: 216 216 320
Width: 64
Flags: MW
HStem: 0 8<16 40> 72 8<16 40>
VStem: 0 16<24 68> 40 16<12 56>
AnchorPoint: "top" 28 80 basechar 0
AnchorPoint: "bottom" 28 0 basechar 0
LayerCount: 2
Fore
SplineSet
48 88 m 5,0,-1
 56 88 l 1,1,-1
 56 80 l 1,2,-1
 56 68 l 1,3,-1
 56 12 l 1,4,-1
 44 0 l 1,5,-1
 8 0 l 1,6,-1
 8 -8 l 1,7,-1
 0 -8 l 1,8,-1
 0 4 l 1,9,-1
 0 12 l 1,10,-1
 0 68 l 1,11,-1
 12 80 l 1,12,-1
 48 80 l 1,13,-1
 48 88 l 5,0,-1
16 24 m 5,14,-1
 40 72 l 1,15,-1
 16 72 l 1,16,-1
 16 24 l 5,14,-1
16 8 m 5,17,-1
 40 8 l 1,18,-1
 40 56 l 1,19,-1
 16 8 l 5,17,-1
EndSplineSet
EndChar

StartChar: oslash
Encoding: 248 248 321
Width: 64
Flags: MW
HStem: 0 8<16 40> 48 8<16 40>
VStem: 0 16<20 44> 40 16<12 36>
AnchorPoint: "top" 28 56 basechar 0
AnchorPoint: "bottom" 28 0 basechar 0
LayerCount: 2
Fore
SplineSet
48 64 m 5,0,-1
 56 64 l 1,1,-1
 56 12 l 1,2,-1
 44 0 l 1,3,-1
 8 0 l 1,4,-1
 8 -8 l 1,5,-1
 0 -8 l 1,6,-1
 0 44 l 1,7,-1
 12 56 l 1,8,-1
 48 56 l 1,9,-1
 48 64 l 5,0,-1
40 48 m 5,10,-1
 16 48 l 1,11,-1
 16 20 l 1,12,-1
 40 48 l 5,10,-1
16 8 m 5,13,-1
 40 8 l 1,14,-1
 40 36 l 1,15,-1
 16 8 l 5,13,-1
EndSplineSet
EndChar

StartChar: Thorn
Encoding: 222 222 322
Width: 64
Flags: MW
HStem: 24 8<16 40> 48 8<16 40>
VStem: 0 16<0 24 32 48 56 80> 40 16<36 44>
LayerCount: 2
Fore
SplineSet
40 48 m 5,0,-1
 16 48 l 1,1,-1
 16 32 l 1,2,-1
 40 32 l 1,3,-1
 40 48 l 5,0,-1
0 80 m 29,4,-1
 16 80 l 1,5,-1
 16 56 l 1,6,-1
 44 56 l 1,7,-1
 56 44 l 1,8,-1
 56 36 l 1,9,-1
 44 24 l 1,10,-1
 16 24 l 1,11,-1
 16 0 l 1,12,-1
 0 0 l 1,13,-1
 0 80 l 29,4,-1
EndSplineSet
EndChar

StartChar: thorn
Encoding: 254 254 323
Width: 64
Flags: W
HStem: 0 80G<0 16> 8 8<16 40> 48 8<16 40>
VStem: 0 16<-16 8 16 48 56 80> 40 16<20 44>
LayerCount: 2
Fore
SplineSet
40 48 m 1,0,-1
 16 48 l 1,1,-1
 16 16 l 1,2,-1
 40 16 l 1,3,-1
 40 48 l 1,0,-1
0 80 m 25,4,-1
 16 80 l 1,5,-1
 16 56 l 1,6,-1
 44 56 l 1,7,-1
 56 44 l 1,8,-1
 56 20 l 1,9,-1
 44 8 l 1,10,-1
 16 8 l 1,11,-1
 16 -16 l 1,12,-1
 0 -16 l 1,13,-1
 0 80 l 25,4,-1
EndSplineSet
EndChar

StartChar: germandbls
Encoding: 223 223 324
Width: 64
Flags: MW
HStem: 72 8<16 40>
VStem: 0 16<0 72> 40 16<16 32>
LayerCount: 2
Fore
SplineSet
0 0 m 1,0,-1
 0 80 l 1,1,-1
 44 80 l 1,2,-1
 56 68 l 1,3,-1
 44 56 l 1,4,-1
 44 48 l 1,5,-1
 56 36 l 1,6,-1
 56 12 l 1,7,-1
 44 0 l 1,8,-1
 24 0 l 1,9,-1
 40 16 l 1,10,-1
 40 32 l 1,11,-1
 24 48 l 1,12,-1
 24 56 l 1,13,-1
 40 72 l 1,14,-1
 16 72 l 1,15,-1
 16 0 l 1,16,-1
 0 0 l 1,0,-1
EndSplineSet
EndChar

StartChar: Dcroat
Encoding: 272 272 329
Width: 64
Flags: W
HStem: 0 8<24 28> 32 16<0 8 24 32> 72 8<24 28>
VStem: 8 16<8 32 48 72> 40 16<24 56>
CounterMasks: 1 e0
AnchorPoint: "bottom" 28 0 basechar 0
AnchorPoint: "top" 28 80 basechar 0
LayerCount: 2
Fore
SplineSet
28 72 m 5,0,-1
 24 72 l 1,1,-1
 24 48 l 1,2,-1
 32 48 l 1,3,-1
 32 32 l 1,4,-1
 24 32 l 1,5,-1
 24 8 l 1,6,-1
 28 8 l 1,7,-1
 40 24 l 1,8,-1
 40 56 l 1,9,-1
 28 72 l 5,0,-1
8 80 m 5,10,-1
 40 80 l 1,11,-1
 56 56 l 1,12,-1
 56 24 l 1,13,-1
 40 0 l 1,14,-1
 8 0 l 1,15,-1
 8 32 l 1,16,-1
 0 32 l 1,17,-1
 0 48 l 1,18,-1
 8 48 l 1,19,-1
 8 80 l 5,10,-1
EndSplineSet
EndChar

StartChar: dcroat
Encoding: 273 273 330
Width: 64
Flags: MW
HStem: 0 8<16 32> 48 8<16 32> 64 8<24 32 48 56>
VStem: 0 16<12 44> 32 16<8 48 56 64 72 80>
LayerCount: 2
Fore
SplineSet
32 80 m 1,0,-1
 48 80 l 1,1,-1
 48 72 l 1,2,-1
 56 72 l 1,3,-1
 56 64 l 1,4,-1
 48 64 l 1,5,-1
 48 0 l 1,6,-1
 12 0 l 1,7,-1
 0 12 l 1,8,-1
 0 44 l 1,9,-1
 12 56 l 1,10,-1
 32 56 l 1,11,-1
 32 64 l 1,12,-1
 24 64 l 1,13,-1
 24 72 l 1,14,-1
 32 72 l 1,15,-1
 32 80 l 1,0,-1
32 48 m 1,16,-1
 16 48 l 1,17,-1
 16 8 l 1,18,-1
 32 8 l 1,19,-1
 32 48 l 1,16,-1
EndSplineSet
EndChar

StartChar: uni030B
Encoding: 779 779 331
Width: 64
Flags: W
HStem: 88 16<16 24 40 48>
AnchorPoint: "topmark" 32 80 mark 0
AnchorPoint: "topmark" 32 104 basemark 0
AnchorPoint: "top" 32 80 mark 0
LayerCount: 2
Fore
SplineSet
40 104 m 5,0,-1
 56 104 l 1,1,-1
 48 88 l 1,2,-1
 32 88 l 1,3,-1
 40 104 l 5,0,-1
16 104 m 5,4,-1
 32 104 l 1,5,-1
 24 88 l 1,6,-1
 8 88 l 1,7,-1
 16 104 l 5,4,-1
EndSplineSet
EndChar

StartChar: ogonek
Encoding: 731 731 332
Width: 64
Flags: W
HStem: -24 24
VStem: 16 16
AnchorPoint: "bottom" 28 0 mark 0
LayerCount: 2
Fore
SplineSet
24 0 m 5,0,-1
 32 0 l 1,1,-1
 24 -12 l 1,2,-1
 32 -24 l 1,3,-1
 24 -24 l 1,4,-1
 16 -12 l 1,5,-1
 24 0 l 5,0,-1
EndSplineSet
EndChar

StartChar: hungarumlaut
Encoding: 733 733 333
Width: 64
Flags: W
HStem: 88 16<16 24 40 48>
LayerCount: 2
Fore
SplineSet
40 104 m 5,0,-1
 56 104 l 1,1,-1
 48 88 l 1,2,-1
 32 88 l 1,3,-1
 40 104 l 5,0,-1
16 104 m 5,4,-1
 32 104 l 1,5,-1
 24 88 l 1,6,-1
 8 88 l 1,7,-1
 16 104 l 5,4,-1
EndSplineSet
EndChar

StartChar: uni02C9
Encoding: 713 713 334
Width: 64
Flags: W
HStem: 88 16<8 56>
LayerCount: 2
Fore
SplineSet
8 104 m 5,0,-1
 56 104 l 1,1,-1
 56 88 l 1,2,-1
 8 88 l 1,3,-1
 8 104 l 5,0,-1
EndSplineSet
EndChar

StartChar: caron
Encoding: 711 711 335
Width: 64
Flags: W
HStem: 88 16
LayerCount: 2
Fore
SplineSet
56 104 m 5,0,-1
 32 88 l 1,1,-1
 8 104 l 1,2,-1
 20 104 l 1,3,-1
 32 96 l 1,4,-1
 44 104 l 1,5,-1
 56 104 l 5,0,-1
EndSplineSet
EndChar

StartChar: circumflex
Encoding: 710 710 336
Width: 64
Flags: W
HStem: 88 16
LayerCount: 2
Fore
SplineSet
8 88 m 5,0,-1
 32 104 l 1,1,-1
 56 88 l 1,2,-1
 44 88 l 1,3,-1
 32 96 l 1,4,-1
 20 88 l 1,5,-1
 8 88 l 5,0,-1
EndSplineSet
EndChar

StartChar: dcaron
Encoding: 271 271 341
Width: 64
Flags: MW
HStem: 0 8<16 24> 48 8<16 24>
VStem: 0 16<12 44> 24 16<8 48 56 80> 48 8<56 80>
LayerCount: 2
Fore
SplineSet
48 80 m 5,0,-1
 56 80 l 1,1,-1
 56 56 l 1,2,-1
 48 56 l 1,3,-1
 48 80 l 5,0,-1
24 48 m 25,4,-1
 16 48 l 1,5,-1
 16 8 l 1,6,-1
 24 8 l 1,7,-1
 24 48 l 25,4,-1
24 80 m 25,8,-1
 40 80 l 1,9,-1
 40 0 l 1,10,-1
 12 0 l 1,11,-1
 0 12 l 1,12,-1
 0 44 l 1,13,-1
 12 56 l 1,14,-1
 24 56 l 1,15,-1
 24 80 l 25,8,-1
EndSplineSet
EndChar

StartChar: Hbar
Encoding: 294 294 344
Width: 64
Flags: MW
HStem: 40 8<16 40> 56 8<16 40>
VStem: 0 16<0 40 48 56 64 80> 40 16<0 40 48 56 64 80>
AnchorPoint: "bottom" 28 0 basechar 0
AnchorPoint: "top" 28 80 basechar 0
LayerCount: 2
Fore
SplineSet
0 80 m 1,0,-1
 16 80 l 1,1,-1
 16 64 l 1,2,-1
 40 64 l 1,3,-1
 40 80 l 1,4,-1
 56 80 l 1,5,-1
 56 0 l 1,6,-1
 40 0 l 1,7,-1
 40 40 l 1,8,-1
 16 40 l 1,9,-1
 16 0 l 1,10,-1
 0 0 l 1,11,-1
 0 80 l 1,0,-1
16 56 m 1,12,-1
 16 48 l 1,13,-1
 40 48 l 1,14,-1
 40 56 l 1,15,-1
 16 56 l 1,12,-1
EndSplineSet
EndChar

StartChar: hbar
Encoding: 295 295 345
Width: 64
Flags: MW
HStem: 48 8<24 40> 64 8<0 8 24 32>
VStem: 8 16<0 48 56 64 72 80> 40 16<0 44>
LayerCount: 2
Fore
SplineSet
8 80 m 5,0,-1
 24 80 l 1,1,-1
 24 72 l 1,2,-1
 32 72 l 1,3,-1
 32 64 l 1,4,-1
 24 64 l 1,5,-1
 24 56 l 1,6,-1
 44 56 l 1,7,-1
 56 44 l 1,8,-1
 56 0 l 1,9,-1
 40 0 l 1,10,-1
 40 48 l 1,11,-1
 24 48 l 1,12,-1
 24 0 l 1,13,-1
 8 0 l 1,14,-1
 8 64 l 1,15,-1
 0 64 l 1,16,-1
 0 72 l 1,17,-1
 8 72 l 1,18,-1
 8 80 l 5,0,-1
EndSplineSet
EndChar

StartChar: IJ
Encoding: 306 306 346
Width: 64
Flags: MW
HStem: 0 8<40 48>
VStem: 0 16<0 80> 24 16<12 24> 48 16<12 80>
CounterMasks: 1 70
LayerCount: 2
Fore
SplineSet
48 80 m 1,0,-1
 64 80 l 1,1,-1
 64 12 l 1,2,-1
 52 0 l 1,3,-1
 36 0 l 1,4,-1
 24 12 l 1,5,-1
 24 24 l 1,6,-1
 40 24 l 1,7,-1
 40 8 l 1,8,-1
 48 8 l 1,9,-1
 48 80 l 1,0,-1
0 80 m 1,10,-1
 16 80 l 1,11,-1
 16 0 l 1,12,-1
 0 0 l 1,13,-1
 0 80 l 1,10,-1
EndSplineSet
EndChar

StartChar: ij
Encoding: 307 307 347
Width: 64
Flags: MW
HStem: -16 8<40 48> 40 8<40 48> 64 16<0 16 48 64>
VStem: 0 16<0 48 64 80> 48 16<-4 40 64 80>
LayerCount: 2
Fore
SplineSet
40 48 m 5,0,-1
 64 48 l 1,1,-1
 64 -4 l 1,2,-1
 52 -16 l 1,3,-1
 36 -16 l 1,4,-1
 24 -4 l 1,5,-1
 24 0 l 1,6,-1
 40 0 l 1,7,-1
 40 -8 l 1,8,-1
 48 -8 l 1,9,-1
 48 40 l 1,10,-1
 40 40 l 1,11,-1
 40 48 l 5,0,-1
48 80 m 29,12,-1
 64 80 l 1,13,-1
 64 64 l 1,14,-1
 48 64 l 1,15,-1
 48 80 l 29,12,-1
0 64 m 29,16,-1
 0 80 l 1,17,-1
 16 80 l 1,18,-1
 16 64 l 1,19,-1
 0 64 l 29,16,-1
0 0 m 5,20,-1
 0 48 l 1,21,-1
 16 48 l 1,22,-1
 16 0 l 1,23,-1
 0 0 l 5,20,-1
EndSplineSet
EndChar

StartChar: kgreenlandic
Encoding: 312 312 350
Width: 64
Flags: MW
VStem: 0 16<0 20 36 56>
LayerCount: 2
Fore
SplineSet
0 56 m 25,0,-1
 16 56 l 1,1,-1
 16 36 l 1,2,-1
 40 56 l 1,3,-1
 56 56 l 1,4,-1
 24 28 l 1,5,-1
 56 0 l 1,6,-1
 40 0 l 1,7,-1
 16 20 l 1,8,-1
 16 0 l 1,9,-1
 0 0 l 1,10,-1
 0 56 l 25,0,-1
EndSplineSet
EndChar

StartChar: lslash
Encoding: 322 322 357
Width: 64
Flags: MW
VStem: 24 16<12 24 32 40 48 80>
AnchorPoint: "top" 32 80 basechar 0
AnchorPoint: "bottom" 32 0 basechar 0
LayerCount: 2
Fore
SplineSet
24 80 m 1,0,-1
 40 80 l 1,1,-1
 40 48 l 1,2,-1
 48 56 l 1,3,-1
 56 56 l 1,4,-1
 40 40 l 1,5,-1
 40 12 l 1,6,-1
 52 0 l 1,7,-1
 36 0 l 1,8,-1
 24 12 l 1,9,-1
 24 24 l 1,10,-1
 16 16 l 1,11,-1
 8 16 l 1,12,-1
 24 32 l 1,13,-1
 24 80 l 1,0,-1
EndSplineSet
EndChar

StartChar: Lslash
Encoding: 321 321 358
Width: 64
Flags: MW
HStem: 0 8<24 56>
VStem: 8 16<8 24 32 40 48 80>
AnchorPoint: "bottom" 32 0 basechar 0
AnchorPoint: "top" 16 80 basechar 0
LayerCount: 2
Fore
SplineSet
8 80 m 1,0,-1
 24 80 l 1,1,-1
 24 48 l 1,2,-1
 32 56 l 1,3,-1
 40 56 l 1,4,-1
 24 40 l 1,5,-1
 24 8 l 1,6,-1
 56 8 l 1,7,-1
 56 0 l 1,8,-1
 8 0 l 1,9,-1
 8 24 l 1,10,-1
 0 24 l 1,11,-1
 8 32 l 1,12,-1
 8 80 l 1,0,-1
EndSplineSet
EndChar

StartChar: eng
Encoding: 331 331 362
Width: 64
Flags: MW
HStem: 48 8<16 40>
VStem: 0 16<0 48> 40 16<0 44>
AnchorPoint: "bottom" 28 -16 basechar 0
AnchorPoint: "top" 28 56 basechar 0
LayerCount: 2
Fore
SplineSet
0 0 m 1,0,-1
 0 56 l 1,1,-1
 44 56 l 1,2,-1
 56 44 l 1,3,-1
 56 0 l 1,4,-1
 40 -16 l 1,5,-1
 24 -16 l 1,6,-1
 40 0 l 1,7,-1
 40 48 l 1,8,-1
 16 48 l 1,9,-1
 16 0 l 1,10,-1
 0 0 l 1,0,-1
EndSplineSet
EndChar

StartChar: Eng
Encoding: 330 330 363
Width: 64
Flags: MW
HStem: 72 8<16 40>
VStem: 0 16<0 72> 40 16<0 68>
AnchorPoint: "bottom" 28 -16 basechar 0
AnchorPoint: "top" 28 80 basechar 0
LayerCount: 2
Fore
SplineSet
0 0 m 1,0,-1
 0 80 l 1,1,-1
 44 80 l 1,2,-1
 56 68 l 1,3,-1
 56 0 l 1,4,-1
 40 -16 l 1,5,-1
 24 -16 l 1,6,-1
 40 0 l 1,7,-1
 40 72 l 1,8,-1
 16 72 l 1,9,-1
 16 0 l 1,10,-1
 0 0 l 1,0,-1
EndSplineSet
EndChar

StartChar: OE
Encoding: 338 338 364
Width: 64
Flags: W
HStem: 0 8<16 24 40 56> 40 8<40 56> 72 8<16 24 40 56>
VStem: 0 16<12 68> 24 16<8 40 48 72>
AnchorPoint: "bottom" 28 0 basechar 0
AnchorPoint: "top" 28 80 basechar 0
LayerCount: 2
Fore
SplineSet
24 72 m 1,0,-1
 16 72 l 1,1,-1
 16 8 l 1,2,-1
 24 8 l 1,3,-1
 24 72 l 1,0,-1
12 80 m 1,4,-1
 56 80 l 1,5,-1
 56 72 l 1,6,-1
 40 72 l 1,7,-1
 40 48 l 1,8,-1
 56 48 l 1,9,-1
 56 40 l 1,10,-1
 40 40 l 1,11,-1
 40 8 l 1,12,-1
 56 8 l 1,13,-1
 56 0 l 1,14,-1
 12 0 l 1,15,-1
 0 12 l 1,16,-1
 0 68 l 1,17,-1
 12 80 l 1,4,-1
EndSplineSet
EndChar

StartChar: oe
Encoding: 339 339 365
Width: 64
Flags: MW
HStem: 0 8<16 24 40 56> 16 8<40 48> 48 8<16 24>
VStem: 0 16<12 44> 24 16<8 16 24 40> 48 8<24 40>
AnchorPoint: "bottom" 28 0 basechar 0
AnchorPoint: "top" 28 56 basechar 0
LayerCount: 2
Fore
SplineSet
24 48 m 1,0,-1
 16 48 l 1,1,-1
 16 8 l 1,2,-1
 24 8 l 1,3,-1
 24 48 l 1,0,-1
48 40 m 1,4,-1
 40 40 l 1,5,-1
 40 24 l 1,6,-1
 48 24 l 1,7,-1
 48 40 l 1,4,-1
12 56 m 1,8,-1
 44 56 l 1,9,-1
 56 44 l 1,10,-1
 56 16 l 1,11,-1
 40 16 l 1,12,-1
 40 8 l 1,13,-1
 56 8 l 1,14,-1
 56 0 l 1,15,-1
 12 0 l 1,16,-1
 0 12 l 1,17,-1
 0 44 l 1,18,-1
 12 56 l 1,8,-1
EndSplineSet
EndChar

StartChar: Tbar
Encoding: 358 358 369
Width: 64
Flags: MW
HStem: 48 8<8 16 32 40> 72 8<0 16 32 48>
VStem: 16 16<0 48 56 72>
AnchorPoint: "top" 24 80 basechar 0
AnchorPoint: "bottom" 24 0 basechar 0
LayerCount: 2
Fore
SplineSet
0 80 m 1,0,-1
 48 80 l 1,1,-1
 48 72 l 1,2,-1
 32 72 l 1,3,-1
 32 56 l 1,4,-1
 40 56 l 1,5,-1
 40 48 l 1,6,-1
 32 48 l 1,7,-1
 32 0 l 1,8,-1
 16 0 l 1,9,-1
 16 48 l 1,10,-1
 8 48 l 1,11,-1
 8 56 l 1,12,-1
 16 56 l 1,13,-1
 16 72 l 1,14,-1
 0 72 l 1,15,-1
 0 80 l 1,0,-1
EndSplineSet
EndChar

StartChar: tbar
Encoding: 359 359 370
Width: 64
Flags: MW
HStem: 0 8<32 48> 32 8<8 16 32 40> 48 8<0 16 32 48>
VStem: 16 16<12 32 40 48 56 80>
AnchorPoint: "top" 24 80 basechar 0
AnchorPoint: "bottom" 32 0 basechar 0
LayerCount: 2
Fore
SplineSet
16 80 m 1,0,-1
 32 80 l 1,1,-1
 32 56 l 1,2,-1
 48 56 l 1,3,-1
 48 48 l 1,4,-1
 32 48 l 1,5,-1
 32 40 l 1,6,-1
 40 40 l 1,7,-1
 40 32 l 1,8,-1
 32 32 l 1,9,-1
 32 8 l 1,10,-1
 48 8 l 1,11,-1
 48 0 l 1,12,-1
 28 0 l 1,13,-1
 16 12 l 1,14,-1
 16 32 l 1,15,-1
 8 32 l 1,16,-1
 8 40 l 1,17,-1
 16 40 l 1,18,-1
 16 48 l 1,19,-1
 0 48 l 1,20,-1
 0 56 l 1,21,-1
 16 56 l 1,22,-1
 16 80 l 1,0,-1
EndSplineSet
EndChar

StartChar: longs
Encoding: 383 383 371
Width: 64
Flags: MW
VStem: 16 16<0 64>
LayerCount: 2
Fore
SplineSet
32 80 m 1,0,-1
 48 80 l 1,1,-1
 32 64 l 1,2,-1
 32 0 l 1,3,-1
 16 0 l 1,4,-1
 16 64 l 1,5,-1
 32 80 l 1,0,-1
EndSplineSet
EndChar

StartChar: florin
Encoding: 402 402 372
Width: 64
Flags: MW
HStem: -16 8<0 16> 48 8<0 16 32 48> 72 8<32 48>
VStem: 16 16<-4 48 56 68>
LayerCount: 2
Fore
SplineSet
0 -8 m 1,0,-1
 16 -8 l 1,1,-1
 16 48 l 1,2,-1
 0 48 l 1,3,-1
 0 56 l 1,4,-1
 16 56 l 1,5,-1
 16 68 l 1,6,-1
 28 80 l 1,7,-1
 48 80 l 1,8,-1
 48 72 l 1,9,-1
 32 72 l 1,10,-1
 32 56 l 1,11,-1
 48 56 l 1,12,-1
 48 48 l 1,13,-1
 32 48 l 1,14,-1
 32 -4 l 1,15,-1
 20 -16 l 1,16,-1
 0 -16 l 1,17,-1
 0 -8 l 1,0,-1
EndSplineSet
EndChar

StartChar: Aringacute
Encoding: 506 506 374
Width: 64
Flags: MW
HStem: 8 8<16 40> 40 16<24 32> 60 8<24 32> 72 8<24 32> 84 16<28 36>
VStem: 0 16<0 8 16 24> 40 16<0 8 16 24>
AnchorPoint: "top" 28 56 basechar 0
AnchorPoint: "bottom" 48 0 basechar 0
LayerCount: 2
Fore
SplineSet
32 40 m 1,0,-1
 24 40 l 1,1,-1
 16 24 l 1,2,-1
 16 16 l 1,3,-1
 40 16 l 1,4,-1
 40 24 l 1,5,-1
 32 40 l 1,0,-1
16 56 m 1,6,-1
 40 56 l 1,7,-1
 56 24 l 1,8,-1
 56 0 l 1,9,-1
 40 0 l 1,10,-1
 40 8 l 1,11,-1
 16 8 l 1,12,-1
 16 0 l 1,13,-1
 0 0 l 1,14,-1
 0 24 l 1,15,-1
 16 56 l 1,6,-1
EndSplineSet
Refer: 104 769 N 1 0 0 1 -4 -4 2
Refer: 247 778 N 1 0 0 1 -4 -24 2
EndChar

StartChar: dieresistonos
Encoding: 901 901 376
Width: 64
Flags: W
HStem: 64 16<0 16 24 32 40 56>
VStem: 0 16<64 80> 40 16<64 80>
LayerCount: 2
Fore
SplineSet
40 80 m 25,0,-1
 56 80 l 1,1,-1
 56 64 l 1,2,-1
 40 64 l 1,3,-1
 40 80 l 25,0,-1
20 64 m 1,4,-1
 24 80 l 1,5,-1
 36 80 l 1,6,-1
 32 64 l 1,7,-1
 20 64 l 1,4,-1
0 80 m 25,8,-1
 16 80 l 1,9,-1
 16 64 l 1,10,-1
 0 64 l 1,11,-1
 0 80 l 25,8,-1
EndSplineSet
EndChar

StartChar: uni03A9
Encoding: 937 937 384
Width: 64
Flags: MW
HStem: 0 8<0 8 48 56> 64 16<24 32>
VStem: 0 16<32 56> 40 16<32 56>
LayerCount: 2
Fore
SplineSet
0 8 m 1,0,-1
 8 8 l 1,1,-1
 8 16 l 1,2,-1
 0 28 l 1,3,-1
 0 68 l 1,4,-1
 12 80 l 1,5,-1
 44 80 l 1,6,-1
 56 68 l 1,7,-1
 56 28 l 1,8,-1
 48 16 l 1,9,-1
 48 8 l 1,10,-1
 56 8 l 1,11,-1
 56 0 l 1,12,-1
 32 0 l 1,13,-1
 32 20 l 1,14,-1
 40 32 l 1,15,-1
 40 56 l 1,16,-1
 32 64 l 1,17,-1
 24 64 l 1,18,-1
 16 56 l 1,19,-1
 16 32 l 1,20,-1
 24 20 l 1,21,-1
 24 0 l 1,22,-1
 0 0 l 1,23,-1
 0 8 l 1,0,-1
EndSplineSet
EndChar

StartChar: iota
Encoding: 953 953 386
Width: 64
Flags: MW
VStem: 24 16<12 56>
AnchorPoint: "top" 32 56 basechar 0
AnchorPoint: "bottom" 32 0 basechar 0
LayerCount: 2
Fore
SplineSet
24 56 m 5,0,-1
 40 56 l 1,1,-1
 40 12 l 1,2,-1
 52 0 l 1,3,-1
 36 0 l 1,4,-1
 24 12 l 1,5,-1
 24 56 l 5,0,-1
EndSplineSet
EndChar

StartChar: Gamma
Encoding: 915 915 388
Width: 64
Flags: MW
HStem: 72 8<16 56>
VStem: 0 16<0 72>
LayerCount: 2
Fore
SplineSet
0 80 m 25,0,-1
 56 80 l 1,1,-1
 56 72 l 1,2,-1
 16 72 l 1,3,-1
 16 0 l 1,4,-1
 0 0 l 1,5,-1
 0 80 l 25,0,-1
EndSplineSet
EndChar

StartChar: uni0394
Encoding: 916 916 389
Width: 64
Flags: MW
HStem: 0 8<16 40>
LayerCount: 2
Fore
SplineSet
28 52 m 5,0,-1
 16 8 l 1,1,-1
 40 8 l 1,2,-1
 28 52 l 5,0,-1
0 0 m 29,3,-1
 24 80 l 1,4,-1
 32 80 l 1,5,-1
 56 0 l 1,6,-1
 0 0 l 29,3,-1
EndSplineSet
EndChar

StartChar: Lambda
Encoding: 923 923 390
Width: 64
Flags: MW
LayerCount: 2
Fore
SplineSet
0 0 m 1,0,-1
 24 80 l 1,1,-1
 32 80 l 1,2,-1
 56 0 l 1,3,-1
 40 0 l 1,4,-1
 40 8 l 1,5,-1
 28 52 l 1,6,-1
 16 8 l 1,7,-1
 16 0 l 1,8,-1
 0 0 l 1,0,-1
EndSplineSet
EndChar

StartChar: Theta
Encoding: 920 920 396
Width: 64
Flags: W
HStem: 0 8<16 40> 40 8<24 32> 72 8<16 40>
VStem: 0 16<12 68> 24 8<40 48> 40 16<12 68>
CounterMasks: 1 1c
AnchorPoint: "top" 28 80 basechar 0
AnchorPoint: "bottom" 28 0 basechar 0
LayerCount: 2
Fore
SplineSet
24 48 m 5,0,-1
 32 48 l 1,1,-1
 32 40 l 1,2,-1
 24 40 l 1,3,-1
 24 48 l 5,0,-1
40 72 m 29,4,-1
 16 72 l 1,5,-1
 16 8 l 1,6,-1
 40 8 l 1,7,-1
 40 72 l 29,4,-1
12 80 m 5,8,-1
 44 80 l 1,9,-1
 56 68 l 1,10,-1
 56 12 l 1,11,-1
 44 0 l 1,12,-1
 12 0 l 1,13,-1
 0 12 l 1,14,-1
 0 68 l 1,15,-1
 12 80 l 5,8,-1
EndSplineSet
EndChar

StartChar: Xi
Encoding: 926 926 401
Width: 64
Flags: W
HStem: 0 8<0 56> 40 8<8 48> 72 8<0 56>
LayerCount: 2
Fore
SplineSet
0 8 m 1,0,-1
 56 8 l 1,1,-1
 56 0 l 1,2,-1
 0 0 l 1,3,-1
 0 8 l 1,0,-1
8 48 m 1,4,-1
 48 48 l 1,5,-1
 48 40 l 1,6,-1
 8 40 l 1,7,-1
 8 48 l 1,4,-1
0 80 m 1,8,-1
 56 80 l 1,9,-1
 56 72 l 1,10,-1
 0 72 l 1,11,-1
 0 80 l 1,8,-1
EndSplineSet
EndChar

StartChar: Pi
Encoding: 928 928 403
Width: 64
Flags: MW
HStem: 72 8<16 40>
VStem: 0 16<0 72> 40 16<0 72>
LayerCount: 2
Fore
SplineSet
0 80 m 25,0,-1
 56 80 l 1,1,-1
 56 0 l 1,2,-1
 40 0 l 1,3,-1
 40 72 l 1,4,-1
 16 72 l 1,5,-1
 16 0 l 1,6,-1
 0 0 l 1,7,-1
 0 80 l 25,0,-1
EndSplineSet
EndChar

StartChar: Sigma
Encoding: 931 931 405
Width: 64
Flags: W
HStem: 0 8<16 56> 72 8<16 56>
LayerCount: 2
Fore
SplineSet
0 80 m 1,0,-1
 56 80 l 1,1,-1
 56 72 l 1,2,-1
 16 72 l 1,3,-1
 40 44 l 1,4,-1
 40 36 l 1,5,-1
 16 8 l 1,6,-1
 56 8 l 1,7,-1
 56 0 l 1,8,-1
 0 0 l 1,9,-1
 0 12 l 1,10,-1
 24 40 l 1,11,-1
 0 68 l 1,12,-1
 0 80 l 1,0,-1
EndSplineSet
EndChar

StartChar: Phi
Encoding: 934 934 408
Width: 64
Flags: MW
HStem: 8 8<16 24 32 40> 64 8<16 24 32 40>
VStem: 0 16<20 60> 24 8<0 8 16 64 72 80> 40 16<20 60>
CounterMasks: 1 38
LayerCount: 2
Fore
SplineSet
40 64 m 5,0,-1
 32 64 l 1,1,-1
 32 16 l 1,2,-1
 40 16 l 1,3,-1
 40 64 l 5,0,-1
24 64 m 25,4,-1
 16 64 l 1,5,-1
 16 16 l 1,6,-1
 24 16 l 1,7,-1
 24 64 l 25,4,-1
0 60 m 1,8,-1
 12 72 l 1,9,-1
 24 72 l 1,10,-1
 24 80 l 1,11,-1
 32 80 l 1,12,-1
 32 72 l 1,13,-1
 44 72 l 1,14,-1
 56 60 l 1,15,-1
 56 20 l 1,16,-1
 44 8 l 1,17,-1
 32 8 l 1,18,-1
 32 0 l 1,19,-1
 24 0 l 1,20,-1
 24 8 l 1,21,-1
 12 8 l 1,22,-1
 0 20 l 1,23,-1
 0 60 l 1,8,-1
EndSplineSet
EndChar

StartChar: Psi
Encoding: 936 936 410
Width: 64
Flags: MW
HStem: 16 8<16 24 32 40>
VStem: 0 16<28 80> 24 8<0 16 24 80> 40 16<28 80>
LayerCount: 2
Fore
SplineSet
0 80 m 29,0,-1
 16 80 l 1,1,-1
 16 24 l 1,2,-1
 24 24 l 1,3,-1
 24 80 l 1,4,-1
 32 80 l 1,5,-1
 32 24 l 1,6,-1
 40 24 l 1,7,-1
 40 80 l 1,8,-1
 56 80 l 1,9,-1
 56 28 l 1,10,-1
 44 16 l 1,11,-1
 32 16 l 1,12,-1
 32 0 l 1,13,-1
 24 0 l 1,14,-1
 24 16 l 1,15,-1
 12 16 l 1,16,-1
 0 28 l 1,17,-1
 0 80 l 29,0,-1
EndSplineSet
EndChar

StartChar: alpha
Encoding: 945 945 413
Width: 64
Flags: W
HStem: 0 8<16 24 48 56> 48 8<16 24 48 56>
VStem: 0 16<12 44> 24 16<20 36>
LayerCount: 2
Fore
SplineSet
24 48 m 1,0,-1
 16 48 l 1,1,-1
 16 8 l 1,2,-1
 24 8 l 1,3,-1
 24 48 l 1,0,-1
12 56 m 1,4,-1
 32 56 l 1,5,-1
 36 48 l 1,6,-1
 40 56 l 1,7,-1
 56 56 l 1,8,-1
 56 48 l 1,9,-1
 48 48 l 1,10,-1
 40 36 l 1,11,-1
 40 20 l 1,12,-1
 48 8 l 1,13,-1
 56 8 l 1,14,-1
 56 0 l 1,15,-1
 40 0 l 1,16,-1
 36 8 l 1,17,-1
 32 0 l 1,18,-1
 12 0 l 1,19,-1
 0 12 l 1,20,-1
 0 44 l 1,21,-1
 12 56 l 1,4,-1
EndSplineSet
EndChar

StartChar: epsilon
Encoding: 949 949 414
Width: 64
Flags: W
HStem: 0 8<16 56> 24 8<16 48> 48 8<16 56>
VStem: 0 16<12 20 36 44>
CounterMasks: 1 e0
LayerCount: 2
Fore
SplineSet
12 56 m 5,0,-1
 56 56 l 1,1,-1
 56 48 l 1,2,-1
 16 48 l 1,3,-1
 16 32 l 1,4,-1
 48 32 l 1,5,-1
 48 24 l 1,6,-1
 16 24 l 1,7,-1
 16 8 l 1,8,-1
 56 8 l 1,9,-1
 56 0 l 1,10,-1
 12 0 l 1,11,-1
 0 12 l 1,12,-1
 0 20 l 1,13,-1
 8 28 l 1,14,-1
 0 36 l 1,15,-1
 0 44 l 1,16,-1
 12 56 l 5,0,-1
EndSplineSet
EndChar

StartChar: eta
Encoding: 951 951 417
Width: 64
Flags: MW
HStem: 48 8<16 40>
VStem: 0 16<0 48> 40 16<-16 44>
LayerCount: 2
Fore
SplineSet
0 0 m 1,0,-1
 0 56 l 1,1,-1
 44 56 l 1,2,-1
 56 44 l 1,3,-1
 56 -16 l 1,4,-1
 40 -16 l 1,5,-1
 40 48 l 1,6,-1
 16 48 l 1,7,-1
 16 0 l 1,8,-1
 0 0 l 1,0,-1
EndSplineSet
EndChar

StartChar: theta
Encoding: 952 952 425
Width: 64
Flags: W
HStem: 0 8<16 40> 40 8<16 40> 72 8<16 40>
VStem: 0 16<12 40 48 68> 40 16<12 40 48 68>
AnchorPoint: "bottom" 28 0 basechar 0
AnchorPoint: "top" 28 80 basechar 0
LayerCount: 2
Fore
SplineSet
12 80 m 1,0,-1
 44 80 l 1,1,-1
 56 68 l 1,2,-1
 56 12 l 1,3,-1
 44 0 l 1,4,-1
 12 0 l 1,5,-1
 0 12 l 1,6,-1
 0 68 l 1,7,-1
 12 80 l 1,0,-1
40 72 m 1,8,-1
 16 72 l 1,9,-1
 16 48 l 1,10,-1
 40 48 l 1,11,-1
 40 72 l 1,8,-1
16 40 m 1,12,-1
 16 8 l 1,13,-1
 40 8 l 1,14,-1
 40 40 l 1,15,-1
 16 40 l 1,12,-1
EndSplineSet
EndChar

StartChar: beta
Encoding: 946 946 426
Width: 64
Flags: MW
HStem: 72 8<16 40>
VStem: 0 16<-16 72> 40 16<16 32>
LayerCount: 2
Fore
SplineSet
0 -16 m 5,0,-1
 0 80 l 1,1,-1
 44 80 l 1,2,-1
 56 68 l 1,3,-1
 44 56 l 1,4,-1
 44 48 l 1,5,-1
 56 36 l 1,6,-1
 56 12 l 1,7,-1
 44 0 l 1,8,-1
 24 0 l 1,9,-1
 40 16 l 1,10,-1
 40 32 l 1,11,-1
 24 48 l 1,12,-1
 24 56 l 1,13,-1
 40 72 l 1,14,-1
 16 72 l 1,15,-1
 16 -16 l 1,16,-1
 0 -16 l 5,0,-1
EndSplineSet
EndChar

StartChar: sigma
Encoding: 963 963 427
Width: 64
Flags: W
HStem: 0 8<16 32> 48 8<16 32 48 56>
VStem: 0 16<12 44> 32 16<12 48>
LayerCount: 2
Fore
SplineSet
32 48 m 1,0,-1
 16 48 l 1,1,-1
 16 8 l 1,2,-1
 32 8 l 1,3,-1
 32 48 l 1,0,-1
0 44 m 1,4,-1
 12 56 l 1,5,-1
 56 56 l 1,6,-1
 56 48 l 1,7,-1
 48 48 l 1,8,-1
 48 12 l 1,9,-1
 36 0 l 1,10,-1
 12 0 l 1,11,-1
 0 12 l 1,12,-1
 0 44 l 1,4,-1
EndSplineSet
EndChar

StartChar: tau
Encoding: 964 964 428
Width: 64
Flags: W
HStem: 0 8<32 48> 48 8<0 16 32 48>
VStem: 16 16<12 48>
LayerCount: 2
Fore
SplineSet
0 56 m 5,0,-1
 48 56 l 1,1,-1
 48 48 l 1,2,-1
 32 48 l 1,3,-1
 32 8 l 1,4,-1
 48 8 l 1,5,-1
 48 0 l 1,6,-1
 28 0 l 1,7,-1
 16 12 l 1,8,-1
 16 48 l 1,9,-1
 0 48 l 1,10,-1
 0 56 l 5,0,-1
EndSplineSet
EndChar

StartChar: gamma
Encoding: 947 947 434
Width: 64
Flags: MW
VStem: 20 16<-16 8>
LayerCount: 2
Fore
SplineSet
0 56 m 1,0,-1
 16 56 l 1,1,-1
 28 24 l 1,2,-1
 40 56 l 1,3,-1
 56 56 l 1,4,-1
 36 8 l 1,5,-1
 36 -16 l 1,6,-1
 20 -16 l 1,7,-1
 20 8 l 1,8,-1
 0 56 l 1,0,-1
EndSplineSet
EndChar

StartChar: lambda
Encoding: 955 955 435
Width: 64
Flags: MW
LayerCount: 2
Fore
SplineSet
0 80 m 5,0,-1
 16 80 l 1,1,-1
 56 0 l 1,2,-1
 40 0 l 1,3,-1
 28 24 l 1,4,-1
 16 0 l 1,5,-1
 0 0 l 1,6,-1
 20 40 l 1,7,-1
 0 80 l 5,0,-1
EndSplineSet
EndChar

StartChar: psi
Encoding: 968 968 436
Width: 64
Flags: MW
HStem: 0 8<16 24 32 40>
VStem: 0 16<12 56> 24 8<-16 0 8 64> 40 16<12 56>
LayerCount: 2
Fore
SplineSet
0 56 m 25,0,-1
 16 56 l 1,1,-1
 16 8 l 1,2,-1
 24 8 l 1,3,-1
 24 64 l 1,4,-1
 32 64 l 1,5,-1
 32 8 l 1,6,-1
 40 8 l 1,7,-1
 40 56 l 1,8,-1
 56 56 l 1,9,-1
 56 12 l 1,10,-1
 44 0 l 1,11,-1
 32 0 l 1,12,-1
 32 -16 l 1,13,-1
 24 -16 l 1,14,-1
 24 0 l 1,15,-1
 12 0 l 1,16,-1
 0 12 l 1,17,-1
 0 56 l 25,0,-1
EndSplineSet
EndChar

StartChar: phi
Encoding: 966 966 437
Width: 64
Flags: MW
HStem: 0 8<16 24 32 40> 48 8<32 40>
VStem: 0 16<12 56> 24 8<-8 0 8 48> 40 16<12 44>
LayerCount: 2
Fore
SplineSet
40 48 m 5,0,-1
 32 48 l 1,1,-1
 32 8 l 1,2,-1
 40 8 l 1,3,-1
 40 48 l 5,0,-1
0 56 m 1,4,-1
 16 56 l 1,5,-1
 16 8 l 1,6,-1
 24 8 l 1,7,-1
 24 56 l 1,8,-1
 44 56 l 1,9,-1
 56 44 l 1,10,-1
 56 12 l 1,11,-1
 44 0 l 1,12,-1
 32 0 l 1,13,-1
 32 -8 l 1,14,-1
 24 -8 l 1,15,-1
 24 0 l 1,16,-1
 12 0 l 1,17,-1
 0 12 l 1,18,-1
 0 56 l 1,4,-1
EndSplineSet
EndChar

StartChar: chi
Encoding: 967 967 438
Width: 64
Flags: MW
LayerCount: 2
Fore
SplineSet
0 56 m 1,0,-1
 16 56 l 1,1,-1
 28 36 l 1,2,-1
 40 56 l 1,3,-1
 56 56 l 1,4,-1
 36 20 l 1,5,-1
 56 -16 l 1,6,-1
 40 -16 l 1,7,-1
 28 4 l 1,8,-1
 16 -16 l 1,9,-1
 0 -16 l 1,10,-1
 20 20 l 1,11,-1
 0 56 l 1,0,-1
EndSplineSet
EndChar

StartChar: rho
Encoding: 961 961 439
Width: 64
Flags: MW
HStem: 0 8<16 40> 48 8<16 40>
VStem: 0 16<-16 0 8 44> 40 16<12 44>
LayerCount: 2
Fore
SplineSet
40 48 m 1,0,-1
 16 48 l 1,1,-1
 16 8 l 1,2,-1
 40 8 l 1,3,-1
 40 48 l 1,0,-1
0 -16 m 1,4,-1
 0 44 l 1,5,-1
 12 56 l 1,6,-1
 44 56 l 1,7,-1
 56 44 l 1,8,-1
 56 12 l 1,9,-1
 44 0 l 1,10,-1
 16 0 l 1,11,-1
 16 -16 l 1,12,-1
 0 -16 l 1,4,-1
EndSplineSet
EndChar

StartChar: pi
Encoding: 960 960 440
Width: 64
Flags: MW
HStem: 48 8<0 8 24 32 48 56>
VStem: 8 16<0 48> 32 16<0 48>
LayerCount: 2
Fore
SplineSet
0 56 m 25,0,-1
 56 56 l 1,1,-1
 56 48 l 1,2,-1
 48 48 l 1,3,-1
 48 0 l 1,4,-1
 32 0 l 1,5,-1
 32 48 l 1,6,-1
 24 48 l 1,7,-1
 24 0 l 1,8,-1
 8 0 l 1,9,-1
 8 48 l 1,10,-1
 0 48 l 1,11,-1
 0 56 l 25,0,-1
EndSplineSet
EndChar

StartChar: omega
Encoding: 969 969 441
Width: 64
Flags: MW
HStem: 0 8<16 20 36 40>
VStem: 0 16<12 44> 24 8<8 32> 40 16<12 44>
CounterMasks: 1 70
LayerCount: 2
Fore
SplineSet
0 44 m 1,0,-1
 12 56 l 1,1,-1
 16 56 l 1,2,-1
 16 8 l 1,3,-1
 24 8 l 1,4,-1
 24 32 l 1,5,-1
 32 32 l 1,6,-1
 32 8 l 1,7,-1
 40 8 l 1,8,-1
 40 56 l 1,9,-1
 44 56 l 1,10,-1
 56 44 l 1,11,-1
 56 12 l 1,12,-1
 44 0 l 1,13,-1
 36 0 l 1,14,-1
 28 4 l 1,15,-1
 20 0 l 1,16,-1
 12 0 l 1,17,-1
 0 12 l 1,18,-1
 0 44 l 1,0,-1
EndSplineSet
EndChar

StartChar: delta
Encoding: 948 948 442
Width: 64
Flags: MW
HStem: 0 8<16 40> 48 8<16 40>
VStem: 0 16<12 44> 24 16<72 80> 40 16<8 48>
LayerCount: 2
Fore
SplineSet
40 48 m 29,0,-1
 16 48 l 1,1,-1
 16 8 l 1,2,-1
 40 8 l 1,3,-1
 40 48 l 29,0,-1
24 80 m 13,4,-1
 40 80 l 1,5,-1
 40 72 l 1,6,-1
 56 56 l 1,7,-1
 56 0 l 1,8,-1
 12 0 l 1,9,-1
 0 12 l 1,10,-1
 0 44 l 1,11,-1
 12 56 l 1,12,-1
 40 56 l 1,13,-1
 24 72 l 1,14,-1
 24 80 l 13,4,-1
EndSplineSet
EndChar

StartChar: sigma1
Encoding: 962 962 443
Width: 64
Flags: MW
HStem: 0 8<16 40> 48 8<16 40>
VStem: 0 16<12 44> 40 16<-16 0 40 44>
AnchorPoint: "top" 28 56 basechar 0
AnchorPoint: "bottom" 28 0 basechar 0
LayerCount: 2
Fore
SplineSet
12 56 m 1,0,-1
 44 56 l 1,1,-1
 56 44 l 1,2,-1
 56 40 l 1,3,-1
 40 40 l 1,4,-1
 40 48 l 1,5,-1
 16 48 l 1,6,-1
 16 8 l 1,7,-1
 56 8 l 1,8,-1
 56 -16 l 1,9,-1
 40 -16 l 1,10,-1
 40 0 l 1,11,-1
 12 0 l 1,12,-1
 0 12 l 1,13,-1
 0 44 l 1,14,-1
 12 56 l 1,0,-1
EndSplineSet
EndChar

StartChar: zeta
Encoding: 950 950 444
Width: 64
Flags: MW
HStem: 0 8<16 40> 72 8<0 40>
VStem: 0 16<8 24> 40 16<-16 0>
AnchorPoint: "top" 28 80 basechar 0
AnchorPoint: "bottom" 28 0 basechar 0
LayerCount: 2
Fore
SplineSet
0 80 m 5,0,-1
 56 80 l 1,1,-1
 56 72 l 1,2,-1
 16 24 l 1,3,-1
 16 8 l 1,4,-1
 56 8 l 1,5,-1
 56 -16 l 1,6,-1
 40 -16 l 1,7,-1
 40 0 l 1,8,-1
 0 0 l 1,9,-1
 0 24 l 1,10,-1
 40 72 l 1,11,-1
 0 72 l 1,12,-1
 0 80 l 5,0,-1
EndSplineSet
EndChar

StartChar: xi
Encoding: 958 958 445
Width: 64
Flags: MW
HStem: 0 8<16 40> 40 8<16 48> 72 8<16 56>
VStem: 0 16<12 36 52 68> 40 16<-16 0>
LayerCount: 2
Fore
SplineSet
12 80 m 1,0,-1
 56 80 l 1,1,-1
 56 72 l 1,2,-1
 16 72 l 1,3,-1
 16 48 l 1,4,-1
 48 48 l 1,5,-1
 48 40 l 1,6,-1
 16 40 l 1,7,-1
 16 8 l 1,8,-1
 56 8 l 1,9,-1
 56 -16 l 1,10,-1
 40 -16 l 1,11,-1
 40 0 l 1,12,-1
 12 0 l 1,13,-1
 0 12 l 1,14,-1
 0 36 l 1,15,-1
 8 44 l 1,16,-1
 0 52 l 1,17,-1
 0 68 l 1,18,-1
 12 80 l 1,0,-1
EndSplineSet
EndChar

StartChar: uni045F
Encoding: 1119 1119 449
Width: 64
Flags: MW
HStem: 0 8<16 24 32 40>
VStem: 0 16<8 56> 24 8<-16 0> 40 16<8 56>
CounterMasks: 1 70
LayerCount: 2
Fore
SplineSet
0 56 m 1,0,-1
 16 56 l 1,1,-1
 16 8 l 1,2,-1
 40 8 l 1,3,-1
 40 56 l 1,4,-1
 56 56 l 1,5,-1
 56 0 l 1,6,-1
 32 0 l 1,7,-1
 32 -16 l 1,8,-1
 24 -16 l 1,9,-1
 24 0 l 1,10,-1
 0 0 l 1,11,-1
 0 56 l 1,0,-1
EndSplineSet
EndChar

StartChar: uni043F
Encoding: 1087 1087 477
Width: 64
Flags: MW
HStem: 48 8<16 40>
VStem: 0 16<0 48> 40 16<0 48>
LayerCount: 2
Fore
SplineSet
0 0 m 1,0,-1
 0 56 l 1,1,-1
 56 56 l 1,2,-1
 56 0 l 1,3,-1
 40 0 l 1,4,-1
 40 48 l 1,5,-1
 16 48 l 1,6,-1
 16 0 l 1,7,-1
 0 0 l 1,0,-1
EndSplineSet
EndChar

StartChar: uni043D
Encoding: 1085 1085 478
Width: 64
Flags: MW
HStem: 24 8<16 40>
VStem: 0 16<0 24 32 56> 40 16<0 24 32 56>
LayerCount: 2
Fore
SplineSet
0 56 m 1,0,-1
 16 56 l 1,1,-1
 16 32 l 1,2,-1
 40 32 l 1,3,-1
 40 56 l 1,4,-1
 56 56 l 1,5,-1
 56 0 l 1,6,-1
 40 0 l 1,7,-1
 40 24 l 1,8,-1
 16 24 l 1,9,-1
 16 0 l 1,10,-1
 0 0 l 1,11,-1
 0 56 l 1,0,-1
EndSplineSet
EndChar

StartChar: uni0442
Encoding: 1090 1090 479
Width: 64
Flags: MW
HStem: 48 8<0 16 32 48>
VStem: 16 16<0 48>
LayerCount: 2
Fore
SplineSet
0 56 m 25,0,-1
 48 56 l 1,1,-1
 48 48 l 1,2,-1
 32 48 l 1,3,-1
 32 0 l 1,4,-1
 16 0 l 1,5,-1
 16 48 l 1,6,-1
 0 48 l 1,7,-1
 0 56 l 25,0,-1
EndSplineSet
EndChar

StartChar: uni0433
Encoding: 1075 1075 486
Width: 64
Flags: MW
HStem: 48 8<16 56>
VStem: 0 16<0 48>
AnchorPoint: "bottom" 8 0 basechar 0
AnchorPoint: "top" 28 56 basechar 0
LayerCount: 2
Fore
SplineSet
0 0 m 1,0,-1
 0 56 l 1,1,-1
 56 56 l 1,2,-1
 56 48 l 1,3,-1
 16 48 l 1,4,-1
 16 0 l 1,5,-1
 0 0 l 1,0,-1
EndSplineSet
EndChar

StartChar: uni042F
Encoding: 1071 1071 487
Width: 64
Flags: MW
HStem: 40 8<16 24> 72 8<16 40>
VStem: 0 16<0 12 52 68> 40 16<0 40 48 72>
LayerCount: 2
Fore
SplineSet
16 72 m 1,0,-1
 16 48 l 1,1,-1
 40 48 l 1,2,-1
 40 72 l 1,3,-1
 16 72 l 1,0,-1
56 0 m 25,4,-1
 40 0 l 1,5,-1
 40 40 l 1,6,-1
 16 12 l 1,7,-1
 16 0 l 1,8,-1
 0 0 l 1,9,-1
 0 12 l 1,10,-1
 24 40 l 1,11,-1
 12 40 l 1,12,-1
 0 52 l 1,13,-1
 0 68 l 1,14,-1
 12 80 l 1,15,-1
 56 80 l 1,16,-1
 56 0 l 25,4,-1
EndSplineSet
EndChar

StartChar: uni044F
Encoding: 1103 1103 488
Width: 64
Flags: MW
HStem: 24 8<16 24> 48 8<16 40>
VStem: 0 16<36 44> 40 16<0 24 32 48>
LayerCount: 2
Fore
SplineSet
16 48 m 1,0,-1
 16 32 l 1,1,-1
 40 32 l 1,2,-1
 40 48 l 1,3,-1
 16 48 l 1,0,-1
56 0 m 25,4,-1
 40 0 l 1,5,-1
 40 24 l 1,6,-1
 16 0 l 1,7,-1
 0 0 l 1,8,-1
 24 24 l 1,9,-1
 12 24 l 1,10,-1
 0 36 l 1,11,-1
 0 44 l 1,12,-1
 12 56 l 1,13,-1
 56 56 l 1,14,-1
 56 0 l 25,4,-1
EndSplineSet
EndChar

StartChar: uni043C
Encoding: 1084 1084 489
Width: 64
Flags: MW
VStem: 0 16<0 32> 40 16<0 32>
LayerCount: 2
Fore
SplineSet
0 0 m 25,0,-1
 0 56 l 1,1,-1
 16 56 l 1,2,-1
 28 40 l 1,3,-1
 40 56 l 1,4,-1
 56 56 l 1,5,-1
 56 0 l 1,6,-1
 40 0 l 1,7,-1
 40 32 l 1,8,-1
 28 16 l 1,9,-1
 16 32 l 1,10,-1
 16 0 l 1,11,-1
 0 0 l 25,0,-1
EndSplineSet
EndChar

StartChar: uni0432
Encoding: 1074 1074 490
Width: 64
Flags: W
HStem: 0 8<16 40> 24 8<16 40> 48 8<16 40>
VStem: 0 16<8 24 32 48> 40 16<12 20 36 44>
CounterMasks: 1 e0
LayerCount: 2
Fore
SplineSet
40 24 m 1,0,-1
 16 24 l 1,1,-1
 16 8 l 1,2,-1
 40 8 l 1,3,-1
 40 24 l 1,0,-1
40 48 m 25,4,-1
 16 48 l 1,5,-1
 16 32 l 1,6,-1
 40 32 l 1,7,-1
 40 48 l 25,4,-1
0 56 m 1,8,-1
 44 56 l 1,9,-1
 56 44 l 1,10,-1
 56 36 l 1,11,-1
 48 28 l 1,12,-1
 56 20 l 1,13,-1
 56 12 l 1,14,-1
 44 0 l 1,15,-1
 0 0 l 1,16,-1
 0 56 l 1,8,-1
EndSplineSet
EndChar

StartChar: uni0428
Encoding: 1064 1064 491
Width: 64
Flags: MW
HStem: 0 8<16 24 32 40>
VStem: 0 16<8 80> 24 8<8 80> 40 16<8 80>
CounterMasks: 1 70
LayerCount: 2
Fore
SplineSet
0 80 m 29,0,-1
 16 80 l 1,1,-1
 16 8 l 1,2,-1
 24 8 l 1,3,-1
 24 80 l 1,4,-1
 32 80 l 1,5,-1
 32 8 l 1,6,-1
 40 8 l 1,7,-1
 40 80 l 1,8,-1
 56 80 l 1,9,-1
 56 0 l 1,10,-1
 0 0 l 1,11,-1
 0 80 l 29,0,-1
EndSplineSet
EndChar

StartChar: uni0448
Encoding: 1096 1096 492
Width: 64
Flags: MW
HStem: 0 8<16 24 32 40>
VStem: 0 16<8 56> 24 8<8 56> 40 16<8 56>
CounterMasks: 1 70
LayerCount: 2
Fore
SplineSet
0 56 m 29,0,-1
 16 56 l 1,1,-1
 16 8 l 1,2,-1
 24 8 l 1,3,-1
 24 56 l 1,4,-1
 32 56 l 1,5,-1
 32 8 l 1,6,-1
 40 8 l 1,7,-1
 40 56 l 1,8,-1
 56 56 l 1,9,-1
 56 0 l 1,10,-1
 0 0 l 1,11,-1
 0 56 l 29,0,-1
EndSplineSet
EndChar

StartChar: uni0429
Encoding: 1065 1065 493
Width: 64
Flags: MW
HStem: 0 8<16 24 32 40>
VStem: 0 16<8 80> 24 8<8 80> 40 8<8 80> 48 8<-16 0>
LayerCount: 2
Fore
SplineSet
0 80 m 25,0,-1
 16 80 l 1,1,-1
 16 8 l 1,2,-1
 24 8 l 1,3,-1
 24 80 l 1,4,-1
 32 80 l 1,5,-1
 32 8 l 1,6,-1
 40 8 l 1,7,-1
 40 80 l 1,8,-1
 48 80 l 1,9,-1
 48 8 l 1,10,-1
 56 8 l 1,11,-1
 56 -16 l 1,12,-1
 48 -16 l 1,13,-1
 48 0 l 1,14,-1
 0 0 l 1,15,-1
 0 80 l 25,0,-1
EndSplineSet
EndChar

StartChar: uni0449
Encoding: 1097 1097 494
Width: 64
Flags: MW
HStem: 0 8<16 24 32 40>
VStem: 0 16<8 56> 24 8<8 56> 40 8<8 56> 48 8<-16 0>
LayerCount: 2
Fore
SplineSet
0 56 m 25,0,-1
 16 56 l 1,1,-1
 16 8 l 1,2,-1
 24 8 l 1,3,-1
 24 56 l 1,4,-1
 32 56 l 1,5,-1
 32 8 l 1,6,-1
 40 8 l 1,7,-1
 40 56 l 1,8,-1
 48 56 l 1,9,-1
 48 8 l 1,10,-1
 56 8 l 1,11,-1
 56 -16 l 1,12,-1
 48 -16 l 1,13,-1
 48 0 l 1,14,-1
 0 0 l 1,15,-1
 0 56 l 25,0,-1
EndSplineSet
EndChar

StartChar: uni0416
Encoding: 1046 1046 495
Width: 64
Flags: MW
VStem: 24 8<0 32 48 80>
LayerCount: 2
Fore
SplineSet
0 80 m 5,0,-1
 16 80 l 1,1,-1
 24 48 l 1,2,-1
 24 80 l 1,3,-1
 32 80 l 1,4,-1
 32 48 l 1,5,-1
 40 80 l 1,6,-1
 56 80 l 1,7,-1
 44 40 l 1,8,-1
 56 0 l 1,9,-1
 40 0 l 1,10,-1
 32 32 l 1,11,-1
 32 0 l 1,12,-1
 24 0 l 1,13,-1
 24 32 l 1,14,-1
 16 0 l 1,15,-1
 0 0 l 1,16,-1
 12 40 l 1,17,-1
 0 80 l 5,0,-1
EndSplineSet
EndChar

StartChar: uni0436
Encoding: 1078 1078 496
Width: 64
Flags: MW
VStem: 24 8<0 20 36 56>
LayerCount: 2
Fore
SplineSet
0 56 m 1,0,-1
 16 56 l 1,1,-1
 24 36 l 1,2,-1
 24 56 l 1,3,-1
 32 56 l 1,4,-1
 32 36 l 1,5,-1
 40 56 l 1,6,-1
 56 56 l 1,7,-1
 44 28 l 1,8,-1
 56 0 l 1,9,-1
 40 0 l 1,10,-1
 32 20 l 1,11,-1
 32 0 l 1,12,-1
 24 0 l 1,13,-1
 24 20 l 1,14,-1
 16 0 l 1,15,-1
 0 0 l 1,16,-1
 12 28 l 1,17,-1
 0 56 l 1,0,-1
EndSplineSet
EndChar

StartChar: uni0426
Encoding: 1062 1062 497
Width: 64
Flags: MW
HStem: 0 8<16 32>
VStem: 0 16<8 80> 32 16<8 80> 48 8<-16 0>
LayerCount: 2
Fore
SplineSet
0 80 m 5,0,-1
 16 80 l 1,1,-1
 16 8 l 1,2,-1
 32 8 l 1,3,-1
 32 80 l 1,4,-1
 48 80 l 1,5,-1
 48 8 l 1,6,-1
 56 8 l 1,7,-1
 56 -16 l 1,8,-1
 48 -16 l 1,9,-1
 48 0 l 1,10,-1
 0 0 l 1,11,-1
 0 80 l 5,0,-1
EndSplineSet
EndChar

StartChar: uni0446
Encoding: 1094 1094 498
Width: 64
Flags: MW
HStem: 0 8<16 32>
VStem: 0 16<8 56> 32 16<8 56> 48 8<-16 0>
LayerCount: 2
Fore
SplineSet
0 56 m 5,0,-1
 16 56 l 1,1,-1
 16 8 l 1,2,-1
 32 8 l 1,3,-1
 32 56 l 1,4,-1
 48 56 l 1,5,-1
 48 8 l 1,6,-1
 56 8 l 1,7,-1
 56 -16 l 1,8,-1
 48 -16 l 1,9,-1
 48 0 l 1,10,-1
 0 0 l 1,11,-1
 0 56 l 5,0,-1
EndSplineSet
EndChar

StartChar: uni0427
Encoding: 1063 1063 499
Width: 64
Flags: MW
HStem: 32 8<16 40>
VStem: 0 16<44 80> 40 16<0 32 40 80>
LayerCount: 2
Fore
SplineSet
0 80 m 5,0,-1
 16 80 l 1,1,-1
 16 40 l 1,2,-1
 40 40 l 1,3,-1
 40 80 l 1,4,-1
 56 80 l 1,5,-1
 56 0 l 1,6,-1
 40 0 l 1,7,-1
 40 32 l 1,8,-1
 12 32 l 1,9,-1
 0 44 l 1,10,-1
 0 80 l 5,0,-1
EndSplineSet
EndChar

StartChar: uni0447
Encoding: 1095 1095 500
Width: 64
Flags: MW
HStem: 24 8<16 40>
VStem: 0 16<36 56> 40 16<0 24 32 56>
LayerCount: 2
Fore
SplineSet
0 56 m 1,0,-1
 16 56 l 1,1,-1
 16 32 l 1,2,-1
 40 32 l 1,3,-1
 40 56 l 1,4,-1
 56 56 l 1,5,-1
 56 0 l 1,6,-1
 40 0 l 1,7,-1
 40 24 l 1,8,-1
 12 24 l 1,9,-1
 0 36 l 1,10,-1
 0 56 l 1,0,-1
EndSplineSet
EndChar

StartChar: uni040F
Encoding: 1039 1039 501
Width: 64
Flags: MW
HStem: 0 8<16 24 32 40>
VStem: 0 16<8 80> 24 8<-16 0> 40 16<8 80>
CounterMasks: 1 70
LayerCount: 2
Fore
SplineSet
0 80 m 1,0,-1
 16 80 l 1,1,-1
 16 8 l 1,2,-1
 40 8 l 1,3,-1
 40 80 l 1,4,-1
 56 80 l 1,5,-1
 56 0 l 1,6,-1
 32 0 l 1,7,-1
 32 -16 l 1,8,-1
 24 -16 l 1,9,-1
 24 0 l 1,10,-1
 0 0 l 1,11,-1
 0 80 l 1,0,-1
EndSplineSet
EndChar

StartChar: uni0437
Encoding: 1079 1079 502
Width: 64
Flags: W
HStem: 0 8<0 40> 24 8<8 40> 48 8<0 40>
VStem: 40 16<12 20 36 44>
CounterMasks: 1 e0
LayerCount: 2
Fore
SplineSet
44 0 m 5,0,-1
 0 0 l 1,1,-1
 0 8 l 1,2,-1
 40 8 l 1,3,-1
 40 24 l 1,4,-1
 8 24 l 1,5,-1
 8 32 l 1,6,-1
 40 32 l 1,7,-1
 40 48 l 1,8,-1
 0 48 l 1,9,-1
 0 56 l 1,10,-1
 44 56 l 1,11,-1
 56 44 l 1,12,-1
 56 36 l 1,13,-1
 48 28 l 1,14,-1
 56 20 l 1,15,-1
 56 12 l 1,16,-1
 44 0 l 5,0,-1
EndSplineSet
EndChar

StartChar: uni0417
Encoding: 1047 1047 503
Width: 64
Flags: W
HStem: 0 8<0 40> 40 8<8 40> 72 8<0 40>
VStem: 40 16<12 36 52 68>
LayerCount: 2
Fore
SplineSet
44 0 m 5,0,-1
 0 0 l 1,1,-1
 0 8 l 1,2,-1
 40 8 l 1,3,-1
 40 40 l 1,4,-1
 8 40 l 1,5,-1
 8 48 l 1,6,-1
 40 48 l 1,7,-1
 40 72 l 1,8,-1
 0 72 l 1,9,-1
 0 80 l 1,10,-1
 44 80 l 1,11,-1
 56 68 l 1,12,-1
 56 52 l 1,13,-1
 48 44 l 1,14,-1
 56 36 l 1,15,-1
 56 12 l 1,16,-1
 44 0 l 5,0,-1
EndSplineSet
EndChar

StartChar: uni0411
Encoding: 1041 1041 504
Width: 64
Flags: W
HStem: 0 8<16 40> 48 8<16 40> 72 8<16 48>
VStem: 0 16<8 48 56 72> 40 16<12 44>
LayerCount: 2
Fore
SplineSet
40 48 m 5,0,-1
 16 48 l 1,1,-1
 16 8 l 1,2,-1
 40 8 l 1,3,-1
 40 48 l 5,0,-1
0 80 m 5,4,-1
 48 80 l 1,5,-1
 48 72 l 1,6,-1
 16 72 l 1,7,-1
 16 56 l 1,8,-1
 44 56 l 1,9,-1
 56 44 l 1,10,-1
 56 12 l 1,11,-1
 44 0 l 1,12,-1
 0 0 l 1,13,-1
 0 80 l 5,4,-1
EndSplineSet
EndChar

StartChar: uni042A
Encoding: 1066 1066 505
Width: 64
Flags: W
HStem: 0 8<24 40> 48 8<24 40> 72 8<0 8>
VStem: 8 16<8 48 56 72> 40 16<12 44>
LayerCount: 2
Fore
SplineSet
40 48 m 5,0,-1
 24 48 l 1,1,-1
 24 8 l 1,2,-1
 40 8 l 1,3,-1
 40 48 l 5,0,-1
8 72 m 5,4,-1
 0 72 l 1,5,-1
 0 80 l 1,6,-1
 24 80 l 1,7,-1
 24 56 l 1,8,-1
 44 56 l 1,9,-1
 56 44 l 1,10,-1
 56 12 l 1,11,-1
 44 0 l 1,12,-1
 8 0 l 1,13,-1
 8 72 l 5,4,-1
EndSplineSet
EndChar

StartChar: uni044A
Encoding: 1098 1098 506
Width: 64
Flags: W
HStem: 0 8<24 40> 24 8<24 40> 48 8<0 8>
VStem: 8 16<8 24 32 48> 40 16<12 20>
CounterMasks: 1 e0
LayerCount: 2
Fore
SplineSet
40 24 m 1,0,-1
 24 24 l 1,1,-1
 24 8 l 1,2,-1
 40 8 l 1,3,-1
 40 24 l 1,0,-1
8 48 m 1,4,-1
 0 48 l 1,5,-1
 0 56 l 1,6,-1
 24 56 l 1,7,-1
 24 32 l 1,8,-1
 44 32 l 1,9,-1
 56 20 l 1,10,-1
 56 12 l 1,11,-1
 44 0 l 1,12,-1
 8 0 l 1,13,-1
 8 48 l 1,4,-1
EndSplineSet
EndChar

StartChar: uni044C
Encoding: 1100 1100 508
Width: 64
Flags: MW
HStem: 0 8<16 40> 24 8<16 40>
VStem: 0 16<8 24 32 56> 40 16<12 20>
LayerCount: 2
Fore
SplineSet
40 24 m 5,0,-1
 16 24 l 1,1,-1
 16 8 l 1,2,-1
 40 8 l 1,3,-1
 40 24 l 5,0,-1
0 56 m 29,4,-1
 16 56 l 1,5,-1
 16 32 l 1,6,-1
 44 32 l 1,7,-1
 56 20 l 1,8,-1
 56 12 l 1,9,-1
 44 0 l 1,10,-1
 0 0 l 1,11,-1
 0 56 l 29,4,-1
EndSplineSet
EndChar

StartChar: uni042B
Encoding: 1067 1067 509
Width: 64
Flags: MW
HStem: 0 8<16 24> 48 8<16 24>
VStem: 0 16<8 48 56 80> 24 8<8 48> 40 16<0 80>
LayerCount: 2
Fore
SplineSet
40 80 m 25,0,-1
 56 80 l 1,1,-1
 56 0 l 1,2,-1
 40 0 l 1,3,-1
 40 80 l 25,0,-1
24 48 m 1,4,-1
 16 48 l 1,5,-1
 16 8 l 1,6,-1
 24 8 l 1,7,-1
 24 48 l 1,4,-1
0 80 m 25,8,-1
 16 80 l 1,9,-1
 16 56 l 1,10,-1
 24 56 l 1,11,-1
 32 48 l 1,12,-1
 32 8 l 1,13,-1
 24 0 l 1,14,-1
 0 0 l 1,15,-1
 0 80 l 25,8,-1
EndSplineSet
EndChar

StartChar: uni044B
Encoding: 1099 1099 510
Width: 64
Flags: MW
HStem: 0 8<16 24> 24 8<16 24>
VStem: 0 16<8 24 32 56> 24 8<8 24> 40 16<0 56>
LayerCount: 2
Fore
SplineSet
40 56 m 25,0,-1
 56 56 l 1,1,-1
 56 0 l 1,2,-1
 40 0 l 1,3,-1
 40 56 l 25,0,-1
24 24 m 5,4,-1
 16 24 l 1,5,-1
 16 8 l 1,6,-1
 24 8 l 1,7,-1
 24 24 l 5,4,-1
0 56 m 25,8,-1
 16 56 l 1,9,-1
 16 32 l 1,10,-1
 24 32 l 1,11,-1
 32 24 l 1,12,-1
 32 8 l 1,13,-1
 24 0 l 1,14,-1
 0 0 l 1,15,-1
 0 56 l 25,8,-1
EndSplineSet
EndChar

StartChar: uni042E
Encoding: 1070 1070 511
Width: 64
Flags: MW
HStem: 0 8<32 40> 40 8<8 16> 72 8<32 40>
VStem: 0 8<0 40 48 80> 16 16<12 40 48 68> 40 16<12 68>
LayerCount: 2
Fore
SplineSet
40 72 m 5,0,-1
 32 72 l 1,1,-1
 32 8 l 1,2,-1
 40 8 l 1,3,-1
 40 72 l 5,0,-1
0 80 m 25,4,-1
 8 80 l 1,5,-1
 8 48 l 1,6,-1
 16 48 l 1,7,-1
 16 68 l 1,8,-1
 28 80 l 1,9,-1
 44 80 l 1,10,-1
 56 68 l 1,11,-1
 56 12 l 1,12,-1
 44 0 l 1,13,-1
 28 0 l 1,14,-1
 16 12 l 1,15,-1
 16 40 l 1,16,-1
 8 40 l 1,17,-1
 8 0 l 1,18,-1
 0 0 l 1,19,-1
 0 80 l 25,4,-1
EndSplineSet
EndChar

StartChar: uni044E
Encoding: 1102 1102 512
Width: 64
Flags: MW
HStem: 0 8<32 40> 24 8<8 16> 48 8<32 40>
VStem: 0 8<0 24 32 56> 16 16<12 24 32 44> 40 16<12 44>
CounterMasks: 1 e0
LayerCount: 2
Fore
SplineSet
40 48 m 5,0,-1
 32 48 l 1,1,-1
 32 8 l 1,2,-1
 40 8 l 1,3,-1
 40 48 l 5,0,-1
0 56 m 25,4,-1
 8 56 l 1,5,-1
 8 32 l 1,6,-1
 16 32 l 1,7,-1
 16 44 l 1,8,-1
 28 56 l 1,9,-1
 44 56 l 1,10,-1
 56 44 l 1,11,-1
 56 12 l 1,12,-1
 44 0 l 1,13,-1
 28 0 l 1,14,-1
 16 12 l 1,15,-1
 16 24 l 1,16,-1
 8 24 l 1,17,-1
 8 0 l 1,18,-1
 0 0 l 1,19,-1
 0 56 l 25,4,-1
EndSplineSet
EndChar

StartChar: uni0444
Encoding: 1092 1092 513
Width: 64
Flags: MW
HStem: 0 8<16 24 32 40> 48 8<16 24 32 40>
VStem: 0 16<12 44> 24 8<-16 0 8 48 56 72> 40 16<12 44>
LayerCount: 2
Fore
SplineSet
40 48 m 5,0,-1
 32 48 l 1,1,-1
 32 8 l 1,2,-1
 40 8 l 1,3,-1
 40 48 l 5,0,-1
24 48 m 25,4,-1
 16 48 l 1,5,-1
 16 8 l 1,6,-1
 24 8 l 1,7,-1
 24 48 l 25,4,-1
0 44 m 1,8,-1
 12 56 l 1,9,-1
 24 56 l 1,10,-1
 24 72 l 1,11,-1
 32 72 l 1,12,-1
 32 56 l 1,13,-1
 44 56 l 1,14,-1
 56 44 l 1,15,-1
 56 12 l 1,16,-1
 44 0 l 1,17,-1
 32 0 l 1,18,-1
 32 -16 l 1,19,-1
 24 -16 l 1,20,-1
 24 0 l 1,21,-1
 12 0 l 1,22,-1
 0 12 l 1,23,-1
 0 44 l 1,8,-1
EndSplineSet
EndChar

StartChar: uni040A
Encoding: 1034 1034 514
Width: 64
Flags: MW
HStem: 0 8<32 40> 48 8<8 16 32 40>
VStem: 0 8<0 48 56 80> 16 16<8 48 56 80> 40 16<12 44>
LayerCount: 2
Fore
SplineSet
16 80 m 1,0,-1
 32 80 l 1,1,-1
 32 56 l 1,2,-1
 44 56 l 1,3,-1
 56 44 l 1,4,-1
 56 12 l 1,5,-1
 44 0 l 1,6,-1
 16 0 l 1,7,-1
 16 48 l 1,8,-1
 8 48 l 1,9,-1
 8 0 l 1,10,-1
 0 0 l 1,11,-1
 0 80 l 1,12,-1
 8 80 l 1,13,-1
 8 56 l 1,14,-1
 16 56 l 1,15,-1
 16 80 l 1,0,-1
40 48 m 1,16,-1
 32 48 l 1,17,-1
 32 8 l 1,18,-1
 40 8 l 1,19,-1
 40 48 l 1,16,-1
EndSplineSet
EndChar

StartChar: uni045A
Encoding: 1114 1114 515
Width: 64
Flags: MW
HStem: 0 8<32 40> 24 8<8 16 32 40>
VStem: 0 8<0 24 32 56> 16 16<8 24 32 56> 40 16<12 20>
LayerCount: 2
Fore
SplineSet
16 56 m 1,0,-1
 32 56 l 1,1,-1
 32 32 l 1,2,-1
 44 32 l 1,3,-1
 56 20 l 1,4,-1
 56 12 l 1,5,-1
 44 0 l 1,6,-1
 16 0 l 1,7,-1
 16 24 l 1,8,-1
 8 24 l 1,9,-1
 8 0 l 1,10,-1
 0 0 l 1,11,-1
 0 56 l 1,12,-1
 8 56 l 1,13,-1
 8 32 l 1,14,-1
 16 32 l 1,15,-1
 16 56 l 1,0,-1
40 24 m 5,16,-1
 32 24 l 1,17,-1
 32 8 l 1,18,-1
 40 8 l 1,19,-1
 40 24 l 5,16,-1
EndSplineSet
EndChar

StartChar: uni0418
Encoding: 1048 1048 516
Width: 64
Flags: MW
VStem: 0 16<32 80> 40 16<0 48>
AnchorPoint: "bottom" 28 0 basechar 0
AnchorPoint: "top" 28 80 basechar 0
LayerCount: 2
Fore
SplineSet
0 0 m 25,0,-1
 0 80 l 1,1,-1
 16 80 l 1,2,-1
 16 32 l 1,3,-1
 40 80 l 1,4,-1
 56 80 l 1,5,-1
 56 0 l 1,6,-1
 40 0 l 1,7,-1
 40 48 l 1,8,-1
 16 0 l 1,9,-1
 0 0 l 25,0,-1
EndSplineSet
EndChar

StartChar: uni0438
Encoding: 1080 1080 517
Width: 64
Flags: MW
VStem: 0 16<24 56> 40 16<0 32>
AnchorPoint: "bottom" 28 0 basechar 0
AnchorPoint: "top" 28 56 basechar 0
LayerCount: 2
Fore
SplineSet
0 0 m 25,0,-1
 0 56 l 1,1,-1
 16 56 l 1,2,-1
 16 24 l 1,3,-1
 40 56 l 1,4,-1
 56 56 l 1,5,-1
 56 0 l 1,6,-1
 40 0 l 1,7,-1
 40 32 l 1,8,-1
 16 0 l 1,9,-1
 0 0 l 25,0,-1
EndSplineSet
EndChar

StartChar: uni0423
Encoding: 1059 1059 523
Width: 64
Flags: MW
HStem: 0 8<8 28> 24 8<16 40>
VStem: 0 16<36 80> 40 16<20 24 32 80>
AnchorPoint: "bottom" 28 0 basechar 0
AnchorPoint: "top" 28 80 basechar 0
LayerCount: 2
Fore
SplineSet
0 80 m 1,0,-1
 16 80 l 1,1,-1
 16 32 l 1,2,-1
 40 32 l 1,3,-1
 40 80 l 1,4,-1
 56 80 l 1,5,-1
 56 24 l 1,6,-1
 56 20 l 1,7,-1
 36 0 l 1,8,-1
 8 0 l 1,9,-1
 8 8 l 1,10,-1
 28 8 l 1,11,-1
 40 20 l 1,12,-1
 40 24 l 1,13,-1
 12 24 l 1,14,-1
 0 36 l 1,15,-1
 0 80 l 1,0,-1
EndSplineSet
EndChar

StartChar: uni042D
Encoding: 1069 1069 529
Width: 64
Flags: W
HStem: 0 8<0 28> 40 8<16 40> 72 8<0 28>
VStem: 40 16<20 40 48 60>
LayerCount: 2
Fore
SplineSet
36 0 m 5,0,-1
 0 0 l 1,1,-1
 0 8 l 1,2,-1
 28 8 l 1,3,-1
 40 20 l 1,4,-1
 40 40 l 1,5,-1
 16 40 l 1,6,-1
 16 48 l 1,7,-1
 40 48 l 1,8,-1
 40 60 l 1,9,-1
 28 72 l 1,10,-1
 0 72 l 1,11,-1
 0 80 l 1,12,-1
 36 80 l 1,13,-1
 56 60 l 1,14,-1
 56 20 l 1,15,-1
 36 0 l 5,0,-1
EndSplineSet
EndChar

StartChar: uni0404
Encoding: 1028 1028 530
Width: 64
Flags: W
HStem: 0 8<28 56> 40 8<16 40> 72 8<28 56>
VStem: 0 16<20 40 48 60>
LayerCount: 2
Fore
SplineSet
20 0 m 5,0,-1
 0 20 l 1,1,-1
 0 60 l 1,2,-1
 20 80 l 1,3,-1
 56 80 l 1,4,-1
 56 72 l 1,5,-1
 28 72 l 1,6,-1
 16 60 l 1,7,-1
 16 48 l 1,8,-1
 40 48 l 1,9,-1
 40 40 l 1,10,-1
 16 40 l 1,11,-1
 16 20 l 1,12,-1
 28 8 l 1,13,-1
 56 8 l 1,14,-1
 56 0 l 1,15,-1
 20 0 l 5,0,-1
EndSplineSet
EndChar

StartChar: uni044D
Encoding: 1101 1101 531
Width: 64
Flags: W
HStem: 0 8<0 28> 24 8<16 40> 48 8<0 28>
VStem: 40 16<20 24 32 36>
CounterMasks: 1 e0
LayerCount: 2
Fore
SplineSet
36 0 m 5,0,-1
 0 0 l 1,1,-1
 0 8 l 1,2,-1
 28 8 l 1,3,-1
 40 20 l 1,4,-1
 40 24 l 1,5,-1
 16 24 l 1,6,-1
 16 32 l 1,7,-1
 40 32 l 1,8,-1
 40 36 l 1,9,-1
 28 48 l 1,10,-1
 0 48 l 1,11,-1
 0 56 l 1,12,-1
 36 56 l 1,13,-1
 56 36 l 1,14,-1
 56 20 l 1,15,-1
 36 0 l 5,0,-1
EndSplineSet
EndChar

StartChar: uni0454
Encoding: 1108 1108 532
Width: 64
Flags: W
HStem: 0 8<28 56> 24 8<16 40> 48 8<28 56>
VStem: 0 16<20 24 32 36>
CounterMasks: 1 e0
LayerCount: 2
Fore
SplineSet
20 0 m 5,0,-1
 0 20 l 1,1,-1
 0 36 l 1,2,-1
 20 56 l 1,3,-1
 56 56 l 1,4,-1
 56 48 l 1,5,-1
 28 48 l 1,6,-1
 16 36 l 1,7,-1
 16 32 l 1,8,-1
 40 32 l 1,9,-1
 40 24 l 1,10,-1
 16 24 l 1,11,-1
 16 20 l 1,12,-1
 28 8 l 1,13,-1
 56 8 l 1,14,-1
 56 0 l 1,15,-1
 20 0 l 5,0,-1
EndSplineSet
EndChar

StartChar: uni041B
Encoding: 1051 1051 533
Width: 64
Flags: W
HStem: 0 8<0 8> 72 8<24 40>
VStem: 8 16<8 72> 40 16<0 72>
LayerCount: 2
Fore
SplineSet
0 8 m 25,0,-1
 8 8 l 1,1,-1
 8 80 l 1,2,-1
 56 80 l 1,3,-1
 56 0 l 1,4,-1
 40 0 l 1,5,-1
 40 72 l 1,6,-1
 24 72 l 1,7,-1
 24 0 l 1,8,-1
 0 0 l 1,9,-1
 0 8 l 25,0,-1
EndSplineSet
EndChar

StartChar: uni043B
Encoding: 1083 1083 534
Width: 64
Flags: W
HStem: 0 8<0 8> 48 8<24 40>
VStem: 8 16<8 48> 40 16<0 48>
LayerCount: 2
Fore
SplineSet
0 8 m 25,0,-1
 8 8 l 1,1,-1
 8 56 l 1,2,-1
 56 56 l 1,3,-1
 56 0 l 1,4,-1
 40 0 l 1,5,-1
 40 48 l 1,6,-1
 24 48 l 1,7,-1
 24 0 l 1,8,-1
 0 0 l 1,9,-1
 0 8 l 25,0,-1
EndSplineSet
EndChar

StartChar: uni0431
Encoding: 1073 1073 535
Width: 64
Flags: W
HStem: 0 8<16 40> 48 8<16 40> 72 8<32 40>
VStem: 0 16<8 48> 40 16<12 44>
LayerCount: 2
Fore
SplineSet
16 48 m 25,0,-1
 16 8 l 1,1,-1
 40 8 l 1,2,-1
 40 48 l 1,3,-1
 16 48 l 25,0,-1
40 72 m 1,4,-1
 32 72 l 1,5,-1
 16 56 l 1,6,-1
 44 56 l 1,7,-1
 56 44 l 1,8,-1
 56 12 l 1,9,-1
 44 0 l 1,10,-1
 0 0 l 1,11,-1
 0 56 l 1,12,-1
 24 80 l 1,13,-1
 40 80 l 1,14,-1
 40 72 l 1,4,-1
EndSplineSet
EndChar

StartChar: uni040B
Encoding: 1035 1035 536
Width: 64
Flags: MW
HStem: 48 8<24 40> 72 8<0 8 24 32>
VStem: 8 16<0 48 56 72> 40 16<0 44>
LayerCount: 2
Fore
SplineSet
0 80 m 5,0,-1
 32 80 l 1,1,-1
 32 72 l 1,2,-1
 24 72 l 1,3,-1
 24 56 l 1,4,-1
 44 56 l 1,5,-1
 56 44 l 1,6,-1
 56 0 l 1,7,-1
 40 0 l 1,8,-1
 40 48 l 1,9,-1
 24 48 l 1,10,-1
 24 0 l 1,11,-1
 8 0 l 1,12,-1
 8 72 l 1,13,-1
 0 72 l 1,14,-1
 0 80 l 5,0,-1
EndSplineSet
EndChar

StartChar: uni0402
Encoding: 1026 1026 537
Width: 64
Flags: W
HStem: 0 8<32 40> 48 8<24 40> 72 8<0 8 24 32>
VStem: 8 16<0 48 56 72> 40 16<12 44>
LayerCount: 2
Fore
SplineSet
0 80 m 5,0,-1
 32 80 l 1,1,-1
 32 72 l 1,2,-1
 24 72 l 1,3,-1
 24 56 l 1,4,-1
 44 56 l 1,5,-1
 56 44 l 1,6,-1
 56 12 l 1,7,-1
 44 0 l 1,8,-1
 32 0 l 1,9,-1
 32 8 l 1,10,-1
 40 8 l 1,11,-1
 40 48 l 1,12,-1
 24 48 l 1,13,-1
 24 0 l 1,14,-1
 8 0 l 1,15,-1
 8 72 l 1,16,-1
 0 72 l 1,17,-1
 0 80 l 5,0,-1
EndSplineSet
EndChar

StartChar: uni0452
Encoding: 1106 1106 538
Width: 64
Flags: MW
HStem: 48 8<24 40> 64 8<0 8 24 32>
VStem: 8 16<0 48 56 64 72 80> 40 16<0 44>
LayerCount: 2
Fore
SplineSet
8 80 m 1,0,-1
 24 80 l 1,1,-1
 24 72 l 1,2,-1
 32 72 l 1,3,-1
 32 64 l 1,4,-1
 24 64 l 1,5,-1
 24 56 l 1,6,-1
 44 56 l 1,7,-1
 56 44 l 1,8,-1
 56 0 l 1,9,-1
 48 -16 l 1,10,-1
 32 -16 l 1,11,-1
 40 0 l 1,12,-1
 40 48 l 1,13,-1
 24 48 l 1,14,-1
 24 0 l 1,15,-1
 8 0 l 1,16,-1
 8 64 l 1,17,-1
 0 64 l 1,18,-1
 0 72 l 1,19,-1
 8 72 l 1,20,-1
 8 80 l 1,0,-1
EndSplineSet
EndChar

StartChar: uni0409
Encoding: 1033 1033 539
Width: 64
Flags: MW
HStem: 0 8<32 40> 48 8<32 40> 72 8<8 16>
VStem: 0 8<0 72> 16 16<8 48 56 72> 40 16<12 44>
LayerCount: 2
Fore
SplineSet
40 48 m 25,0,-1
 32 48 l 1,1,-1
 32 8 l 1,2,-1
 40 8 l 1,3,-1
 40 48 l 25,0,-1
0 0 m 25,4,-1
 0 80 l 1,5,-1
 32 80 l 1,6,-1
 32 56 l 1,7,-1
 44 56 l 1,8,-1
 56 44 l 1,9,-1
 56 12 l 1,10,-1
 44 0 l 1,11,-1
 16 0 l 1,12,-1
 16 72 l 1,13,-1
 8 72 l 1,14,-1
 8 0 l 1,15,-1
 0 0 l 25,4,-1
EndSplineSet
EndChar

StartChar: uni0459
Encoding: 1113 1113 540
Width: 64
Flags: MW
HStem: 0 8<32 40> 24 8<32 40> 48 8<8 16>
VStem: 0 8<0 48> 16 16<8 24 32 48> 40 16<12 20>
CounterMasks: 1 e0
LayerCount: 2
Fore
SplineSet
40 24 m 29,0,-1
 32 24 l 1,1,-1
 32 8 l 1,2,-1
 40 8 l 1,3,-1
 40 24 l 29,0,-1
0 0 m 25,4,-1
 0 56 l 1,5,-1
 32 56 l 1,6,-1
 32 32 l 1,7,-1
 44 32 l 1,8,-1
 56 20 l 1,9,-1
 56 12 l 1,10,-1
 44 0 l 1,11,-1
 16 0 l 1,12,-1
 16 48 l 1,13,-1
 8 48 l 1,14,-1
 8 0 l 1,15,-1
 0 0 l 25,4,-1
EndSplineSet
EndChar

StartChar: uni0414
Encoding: 1044 1044 541
Width: 64
Flags: MW
HStem: 0 8<24 32> 72 8<24 32>
VStem: 8 16<8 68> 32 16<8 72>
LayerCount: 2
Fore
SplineSet
32 72 m 1,0,-1
 24 72 l 1,1,-1
 24 8 l 1,2,-1
 32 8 l 1,3,-1
 32 72 l 1,0,-1
0 -16 m 1,4,-1
 0 8 l 1,5,-1
 8 8 l 1,6,-1
 8 68 l 1,7,-1
 20 80 l 1,8,-1
 48 80 l 1,9,-1
 48 8 l 1,10,-1
 56 8 l 1,11,-1
 56 -16 l 1,12,-1
 40 -16 l 1,13,-1
 40 0 l 1,14,-1
 16 0 l 1,15,-1
 16 -16 l 1,16,-1
 0 -16 l 1,4,-1
EndSplineSet
EndChar

StartChar: uni0434
Encoding: 1076 1076 542
Width: 64
Flags: MW
HStem: 0 8<24 32> 48 8<24 32>
VStem: 8 16<8 44> 32 16<8 48>
LayerCount: 2
Fore
SplineSet
32 48 m 1,0,-1
 24 48 l 1,1,-1
 24 8 l 1,2,-1
 32 8 l 1,3,-1
 32 48 l 1,0,-1
0 -16 m 1,4,-1
 0 8 l 1,5,-1
 8 8 l 1,6,-1
 8 44 l 1,7,-1
 20 56 l 1,8,-1
 48 56 l 1,9,-1
 48 8 l 1,10,-1
 56 8 l 1,11,-1
 56 -16 l 1,12,-1
 40 -16 l 1,13,-1
 40 0 l 1,14,-1
 16 0 l 1,15,-1
 16 -16 l 1,16,-1
 0 -16 l 1,4,-1
EndSplineSet
EndChar

StartChar: uni0490
Encoding: 1168 1168 543
Width: 64
Flags: MW
HStem: 72 8<16 40>
VStem: 0 16<0 72> 40 16<80 88>
LayerCount: 2
Fore
SplineSet
0 0 m 5,0,-1
 0 80 l 1,1,-1
 40 80 l 1,2,-1
 40 88 l 1,3,-1
 56 88 l 1,4,-1
 56 72 l 1,5,-1
 16 72 l 1,6,-1
 16 0 l 1,7,-1
 0 0 l 5,0,-1
EndSplineSet
EndChar

StartChar: uni0491
Encoding: 1169 1169 544
Width: 64
Flags: MW
HStem: 48 8<16 40>
VStem: 0 16<0 48> 40 16<56 64>
LayerCount: 2
Fore
SplineSet
0 0 m 1,0,-1
 0 56 l 1,1,-1
 40 56 l 1,2,-1
 40 64 l 1,3,-1
 56 64 l 1,4,-1
 56 48 l 1,5,-1
 16 48 l 1,6,-1
 16 0 l 1,7,-1
 0 0 l 1,0,-1
EndSplineSet
EndChar

StartChar: endash
Encoding: 8211 8211 553
Width: 64
Flags: W
HStem: 32 16<8 56>
LayerCount: 2
Fore
SplineSet
8 48 m 29,0,-1
 56 48 l 1,1,-1
 56 32 l 1,2,-1
 8 32 l 1,3,-1
 8 48 l 29,0,-1
EndSplineSet
EndChar

StartChar: emdash
Encoding: 8212 8212 554
Width: 64
Flags: W
HStem: 32 16<0 56>
LayerCount: 2
Fore
SplineSet
0 48 m 1,0,-1
 56 48 l 1,1,-1
 56 32 l 1,2,-1
 0 32 l 1,3,-1
 0 48 l 1,0,-1
EndSplineSet
EndChar

StartChar: uni2015
Encoding: 8213 8213 555
Width: 64
Flags: W
HStem: 40 8<0 56>
LayerCount: 2
Fore
SplineSet
0 48 m 1,0,-1
 56 48 l 1,1,-1
 56 40 l 1,2,-1
 0 40 l 1,3,-1
 0 48 l 1,0,-1
EndSplineSet
EndChar

StartChar: underscoredbl
Encoding: 8215 8215 556
Width: 64
Flags: W
HStem: -24 8<0 56> -8 8<0 56>
LayerCount: 2
Fore
SplineSet
0 -16 m 25,0,-1
 56 -16 l 1,1,-1
 56 -24 l 1,2,-1
 0 -24 l 1,3,-1
 0 -16 l 25,0,-1
0 0 m 1,4,-1
 56 0 l 1,5,-1
 56 -8 l 1,6,-1
 0 -8 l 1,7,-1
 0 0 l 1,4,-1
EndSplineSet
EndChar

StartChar: quoteleft
Encoding: 8216 8216 557
Width: 64
Flags: W
HStem: 56 24<24 32>
VStem: 16 16<56 64>
LayerCount: 2
Fore
SplineSet
32 56 m 5,0,-1
 16 56 l 1,1,-1
 16 64 l 1,2,-1
 24 80 l 1,3,-1
 40 80 l 1,4,-1
 32 64 l 1,5,-1
 32 56 l 5,0,-1
EndSplineSet
EndChar

StartChar: quoteright
Encoding: 8217 8217 558
Width: 64
Flags: W
HStem: 56 24<24 32>
VStem: 24 16<72 80>
LayerCount: 2
Fore
SplineSet
24 80 m 5,0,-1
 40 80 l 1,1,-1
 40 72 l 1,2,-1
 32 56 l 1,3,-1
 16 56 l 1,4,-1
 24 72 l 1,5,-1
 24 80 l 5,0,-1
EndSplineSet
EndChar

StartChar: quotesinglbase
Encoding: 8218 8218 559
Width: 64
Flags: W
HStem: 0 24<24 32>
VStem: 24 16<16 24>
LayerCount: 2
Fore
SplineSet
24 24 m 5,0,-1
 40 24 l 1,1,-1
 40 16 l 1,2,-1
 32 0 l 1,3,-1
 16 0 l 1,4,-1
 24 16 l 1,5,-1
 24 24 l 5,0,-1
EndSplineSet
EndChar

StartChar: quotereversed
Encoding: 8219 8219 560
Width: 64
Flags: W
HStem: 56 24<24 32>
VStem: 16 16<72 80>
LayerCount: 2
Fore
SplineSet
32 80 m 1,0,-1
 32 72 l 1,1,-1
 40 56 l 1,2,-1
 24 56 l 1,3,-1
 16 72 l 1,4,-1
 16 80 l 1,5,-1
 32 80 l 1,0,-1
EndSplineSet
EndChar

StartChar: quotedblleft
Encoding: 8220 8220 561
Width: 64
Flags: W
HStem: 56 24<16 24 40 48>
VStem: 8 16<56 64> 32 16<56 64>
LayerCount: 2
Fore
SplineSet
48 56 m 5,0,-1
 32 56 l 1,1,-1
 32 64 l 1,2,-1
 40 80 l 1,3,-1
 56 80 l 1,4,-1
 48 64 l 1,5,-1
 48 56 l 5,0,-1
24 56 m 5,6,-1
 8 56 l 1,7,-1
 8 64 l 1,8,-1
 16 80 l 1,9,-1
 32 80 l 1,10,-1
 24 64 l 1,11,-1
 24 56 l 5,6,-1
EndSplineSet
EndChar

StartChar: quotedblright
Encoding: 8221 8221 562
Width: 64
Flags: W
HStem: 56 24<16 24 40 48>
VStem: 16 16<72 80> 40 16<72 80>
LayerCount: 2
Fore
SplineSet
40 80 m 5,0,-1
 56 80 l 1,1,-1
 56 72 l 1,2,-1
 48 56 l 1,3,-1
 32 56 l 1,4,-1
 40 72 l 1,5,-1
 40 80 l 5,0,-1
16 80 m 5,6,-1
 32 80 l 1,7,-1
 32 72 l 1,8,-1
 24 56 l 1,9,-1
 8 56 l 1,10,-1
 16 72 l 1,11,-1
 16 80 l 5,6,-1
EndSplineSet
EndChar

StartChar: quotedblbase
Encoding: 8222 8222 563
Width: 64
Flags: W
HStem: 0 24<16 24 40 48>
VStem: 16 16<16 24> 40 16<16 24>
LayerCount: 2
Fore
SplineSet
40 24 m 5,0,-1
 56 24 l 1,1,-1
 56 16 l 1,2,-1
 48 0 l 1,3,-1
 32 0 l 1,4,-1
 40 16 l 1,5,-1
 40 24 l 5,0,-1
16 24 m 5,6,-1
 32 24 l 1,7,-1
 32 16 l 1,8,-1
 24 0 l 1,9,-1
 8 0 l 1,10,-1
 16 16 l 1,11,-1
 16 24 l 5,6,-1
EndSplineSet
EndChar

StartChar: dagger
Encoding: 8224 8224 564
Width: 64
Flags: MW
HStem: 56 8<8 24 32 48>
VStem: 24 8<0 56 64 80>
LayerCount: 2
Fore
SplineSet
8 64 m 1,0,-1
 24 64 l 1,1,-1
 24 80 l 1,2,-1
 32 80 l 1,3,-1
 32 64 l 1,4,-1
 48 64 l 1,5,-1
 48 56 l 1,6,-1
 32 56 l 1,7,-1
 32 0 l 1,8,-1
 24 0 l 1,9,-1
 24 56 l 1,10,-1
 8 56 l 1,11,-1
 8 64 l 1,0,-1
EndSplineSet
EndChar

StartChar: daggerdbl
Encoding: 8225 8225 565
Width: 64
Flags: MW
HStem: 16 8<8 24 32 48> 56 8<8 24 32 48>
VStem: 24 8<0 16 24 56 64 80>
LayerCount: 2
Fore
SplineSet
24 80 m 25,0,-1
 32 80 l 1,1,-1
 32 64 l 1,2,-1
 48 64 l 1,3,-1
 48 56 l 1,4,-1
 32 56 l 1,5,-1
 32 24 l 1,6,-1
 48 24 l 1,7,-1
 48 16 l 1,8,-1
 32 16 l 1,9,-1
 32 0 l 1,10,-1
 24 0 l 1,11,-1
 24 16 l 1,12,-1
 8 16 l 1,13,-1
 8 24 l 1,14,-1
 24 24 l 1,15,-1
 24 56 l 1,16,-1
 8 56 l 1,17,-1
 8 64 l 1,18,-1
 24 64 l 1,19,-1
 24 80 l 25,0,-1
EndSplineSet
EndChar

StartChar: bullet
Encoding: 8226 8226 566
Width: 64
Flags: W
HStem: 32 24<16 40>
VStem: 16 24<32 56>
LayerCount: 2
Fore
SplineSet
16 56 m 5,0,-1
 40 56 l 1,1,-1
 40 32 l 1,2,-1
 16 32 l 1,3,-1
 16 56 l 5,0,-1
EndSplineSet
EndChar

StartChar: ellipsis
Encoding: 8230 8230 567
Width: 64
Flags: W
HStem: 0 16<0 8 24 32 48 56>
VStem: 0 8<0 16> 24 8<0 16> 48 8<0 16>
CounterMasks: 1 70
LayerCount: 2
Fore
SplineSet
48 16 m 1,0,-1
 56 16 l 1,1,-1
 56 0 l 1,2,-1
 48 0 l 1,3,-1
 48 16 l 1,0,-1
24 16 m 1,4,-1
 32 16 l 1,5,-1
 32 0 l 1,6,-1
 24 0 l 1,7,-1
 24 16 l 1,4,-1
0 16 m 1,8,-1
 8 16 l 1,9,-1
 8 0 l 1,10,-1
 0 0 l 1,11,-1
 0 16 l 1,8,-1
EndSplineSet
EndChar

StartChar: perthousand
Encoding: 8240 8240 568
Width: 64
Flags: MW
HStem: 0 8<8 16 40 48> 16 8<8 16 40 48> 56 8<8 16> 72 8<8 16>
VStem: 0 8<8 16 64 72> 16 8<8 16 64 72> 32 8<8 16> 48 8<8 16>
LayerCount: 2
Fore
SplineSet
16 16 m 25,0,-1
 8 16 l 1,1,-1
 8 8 l 1,2,-1
 16 8 l 1,3,-1
 16 16 l 25,0,-1
0 16 m 17,4,-1
 8 24 l 1,5,-1
 16 24 l 1,6,-1
 24 16 l 1,7,-1
 24 8 l 1,8,-1
 16 0 l 1,9,-1
 8 0 l 1,10,-1
 0 8 l 1,11,-1
 0 16 l 17,4,-1
48 16 m 25,12,-1
 40 16 l 1,13,-1
 40 8 l 1,14,-1
 48 8 l 1,15,-1
 48 16 l 25,12,-1
16 72 m 25,16,-1
 8 72 l 1,17,-1
 8 64 l 1,18,-1
 16 64 l 1,19,-1
 16 72 l 25,16,-1
32 16 m 21,20,-1
 40 24 l 1,21,-1
 48 24 l 1,22,-1
 56 16 l 1,23,-1
 56 8 l 1,24,-1
 48 0 l 1,25,-1
 40 0 l 1,26,-1
 32 8 l 1,27,-1
 32 16 l 21,20,-1
0 72 m 25,28,-1
 8 80 l 1,29,-1
 16 80 l 1,30,-1
 24 72 l 1,31,-1
 24 64 l 1,32,-1
 16 56 l 1,33,-1
 8 56 l 1,34,-1
 0 64 l 1,35,-1
 0 72 l 25,28,-1
40 56 m 1,36,-1
 56 56 l 1,37,-1
 16 32 l 1,38,-1
 0 32 l 1,39,-1
 40 56 l 1,36,-1
EndSplineSet
EndChar

StartChar: minute
Encoding: 8242 8242 569
Width: 64
Flags: W
HStem: 56 24
VStem: 16 24
LayerCount: 2
Fore
SplineSet
24 80 m 5,0,-1
 40 80 l 1,1,-1
 24 56 l 1,2,-1
 16 56 l 1,3,-1
 24 80 l 5,0,-1
EndSplineSet
EndChar

StartChar: second
Encoding: 8243 8243 570
Width: 64
Flags: W
HStem: 56 24
LayerCount: 2
Fore
SplineSet
40 80 m 1,0,-1
 56 80 l 1,1,-1
 40 56 l 1,2,-1
 32 56 l 1,3,-1
 40 80 l 1,0,-1
16 80 m 1,4,-1
 32 80 l 1,5,-1
 16 56 l 1,6,-1
 8 56 l 1,7,-1
 16 80 l 1,4,-1
EndSplineSet
EndChar

StartChar: guilsinglleft
Encoding: 8249 8249 571
Width: 64
Flags: MW
VStem: 16 32
LayerCount: 2
Fore
SplineSet
32 40 m 5,0,-1
 48 40 l 1,1,-1
 32 20 l 1,2,-1
 48 0 l 1,3,-1
 32 0 l 1,4,-1
 16 20 l 1,5,-1
 32 40 l 5,0,-1
EndSplineSet
EndChar

StartChar: guilsinglright
Encoding: 8250 8250 572
Width: 64
Flags: W
HStem: 0 84G<32 32>
VStem: 16 32
LayerCount: 2
Fore
SplineSet
32 40 m 1,0,-1
 48 20 l 1,1,-1
 32 0 l 1,2,-1
 16 0 l 1,3,-1
 32 20 l 1,4,-1
 16 40 l 1,5,-1
 32 40 l 1,0,-1
EndSplineSet
EndChar

StartChar: exclamdbl
Encoding: 8252 8252 573
Width: 64
VWidth: 96
Flags: MW
HStem: 0 16<8 24 40 56>
VStem: 8 16<0 16 32 80> 40 16<0 16 32 80>
LayerCount: 2
Fore
SplineSet
40 80 m 25,0,-1
 56 80 l 1,1,-1
 56 32 l 1,2,-1
 40 32 l 1,3,-1
 40 80 l 25,0,-1
40 16 m 25,4,-1
 56 16 l 1,5,-1
 56 0 l 1,6,-1
 40 0 l 1,7,-1
 40 16 l 25,4,-1
8 80 m 25,8,-1
 24 80 l 1,9,-1
 24 32 l 1,10,-1
 8 32 l 1,11,-1
 8 80 l 25,8,-1
8 16 m 25,12,-1
 24 16 l 1,13,-1
 24 0 l 1,14,-1
 8 0 l 1,15,-1
 8 16 l 25,12,-1
EndSplineSet
EndChar

StartChar: uni203E
Encoding: 8254 8254 574
Width: 64
Flags: W
HStem: 96 8<0 64>
LayerCount: 2
Fore
SplineSet
0 104 m 5,0,-1
 64 104 l 1,1,-1
 64 96 l 1,2,-1
 0 96 l 1,3,-1
 0 104 l 5,0,-1
EndSplineSet
EndChar

StartChar: fraction
Encoding: 8260 8260 575
Width: 64
Flags: W
LayerCount: 2
Fore
SplineSet
48 72 m 5,0,-1
 56 72 l 1,1,-1
 8 8 l 1,2,-1
 0 8 l 1,3,-1
 48 72 l 5,0,-1
EndSplineSet
EndChar

StartChar: uni207F
Encoding: 8319 8319 576
Width: 64
Flags: W
HStem: 72 8<24 32>
VStem: 16 8<40 72> 32 8<40 72>
LayerCount: 2
Fore
SplineSet
16 40 m 25,0,-1
 16 80 l 1,1,-1
 32 80 l 1,2,-1
 40 72 l 1,3,-1
 40 40 l 1,4,-1
 32 40 l 1,5,-1
 32 72 l 1,6,-1
 24 72 l 1,7,-1
 24 40 l 1,8,-1
 16 40 l 25,0,-1
EndSplineSet
EndChar

StartChar: franc
Encoding: 8355 8355 577
Width: 64
Flags: MW
HStem: 8 8<0 8 24 32> 40 8<24 48> 72 8<24 56>
VStem: 8 16<0 8 16 40 48 72>
CounterMasks: 1 e0
LayerCount: 2
Fore
SplineSet
8 0 m 1,0,-1
 8 8 l 1,1,-1
 0 8 l 1,2,-1
 0 16 l 1,3,-1
 8 16 l 1,4,-1
 8 80 l 1,5,-1
 56 80 l 1,6,-1
 56 72 l 1,7,-1
 24 72 l 1,8,-1
 24 48 l 1,9,-1
 48 48 l 1,10,-1
 48 40 l 1,11,-1
 24 40 l 1,12,-1
 24 16 l 1,13,-1
 32 16 l 1,14,-1
 32 8 l 1,15,-1
 24 8 l 1,16,-1
 24 0 l 1,17,-1
 8 0 l 1,0,-1
EndSplineSet
EndChar

StartChar: lira
Encoding: 8356 8356 578
Width: 64
Flags: W
HStem: 0 8<0 8 24 56> 32 8<0 8 24 56> 48 8<0 8 24 56>
VStem: 8 16<8 32 40 48 56 68>
LayerCount: 2
Fore
SplineSet
0 0 m 1,0,-1
 0 8 l 1,1,-1
 8 8 l 1,2,-1
 8 32 l 1,3,-1
 0 32 l 1,4,-1
 0 40 l 1,5,-1
 8 40 l 1,6,-1
 8 48 l 1,7,-1
 0 48 l 1,8,-1
 0 56 l 1,9,-1
 8 56 l 1,10,-1
 8 68 l 1,11,-1
 20 80 l 1,12,-1
 44 80 l 1,13,-1
 56 68 l 1,14,-1
 56 64 l 1,15,-1
 40 64 l 1,16,-1
 40 72 l 1,17,-1
 24 72 l 1,18,-1
 24 56 l 1,19,-1
 56 56 l 1,20,-1
 56 48 l 1,21,-1
 24 48 l 1,22,-1
 24 40 l 1,23,-1
 56 40 l 1,24,-1
 56 32 l 1,25,-1
 24 32 l 1,26,-1
 24 8 l 1,27,-1
 56 8 l 1,28,-1
 56 0 l 1,29,-1
 0 0 l 1,0,-1
EndSplineSet
EndChar

StartChar: peseta
Encoding: 8359 8359 579
Width: 64
Flags: MW
HStem: 0 8<48 56> 40 8<8 16> 48 8<32 40 48 56> 72 8<8 16>
VStem: 0 8<0 40 48 72> 16 8<48 72> 40 8<8 48 56 80>
LayerCount: 2
Fore
SplineSet
16 72 m 29,0,-1
 8 72 l 1,1,-1
 8 48 l 1,2,-1
 16 48 l 1,3,-1
 16 72 l 29,0,-1
40 80 m 25,4,-1
 48 80 l 1,5,-1
 48 56 l 1,6,-1
 56 56 l 1,7,-1
 56 48 l 1,8,-1
 48 48 l 1,9,-1
 48 8 l 1,10,-1
 56 8 l 1,11,-1
 56 0 l 1,12,-1
 48 0 l 1,13,-1
 40 8 l 1,14,-1
 40 48 l 1,15,-1
 32 48 l 1,16,-1
 32 56 l 1,17,-1
 40 56 l 1,18,-1
 40 80 l 25,4,-1
0 0 m 25,19,-1
 0 80 l 1,20,-1
 16 80 l 1,21,-1
 24 72 l 1,22,-1
 24 48 l 1,23,-1
 16 40 l 1,24,-1
 8 40 l 1,25,-1
 8 0 l 1,26,-1
 0 0 l 25,19,-1
EndSplineSet
EndChar

StartChar: Euro
Encoding: 8364 8364 580
Width: 64
Flags: MW
HStem: 0 8<36 56> 32 8<0 8 24 40> 48 8<0 8 24 40> 72 8<36 56>
VStem: 8 16<20 32 40 48 56 60>
LayerCount: 2
Fore
SplineSet
28 0 m 1,0,-1
 8 20 l 1,1,-1
 8 32 l 1,2,-1
 0 32 l 1,3,-1
 0 40 l 1,4,-1
 8 40 l 1,5,-1
 8 48 l 1,6,-1
 0 48 l 1,7,-1
 0 56 l 1,8,-1
 8 56 l 1,9,-1
 8 60 l 1,10,-1
 28 80 l 1,11,-1
 56 80 l 1,12,-1
 56 72 l 1,13,-1
 36 72 l 1,14,-1
 24 60 l 1,15,-1
 24 56 l 1,16,-1
 40 56 l 1,17,-1
 40 48 l 1,18,-1
 24 48 l 1,19,-1
 24 40 l 1,20,-1
 40 40 l 1,21,-1
 40 32 l 1,22,-1
 24 32 l 1,23,-1
 24 20 l 1,24,-1
 36 8 l 1,25,-1
 56 8 l 1,26,-1
 56 0 l 1,27,-1
 28 0 l 1,0,-1
EndSplineSet
EndChar

StartChar: uni2105
Encoding: 8453 8453 581
Width: 64
Flags: W
HStem: 0 8<40 48> 16 8<40 48> 56 8<8 20> 72 8<8 20>
VStem: 0 8<64 72> 32 8<8 16> 48 8<8 16>
LayerCount: 2
Fore
SplineSet
8 80 m 1,0,-1
 20 80 l 1,1,-1
 20 72 l 1,2,-1
 8 72 l 1,3,-1
 8 64 l 1,4,-1
 20 64 l 1,5,-1
 20 56 l 1,6,-1
 8 56 l 1,7,-1
 0 64 l 1,8,-1
 0 72 l 1,9,-1
 8 80 l 1,0,-1
48 16 m 25,10,-1
 40 16 l 1,11,-1
 40 8 l 1,12,-1
 48 8 l 1,13,-1
 48 16 l 25,10,-1
32 16 m 17,14,-1
 40 24 l 1,15,-1
 48 24 l 1,16,-1
 56 16 l 1,17,-1
 56 8 l 1,18,-1
 48 0 l 1,19,-1
 40 0 l 1,20,-1
 32 8 l 1,21,-1
 32 16 l 17,14,-1
40 80 m 25,22,-1
 56 80 l 1,23,-1
 16 0 l 1,24,-1
 0 0 l 1,25,-1
 40 80 l 25,22,-1
EndSplineSet
EndChar

StartChar: uni2103
Encoding: 8451 8451 582
Width: 64
Flags: W
HStem: 0 8<40 48> 56 8<8 16> 72 8<8 16 40 48>
VStem: 0 8<64 72> 16 8<64 72> 32 8<8 72> 48 8<8 16 64 72>
LayerCount: 2
Fore
SplineSet
40 80 m 5,0,-1
 48 80 l 1,1,-1
 56 72 l 1,2,-1
 56 64 l 1,3,-1
 48 64 l 1,4,-1
 48 72 l 1,5,-1
 40 72 l 1,6,-1
 40 8 l 1,7,-1
 48 8 l 1,8,-1
 48 16 l 1,9,-1
 56 16 l 1,10,-1
 56 8 l 1,11,-1
 48 0 l 1,12,-1
 40 0 l 1,13,-1
 32 8 l 1,14,-1
 32 72 l 1,15,-1
 40 80 l 5,0,-1
16 72 m 29,16,-1
 8 72 l 1,17,-1
 8 64 l 1,18,-1
 16 64 l 1,19,-1
 16 72 l 29,16,-1
0 72 m 29,20,-1
 8 80 l 1,21,-1
 16 80 l 1,22,-1
 24 72 l 1,23,-1
 24 64 l 1,24,-1
 16 56 l 1,25,-1
 8 56 l 1,26,-1
 0 64 l 1,27,-1
 0 72 l 29,20,-1
EndSplineSet
EndChar

StartChar: uni2109
Encoding: 8457 8457 583
Width: 64
Flags: MW
HStem: 40 8<40 56> 56 8<8 16> 72 8<8 16 40 56>
VStem: 0 8<64 72> 16 8<64 72> 32 8<0 40 48 72>
CounterMasks: 1 e0
LayerCount: 2
Fore
SplineSet
32 80 m 29,0,-1
 56 80 l 1,1,-1
 56 72 l 1,2,-1
 40 72 l 1,3,-1
 40 48 l 1,4,-1
 56 48 l 1,5,-1
 56 40 l 1,6,-1
 40 40 l 1,7,-1
 40 0 l 1,8,-1
 32 0 l 1,9,-1
 32 80 l 29,0,-1
16 72 m 25,10,-1
 8 72 l 1,11,-1
 8 64 l 1,12,-1
 16 64 l 1,13,-1
 16 72 l 25,10,-1
0 72 m 25,14,-1
 8 80 l 1,15,-1
 16 80 l 1,16,-1
 24 72 l 1,17,-1
 24 64 l 1,18,-1
 16 56 l 1,19,-1
 8 56 l 1,20,-1
 0 64 l 1,21,-1
 0 72 l 25,14,-1
EndSplineSet
EndChar

StartChar: uni2113
Encoding: 8467 8467 584
Width: 64
Flags: W
HStem: 0 8<24 32> 24 8<8 16 24 32> 72 8<24 32>
VStem: 16 8<8 24 32 72> 32 8<8 16 32 72>
LayerCount: 2
Fore
SplineSet
32 72 m 1,0,-1
 24 72 l 1,1,-1
 24 32 l 1,2,-1
 32 32 l 1,3,-1
 32 72 l 1,0,-1
8 32 m 1,4,-1
 16 32 l 1,5,-1
 16 72 l 1,6,-1
 24 80 l 1,7,-1
 32 80 l 1,8,-1
 40 72 l 1,9,-1
 40 32 l 1,10,-1
 32 24 l 1,11,-1
 24 24 l 1,12,-1
 24 8 l 1,13,-1
 32 8 l 1,14,-1
 32 16 l 1,15,-1
 40 16 l 1,16,-1
 40 8 l 1,17,-1
 32 0 l 1,18,-1
 24 0 l 1,19,-1
 16 8 l 1,20,-1
 16 24 l 1,21,-1
 8 24 l 1,22,-1
 8 32 l 1,4,-1
EndSplineSet
EndChar

StartChar: uni2116
Encoding: 8470 8470 585
Width: 64
Flags: MW
HStem: 40 8<32 56> 56 8<40 48> 72 8<8 16 40 48>
VStem: 0 8<0 72> 16 8<0 72> 32 8<64 72> 48 8<64 72>
CounterMasks: 1 e0
LayerCount: 2
Fore
SplineSet
0 0 m 1,0,-1
 0 80 l 1,1,-1
 16 80 l 1,2,-1
 24 72 l 1,3,-1
 24 0 l 1,4,-1
 16 0 l 1,5,-1
 16 72 l 1,6,-1
 8 72 l 1,7,-1
 8 0 l 1,8,-1
 0 0 l 1,0,-1
32 48 m 25,9,-1
 56 48 l 1,10,-1
 56 40 l 1,11,-1
 32 40 l 1,12,-1
 32 48 l 25,9,-1
48 72 m 1,13,-1
 40 72 l 1,14,-1
 40 64 l 1,15,-1
 48 64 l 1,16,-1
 48 72 l 1,13,-1
40 80 m 1,17,-1
 48 80 l 1,18,-1
 56 72 l 1,19,-1
 56 64 l 1,20,-1
 48 56 l 1,21,-1
 40 56 l 1,22,-1
 32 64 l 1,23,-1
 32 72 l 1,24,-1
 40 80 l 1,17,-1
EndSplineSet
EndChar

StartChar: trademark
Encoding: 8482 8482 586
Width: 64
Flags: MW
HStem: 72 8<0 8 16 24>
VStem: 8 8<48 72> 32 8<48 68> 48 8<48 68>
LayerCount: 2
Fore
SplineSet
32 48 m 1,0,-1
 32 80 l 1,1,-1
 40 80 l 1,2,-1
 44 72 l 1,3,-1
 48 80 l 1,4,-1
 56 80 l 1,5,-1
 56 48 l 1,6,-1
 48 48 l 1,7,-1
 48 68 l 1,8,-1
 44 60 l 1,9,-1
 40 68 l 1,10,-1
 40 48 l 1,11,-1
 32 48 l 1,0,-1
8 48 m 1,12,-1
 8 72 l 1,13,-1
 0 72 l 1,14,-1
 0 80 l 1,15,-1
 24 80 l 1,16,-1
 24 72 l 1,17,-1
 16 72 l 1,18,-1
 16 48 l 1,19,-1
 8 48 l 1,12,-1
EndSplineSet
EndChar

StartChar: estimated
Encoding: 8494 8494 588
Width: 64
Flags: W
HStem: 0 4<16 40> 24 4<16 40> 52 4<16 40>
VStem: 0 16<12 24 28 44> 40 16<28 44>
LayerCount: 2
Fore
SplineSet
40 52 m 1,0,-1
 16 52 l 1,1,-1
 16 28 l 1,2,-1
 40 28 l 1,3,-1
 40 52 l 1,0,-1
12 56 m 5,4,-1
 44 56 l 1,5,-1
 56 44 l 1,6,-1
 56 24 l 1,7,-1
 16 24 l 1,8,-1
 16 4 l 1,9,-1
 40 4 l 1,10,-1
 52 16 l 1,11,-1
 56 16 l 1,12,-1
 56 12 l 1,13,-1
 44 0 l 1,14,-1
 12 0 l 1,15,-1
 0 12 l 1,16,-1
 0 44 l 1,17,-1
 12 56 l 5,4,-1
EndSplineSet
EndChar

StartChar: oneeighth
Encoding: 8539 8539 589
Width: 64
Flags: MW
HStem: -8 8<40 48> 8 8<40 48> 24 8<40 48> 48 8<0 8 16 24> 72 8<0 8>
VStem: 8 8<56 72 80 88> 32 8<0 8 16 24> 48 8<0 8 16 24>
LayerCount: 2
Fore
SplineSet
48 8 m 25,0,-1
 40 8 l 1,1,-1
 40 0 l 1,2,-1
 48 0 l 1,3,-1
 48 8 l 25,0,-1
48 24 m 25,4,-1
 40 24 l 1,5,-1
 40 16 l 1,6,-1
 48 16 l 1,7,-1
 48 24 l 25,4,-1
32 32 m 1,8,-1
 56 32 l 1,9,-1
 56 -8 l 1,10,-1
 32 -8 l 1,11,-1
 32 32 l 1,8,-1
48 72 m 1,12,-1
 56 72 l 1,13,-1
 8 8 l 1,14,-1
 0 8 l 1,15,-1
 48 72 l 1,12,-1
0 80 m 25,16,-1
 8 80 l 1,17,-1
 8 88 l 1,18,-1
 16 88 l 1,19,-1
 16 56 l 1,20,-1
 24 56 l 1,21,-1
 24 48 l 1,22,-1
 0 48 l 1,23,-1
 0 56 l 1,24,-1
 8 56 l 1,25,-1
 8 72 l 1,26,-1
 0 72 l 1,27,-1
 0 80 l 25,16,-1
EndSplineSet
EndChar

StartChar: threeeighths
Encoding: 8540 8540 590
Width: 64
Flags: MW
HStem: -8 8<40 48> 8 8<40 48> 24 8<40 48> 48 8<0 16> 64 8<0 16> 80 8<0 16>
VStem: 16 8<56 64 72 80> 32 8<0 8 16 24> 48 8<0 8 16 24>
CounterMasks: 1 0380
LayerCount: 2
Fore
SplineSet
48 8 m 25,0,-1
 40 8 l 1,1,-1
 40 0 l 1,2,-1
 48 0 l 1,3,-1
 48 8 l 25,0,-1
48 24 m 25,4,-1
 40 24 l 1,5,-1
 40 16 l 1,6,-1
 48 16 l 1,7,-1
 48 24 l 25,4,-1
32 32 m 1,8,-1
 56 32 l 1,9,-1
 56 -8 l 1,10,-1
 32 -8 l 1,11,-1
 32 32 l 1,8,-1
48 72 m 1,12,-1
 56 72 l 1,13,-1
 8 8 l 1,14,-1
 0 8 l 1,15,-1
 48 72 l 1,12,-1
0 72 m 1,16,-1
 16 72 l 1,17,-1
 16 80 l 1,18,-1
 0 80 l 1,19,-1
 0 88 l 1,20,-1
 24 88 l 1,21,-1
 24 48 l 1,22,-1
 0 48 l 1,23,-1
 0 56 l 1,24,-1
 16 56 l 1,25,-1
 16 64 l 1,26,-1
 0 64 l 1,27,-1
 0 72 l 1,16,-1
EndSplineSet
EndChar

StartChar: fiveeighths
Encoding: 8541 8541 591
Width: 64
Flags: W
HStem: -8 8<40 48> 8 8<40 48> 24 8<40 48> 48 8<0 16> 64 8<8 16> 80 8<8 24>
VStem: 0 8<72 80> 16 8<56 64> 32 8<0 8 16 24> 48 8<0 8 16 24>
LayerCount: 2
Fore
SplineSet
0 88 m 25,0,-1
 24 88 l 1,1,-1
 24 80 l 1,2,-1
 8 80 l 1,3,-1
 8 72 l 1,4,-1
 24 72 l 1,5,-1
 24 48 l 1,6,-1
 0 48 l 1,7,-1
 0 56 l 1,8,-1
 16 56 l 1,9,-1
 16 64 l 1,10,-1
 0 64 l 1,11,-1
 0 88 l 25,0,-1
48 8 m 25,12,-1
 40 8 l 1,13,-1
 40 0 l 1,14,-1
 48 0 l 1,15,-1
 48 8 l 25,12,-1
48 24 m 25,16,-1
 40 24 l 1,17,-1
 40 16 l 1,18,-1
 48 16 l 1,19,-1
 48 24 l 25,16,-1
32 32 m 1,20,-1
 56 32 l 1,21,-1
 56 -8 l 1,22,-1
 32 -8 l 1,23,-1
 32 32 l 1,20,-1
48 72 m 1,24,-1
 56 72 l 1,25,-1
 8 8 l 1,26,-1
 0 8 l 1,27,-1
 48 72 l 1,24,-1
EndSplineSet
EndChar

StartChar: seveneighths
Encoding: 8542 8542 592
Width: 64
Flags: W
HStem: -8 8<40 48> 8 8<40 48> 24 8<40 48> 80 8<0 16>
VStem: 16 8<48 80> 32 8<0 8 16 24> 48 8<0 8 16 24>
CounterMasks: 1 0e
LayerCount: 2
Fore
SplineSet
0 88 m 1,0,-1
 24 88 l 1,1,-1
 24 48 l 1,2,-1
 16 48 l 1,3,-1
 16 80 l 1,4,-1
 0 80 l 1,5,-1
 0 88 l 1,0,-1
48 8 m 25,6,-1
 40 8 l 1,7,-1
 40 0 l 1,8,-1
 48 0 l 1,9,-1
 48 8 l 25,6,-1
48 24 m 25,10,-1
 40 24 l 1,11,-1
 40 16 l 1,12,-1
 48 16 l 1,13,-1
 48 24 l 25,10,-1
32 32 m 1,14,-1
 56 32 l 1,15,-1
 56 -8 l 1,16,-1
 32 -8 l 1,17,-1
 32 32 l 1,14,-1
48 72 m 1,18,-1
 56 72 l 1,19,-1
 8 8 l 1,20,-1
 0 8 l 1,21,-1
 48 72 l 1,18,-1
EndSplineSet
EndChar

StartChar: arrowleft
Encoding: 8592 8592 593
Width: 64
Flags: W
HStem: 32 24<20 56>
LayerCount: 2
Fore
SplineSet
28 72 m 5,0,-1
 36 72 l 1,1,-1
 20 56 l 1,2,-1
 56 56 l 1,3,-1
 56 32 l 1,4,-1
 20 32 l 1,5,-1
 36 16 l 1,6,-1
 28 16 l 1,7,-1
 0 44 l 1,8,-1
 28 72 l 5,0,-1
EndSplineSet
EndChar

StartChar: arrowright
Encoding: 8594 8594 594
Width: 64
Flags: W
HStem: 32 24<0 36>
LayerCount: 2
Fore
SplineSet
28 72 m 1,0,-1
 56 44 l 1,1,-1
 28 16 l 1,2,-1
 20 16 l 1,3,-1
 36 32 l 1,4,-1
 0 32 l 1,5,-1
 0 56 l 1,6,-1
 36 56 l 1,7,-1
 20 72 l 1,8,-1
 28 72 l 1,0,-1
EndSplineSet
EndChar

StartChar: arrowup
Encoding: 8593 8593 595
Width: 64
Flags: MW
VStem: 16 24<8 60>
LayerCount: 2
Fore
SplineSet
16 8 m 5,0,-1
 16 60 l 1,1,-1
 0 44 l 1,2,-1
 0 52 l 1,3,-1
 28 80 l 1,4,-1
 56 52 l 1,5,-1
 56 44 l 1,6,-1
 40 60 l 1,7,-1
 40 8 l 1,8,-1
 16 8 l 5,0,-1
EndSplineSet
EndChar

StartChar: arrowdown
Encoding: 8595 8595 596
Width: 64
Flags: W
HStem: 0 80G<16 40>
VStem: 16 24<28 80>
LayerCount: 2
Fore
SplineSet
16 80 m 1,0,-1
 40 80 l 1,1,-1
 40 28 l 1,2,-1
 56 44 l 1,3,-1
 56 36 l 1,4,-1
 28 8 l 1,5,-1
 0 36 l 1,6,-1
 0 44 l 1,7,-1
 16 28 l 1,8,-1
 16 80 l 1,0,-1
EndSplineSet
EndChar

StartChar: arrowboth
Encoding: 8596 8596 597
Width: 64
Flags: W
HStem: 32 24<16 48>
LayerCount: 2
Fore
SplineSet
16 72 m 5,0,-1
 24 72 l 1,1,-1
 16 56 l 1,2,-1
 48 56 l 1,3,-1
 40 72 l 1,4,-1
 48 72 l 1,5,-1
 64 44 l 1,6,-1
 48 16 l 1,7,-1
 40 16 l 1,8,-1
 48 32 l 1,9,-1
 16 32 l 1,10,-1
 24 16 l 1,11,-1
 16 16 l 1,12,-1
 0 44 l 1,13,-1
 16 72 l 5,0,-1
EndSplineSet
EndChar

StartChar: arrowupdn
Encoding: 8597 8597 598
Width: 64
Flags: MW
VStem: 16 24<24 64>
LayerCount: 2
Fore
SplineSet
16 24 m 5,0,-1
 16 64 l 1,1,-1
 0 52 l 1,2,-1
 0 60 l 1,3,-1
 28 80 l 1,4,-1
 56 60 l 1,5,-1
 56 52 l 1,6,-1
 40 64 l 1,7,-1
 40 24 l 1,8,-1
 56 36 l 1,9,-1
 56 28 l 1,10,-1
 28 8 l 1,11,-1
 0 28 l 1,12,-1
 0 36 l 1,13,-1
 16 24 l 5,0,-1
EndSplineSet
EndChar

StartChar: arrowupdnbse
Encoding: 8616 8616 599
Width: 64
Flags: MW
HStem: -8 8<0 56>
VStem: 16 24<24 64>
LayerCount: 2
Fore
SplineSet
0 0 m 25,0,-1
 56 0 l 1,1,-1
 56 -8 l 1,2,-1
 0 -8 l 1,3,-1
 0 0 l 25,0,-1
16 24 m 1,4,-1
 16 64 l 1,5,-1
 0 52 l 1,6,-1
 0 60 l 1,7,-1
 28 80 l 1,8,-1
 56 60 l 1,9,-1
 56 52 l 1,10,-1
 40 64 l 1,11,-1
 40 24 l 1,12,-1
 56 36 l 1,13,-1
 56 28 l 1,14,-1
 28 8 l 1,15,-1
 0 28 l 1,16,-1
 0 36 l 1,17,-1
 16 24 l 1,4,-1
EndSplineSet
EndChar

StartChar: partialdiff
Encoding: 8706 8706 600
Width: 64
Flags: W
HStem: 0 8<16 40> 40 8<16 40> 72 8<8 28>
VStem: 0 16<12 36> 40 16<12 40 48 60>
LayerCount: 2
Fore
SplineSet
16 40 m 5,0,-1
 16 8 l 1,1,-1
 40 8 l 1,2,-1
 40 40 l 1,3,-1
 16 40 l 5,0,-1
36 80 m 5,4,-1
 56 60 l 1,5,-1
 56 48 l 1,6,-1
 56 12 l 1,7,-1
 44 0 l 1,8,-1
 12 0 l 1,9,-1
 0 12 l 1,10,-1
 0 36 l 1,11,-1
 12 48 l 1,12,-1
 40 48 l 1,13,-1
 40 60 l 1,14,-1
 28 72 l 1,15,-1
 8 72 l 1,16,-1
 8 80 l 1,17,-1
 36 80 l 5,4,-1
EndSplineSet
EndChar

StartChar: radical
Encoding: 8730 8730 607
Width: 64
Flags: MW
HStem: 72 8<32 56>
VStem: 16 16<16 72>
LayerCount: 2
Fore
SplineSet
0 16 m 1,0,-1
 0 32 l 1,1,-1
 16 16 l 1,2,-1
 16 80 l 1,3,-1
 56 80 l 1,4,-1
 56 72 l 1,5,-1
 32 72 l 1,6,-1
 32 0 l 1,7,-1
 16 0 l 1,8,-1
 0 16 l 1,0,-1
EndSplineSet
EndChar

StartChar: orthogonal
Encoding: 8735 8735 608
Width: 64
Flags: MW
HStem: 0 8<8 56>
VStem: 0 8<8 56>
LayerCount: 2
Fore
SplineSet
0 56 m 25,0,-1
 8 56 l 1,1,-1
 8 8 l 1,2,-1
 56 8 l 1,3,-1
 56 0 l 1,4,-1
 0 0 l 1,5,-1
 0 56 l 25,0,-1
EndSplineSet
EndChar

StartChar: infinity
Encoding: 8734 8734 609
Width: 64
Flags: W
HStem: 24 8<8 16 40 48> 48 8<8 16 40 48>
VStem: 0 8<32 48> 48 8<32 48>
LayerCount: 2
Fore
SplineSet
48 48 m 29,0,-1
 40 48 l 1,1,-1
 32 40 l 1,2,-1
 40 32 l 1,3,-1
 48 32 l 1,4,-1
 48 48 l 29,0,-1
16 48 m 5,5,-1
 8 48 l 1,6,-1
 8 32 l 1,7,-1
 16 32 l 1,8,-1
 24 40 l 1,9,-1
 16 48 l 5,5,-1
0 32 m 5,10,-1
 0 48 l 1,11,-1
 8 56 l 1,12,-1
 16 56 l 1,13,-1
 28 44 l 1,14,-1
 40 56 l 1,15,-1
 48 56 l 1,16,-1
 56 48 l 1,17,-1
 56 32 l 1,18,-1
 48 24 l 1,19,-1
 40 24 l 1,20,-1
 28 36 l 1,21,-1
 16 24 l 1,22,-1
 8 24 l 1,23,-1
 0 32 l 5,10,-1
EndSplineSet
EndChar

StartChar: intersection
Encoding: 8745 8745 610
Width: 64
Flags: MW
HStem: 72 8<24 32>
VStem: 8 8<0 64> 40 8<0 64>
LayerCount: 2
Fore
SplineSet
8 72 m 25,0,-1
 16 80 l 1,1,-1
 40 80 l 1,2,-1
 48 72 l 1,3,-1
 48 0 l 1,4,-1
 40 0 l 1,5,-1
 40 64 l 1,6,-1
 32 72 l 1,7,-1
 24 72 l 1,8,-1
 16 64 l 1,9,-1
 16 0 l 1,10,-1
 8 0 l 1,11,-1
 8 72 l 25,0,-1
EndSplineSet
EndChar

StartChar: integral
Encoding: 8747 8747 611
Width: 64
Flags: MW
HStem: -16 8<12 20> 88 8<36 44>
VStem: 0 8<-4 0> 24 8<-4 84> 48 8<80 84>
CounterMasks: 1 38
LayerCount: 2
Fore
SplineSet
0 0 m 5,0,-1
 8 0 l 1,1,-1
 8 -4 l 1,2,-1
 12 -8 l 1,3,-1
 20 -8 l 1,4,-1
 24 -4 l 1,5,-1
 24 88 l 1,6,-1
 32 96 l 1,7,-1
 48 96 l 1,8,-1
 56 88 l 1,9,-1
 56 80 l 1,10,-1
 48 80 l 1,11,-1
 48 84 l 1,12,-1
 44 88 l 1,13,-1
 36 88 l 1,14,-1
 32 84 l 1,15,-1
 32 -8 l 1,16,-1
 24 -16 l 1,17,-1
 8 -16 l 1,18,-1
 0 -8 l 1,19,-1
 0 0 l 5,0,-1
EndSplineSet
EndChar

StartChar: approxequal
Encoding: 8776 8776 612
Width: 64
Flags: MW
LayerCount: 2
Fore
SplineSet
8 16 m 25,0,-1
 24 32 l 1,1,-1
 40 16 l 1,2,-1
 56 32 l 1,3,-1
 56 16 l 1,4,-1
 40 0 l 1,5,-1
 24 16 l 1,6,-1
 8 0 l 1,7,-1
 8 16 l 25,0,-1
8 48 m 29,8,-1
 24 64 l 1,9,-1
 40 48 l 1,10,-1
 56 64 l 1,11,-1
 56 48 l 1,12,-1
 40 32 l 1,13,-1
 24 48 l 1,14,-1
 8 32 l 1,15,-1
 8 48 l 29,8,-1
EndSplineSet
EndChar

StartChar: notequal
Encoding: 8800 8800 613
Width: 64
Flags: W
HStem: 16 16<0 8 16 20 28 56> 40 16<0 28 36 40 48 56>
LayerCount: 2
Fore
SplineSet
48 64 m 1,0,-1
 56 64 l 1,1,-1
 48 56 l 1,2,-1
 56 56 l 1,3,-1
 56 40 l 1,4,-1
 36 40 l 1,5,-1
 28 32 l 1,6,-1
 56 32 l 1,7,-1
 56 16 l 1,8,-1
 16 16 l 1,9,-1
 8 8 l 1,10,-1
 0 8 l 1,11,-1
 8 16 l 1,12,-1
 0 16 l 1,13,-1
 0 32 l 1,14,-1
 20 32 l 1,15,-1
 28 40 l 1,16,-1
 0 40 l 1,17,-1
 0 56 l 1,18,-1
 40 56 l 1,19,-1
 48 64 l 1,0,-1
EndSplineSet
EndChar

StartChar: equivalence
Encoding: 8801 8801 614
Width: 64
Flags: W
HStem: 0 16<0 56> 24 16<0 56> 48 16<0 56>
VStem: 0 56<0 16 24 40 48 64>
CounterMasks: 1 e0
LayerCount: 2
Fore
SplineSet
0 64 m 5,0,-1
 56 64 l 1,1,-1
 56 48 l 1,2,-1
 0 48 l 1,3,-1
 0 64 l 5,0,-1
0 16 m 29,4,-1
 56 16 l 1,5,-1
 56 0 l 1,6,-1
 0 0 l 1,7,-1
 0 16 l 29,4,-1
0 40 m 5,8,-1
 56 40 l 1,9,-1
 56 24 l 1,10,-1
 0 24 l 1,11,-1
 0 40 l 5,8,-1
EndSplineSet
EndChar

StartChar: lessequal
Encoding: 8804 8804 615
Width: 64
Flags: MW
HStem: 0 16<0 48>
LayerCount: 2
Fore
SplineSet
0 16 m 29,0,-1
 48 16 l 1,1,-1
 48 0 l 1,2,-1
 0 0 l 1,3,-1
 0 16 l 29,0,-1
32 80 m 5,4,-1
 48 80 l 1,5,-1
 16 52 l 1,6,-1
 48 24 l 1,7,-1
 32 24 l 1,8,-1
 0 52 l 1,9,-1
 32 80 l 5,4,-1
EndSplineSet
EndChar

StartChar: greaterequal
Encoding: 8805 8805 616
Width: 64
Flags: MW
HStem: 0 16<0 48>
LayerCount: 2
Fore
SplineSet
48 16 m 25,0,-1
 48 0 l 1,1,-1
 0 0 l 1,2,-1
 0 16 l 1,3,-1
 48 16 l 25,0,-1
16 80 m 1,4,-1
 48 52 l 1,5,-1
 16 24 l 1,6,-1
 0 24 l 1,7,-1
 32 52 l 1,8,-1
 0 80 l 1,9,-1
 16 80 l 1,4,-1
EndSplineSet
EndChar

StartChar: house
Encoding: 8962 8962 617
Width: 64
Flags: MW
HStem: 0 8<8 48>
VStem: 0 8<8 52> 48 8<8 52>
LayerCount: 2
Fore
SplineSet
28 68 m 1,0,-1
 8 52 l 1,1,-1
 8 8 l 1,2,-1
 48 8 l 1,3,-1
 48 52 l 1,4,-1
 28 68 l 1,0,-1
0 0 m 25,5,-1
 0 56 l 1,6,-1
 28 80 l 1,7,-1
 56 56 l 1,8,-1
 56 0 l 1,9,-1
 0 0 l 25,5,-1
EndSplineSet
EndChar

StartChar: revlogicalnot
Encoding: 8976 8976 618
Width: 64
Flags: W
HStem: 40 16<0 16> 48 8<16 56>
VStem: 0 16<40 48>
LayerCount: 2
Fore
SplineSet
56 56 m 5,0,-1
 56 48 l 1,1,-1
 16 48 l 1,2,-1
 16 40 l 1,3,-1
 0 40 l 1,4,-1
 0 56 l 1,5,-1
 56 56 l 5,0,-1
EndSplineSet
EndChar

StartChar: integraltp
Encoding: 8992 8992 619
Width: 64
Flags: W
HStem: 80 84G<48 56> 88 8<36 44>
VStem: 24 8<-24 84> 48 8<80 84>
LayerCount: 2
Fore
SplineSet
32 84 m 9,0,-1
 32 -24 l 1,1,-1
 24 -24 l 1,2,-1
 24 88 l 1,3,-1
 32 96 l 1,4,-1
 48 96 l 1,5,-1
 56 88 l 1,6,-1
 56 80 l 1,7,-1
 48 80 l 1,8,-1
 48 84 l 1,9,-1
 44 88 l 1,10,-1
 36 88 l 1,11,-1
 32 84 l 9,0,-1
EndSplineSet
EndChar

StartChar: integralbt
Encoding: 8993 8993 620
Width: 64
Flags: W
HStem: -80 80G<0 8> -16 8<12 20>
VStem: 0 8<-4 0> 24 8<-4 104>
LayerCount: 2
Fore
SplineSet
32 104 m 5,0,-1
 32 -8 l 1,1,-1
 24 -16 l 1,2,-1
 8 -16 l 1,3,-1
 0 -8 l 1,4,-1
 0 0 l 1,5,-1
 8 0 l 1,6,-1
 8 -4 l 1,7,-1
 12 -8 l 1,8,-1
 20 -8 l 1,9,-1
 24 -4 l 1,10,-1
 24 104 l 1,11,-1
 32 104 l 5,0,-1
EndSplineSet
EndChar

StartChar: SF100000
Encoding: 9472 9472 621
Width: 64
Flags: W
HStem: 40 8<0 64>
LayerCount: 2
Fore
SplineSet
0 48 m 29,0,-1
 64 48 l 1,1,-1
 64 40 l 1,2,-1
 0 40 l 1,3,-1
 0 48 l 29,0,-1
EndSplineSet
EndChar

StartChar: SF110000
Encoding: 9474 9474 622
Width: 64
Flags: W
VStem: 24 8<-24 104>
LayerCount: 2
Fore
SplineSet
24 104 m 29,0,-1
 32 104 l 1,1,-1
 32 -24 l 1,2,-1
 24 -24 l 1,3,-1
 24 104 l 29,0,-1
EndSplineSet
EndChar

StartChar: SF010000
Encoding: 9484 9484 623
Width: 64
Flags: W
HStem: 40 8<32 64>
VStem: 24 8<-24 40>
LayerCount: 2
Fore
SplineSet
24 48 m 5,0,-1
 64 48 l 1,1,-1
 64 40 l 1,2,-1
 32 40 l 1,3,-1
 32 -24 l 1,4,-1
 24 -24 l 1,5,-1
 24 48 l 5,0,-1
EndSplineSet
EndChar

StartChar: SF030000
Encoding: 9488 9488 624
Width: 64
Flags: W
HStem: 40 8<0 24>
VStem: 24 8<-24 40>
LayerCount: 2
Fore
SplineSet
0 48 m 29,0,-1
 32 48 l 1,1,-1
 32 -24 l 1,2,-1
 24 -24 l 1,3,-1
 24 40 l 1,4,-1
 0 40 l 1,5,-1
 0 48 l 29,0,-1
EndSplineSet
EndChar

StartChar: SF020000
Encoding: 9492 9492 625
Width: 64
Flags: W
HStem: 40 8<32 64>
VStem: 24 8<48 104>
LayerCount: 2
Fore
SplineSet
24 104 m 25,0,-1
 32 104 l 1,1,-1
 32 48 l 1,2,-1
 64 48 l 1,3,-1
 64 40 l 1,4,-1
 24 40 l 1,5,-1
 24 104 l 25,0,-1
EndSplineSet
EndChar

StartChar: SF040000
Encoding: 9496 9496 626
Width: 64
Flags: W
HStem: 40 8<0 24>
VStem: 24 8<48 104>
LayerCount: 2
Fore
SplineSet
0 48 m 29,0,-1
 24 48 l 1,1,-1
 24 104 l 1,2,-1
 32 104 l 1,3,-1
 32 40 l 1,4,-1
 0 40 l 1,5,-1
 0 48 l 29,0,-1
EndSplineSet
EndChar

StartChar: SF080000
Encoding: 9500 9500 627
Width: 64
Flags: W
HStem: 40 8<32 64>
VStem: 24 8<-24 40 48 104>
LayerCount: 2
Fore
SplineSet
24 104 m 25,0,-1
 32 104 l 1,1,-1
 32 48 l 1,2,-1
 64 48 l 1,3,-1
 64 40 l 1,4,-1
 32 40 l 1,5,-1
 32 -24 l 1,6,-1
 24 -24 l 1,7,-1
 24 104 l 25,0,-1
EndSplineSet
EndChar

StartChar: SF090000
Encoding: 9508 9508 628
Width: 64
Flags: W
HStem: 40 8<0 24>
VStem: 24 8<-24 40 48 104>
LayerCount: 2
Fore
SplineSet
0 48 m 25,0,-1
 24 48 l 1,1,-1
 24 104 l 1,2,-1
 32 104 l 1,3,-1
 32 -24 l 1,4,-1
 24 -24 l 1,5,-1
 24 40 l 1,6,-1
 0 40 l 1,7,-1
 0 48 l 25,0,-1
EndSplineSet
EndChar

StartChar: SF060000
Encoding: 9516 9516 629
Width: 64
Flags: W
HStem: 40 8<0 24 32 64>
VStem: 24 8<-24 40>
LayerCount: 2
Fore
SplineSet
0 48 m 29,0,-1
 64 48 l 1,1,-1
 64 40 l 1,2,-1
 32 40 l 1,3,-1
 32 -24 l 1,4,-1
 24 -24 l 1,5,-1
 24 40 l 1,6,-1
 0 40 l 1,7,-1
 0 48 l 29,0,-1
EndSplineSet
EndChar

StartChar: SF070000
Encoding: 9524 9524 630
Width: 64
Flags: W
HStem: 40 8<0 24 32 64>
VStem: 24 8<48 104>
LayerCount: 2
Fore
SplineSet
0 48 m 29,0,-1
 24 48 l 1,1,-1
 24 104 l 1,2,-1
 32 104 l 1,3,-1
 32 48 l 1,4,-1
 64 48 l 1,5,-1
 64 40 l 1,6,-1
 0 40 l 1,7,-1
 0 48 l 29,0,-1
EndSplineSet
EndChar

StartChar: SF050000
Encoding: 9532 9532 631
Width: 64
Flags: W
HStem: 40 8<0 24 32 64>
VStem: 24 8<-24 40 48 104>
LayerCount: 2
Fore
SplineSet
0 48 m 29,0,-1
 24 48 l 1,1,-1
 24 104 l 1,2,-1
 32 104 l 1,3,-1
 32 48 l 1,4,-1
 64 48 l 1,5,-1
 64 40 l 1,6,-1
 32 40 l 1,7,-1
 32 -24 l 1,8,-1
 24 -24 l 1,9,-1
 24 40 l 1,10,-1
 0 40 l 1,11,-1
 0 48 l 29,0,-1
EndSplineSet
EndChar

StartChar: SF430000
Encoding: 9552 9552 632
Width: 64
Flags: W
HStem: 32 8<0 64> 48 8<0 64>
LayerCount: 2
Fore
SplineSet
0 40 m 1,0,-1
 64 40 l 1,1,-1
 64 32 l 1,2,-1
 0 32 l 1,3,-1
 0 40 l 1,0,-1
0 56 m 29,4,-1
 64 56 l 1,5,-1
 64 48 l 1,6,-1
 0 48 l 1,7,-1
 0 56 l 29,4,-1
EndSplineSet
EndChar

StartChar: SF240000
Encoding: 9553 9553 633
Width: 64
Flags: W
VStem: 16 8<-24 104> 32 8<-24 104>
LayerCount: 2
Fore
SplineSet
32 104 m 25,0,-1
 40 104 l 1,1,-1
 40 -24 l 1,2,-1
 32 -24 l 1,3,-1
 32 104 l 25,0,-1
16 104 m 25,4,-1
 24 104 l 1,5,-1
 24 -24 l 1,6,-1
 16 -24 l 1,7,-1
 16 104 l 25,4,-1
EndSplineSet
EndChar

StartChar: SF510000
Encoding: 9554 9554 634
Width: 64
Flags: W
HStem: 32 8<32 64> 48 8<32 64>
VStem: 24 8<-24 32 40 48>
LayerCount: 2
Fore
SplineSet
24 56 m 29,0,-1
 64 56 l 1,1,-1
 64 48 l 1,2,-1
 32 48 l 1,3,-1
 32 40 l 1,4,-1
 64 40 l 1,5,-1
 64 32 l 1,6,-1
 32 32 l 1,7,-1
 32 -24 l 1,8,-1
 24 -24 l 1,9,-1
 24 56 l 29,0,-1
EndSplineSet
EndChar

StartChar: SF520000
Encoding: 9555 9555 635
Width: 64
Flags: W
HStem: 40 8<24 32 40 64>
VStem: 16 8<-24 40> 32 8<-24 40>
LayerCount: 2
Fore
SplineSet
16 48 m 29,0,-1
 64 48 l 1,1,-1
 64 40 l 1,2,-1
 40 40 l 1,3,-1
 40 -24 l 1,4,-1
 32 -24 l 1,5,-1
 32 40 l 1,6,-1
 24 40 l 1,7,-1
 24 -24 l 1,8,-1
 16 -24 l 1,9,-1
 16 48 l 29,0,-1
EndSplineSet
EndChar

StartChar: SF390000
Encoding: 9556 9556 636
Width: 64
Flags: W
HStem: 32 8<40 64> 48 8<24 64>
VStem: 16 8<-24 48> 32 8<-24 32>
LayerCount: 2
Fore
SplineSet
32 -24 m 25,0,-1
 32 40 l 1,1,-1
 64 40 l 1,2,-1
 64 32 l 1,3,-1
 40 32 l 1,4,-1
 40 -24 l 1,5,-1
 32 -24 l 25,0,-1
16 -24 m 25,6,-1
 16 56 l 1,7,-1
 64 56 l 1,8,-1
 64 48 l 1,9,-1
 24 48 l 1,10,-1
 24 -24 l 1,11,-1
 16 -24 l 25,6,-1
EndSplineSet
EndChar

StartChar: SF220000
Encoding: 9557 9557 637
Width: 64
Flags: W
HStem: 32 8<0 24> 48 8<0 24>
VStem: 24 8<-24 32 40 48>
LayerCount: 2
Fore
SplineSet
0 56 m 25,0,-1
 32 56 l 1,1,-1
 32 -24 l 1,2,-1
 24 -24 l 1,3,-1
 24 32 l 1,4,-1
 0 32 l 1,5,-1
 0 40 l 1,6,-1
 24 40 l 1,7,-1
 24 48 l 1,8,-1
 0 48 l 1,9,-1
 0 56 l 25,0,-1
EndSplineSet
EndChar

StartChar: SF210000
Encoding: 9558 9558 638
Width: 64
Flags: W
HStem: 40 8<0 16 24 32>
VStem: 16 8<-24 40> 32 8<-24 40>
LayerCount: 2
Fore
SplineSet
0 48 m 25,0,-1
 40 48 l 1,1,-1
 40 -24 l 1,2,-1
 32 -24 l 1,3,-1
 32 40 l 1,4,-1
 24 40 l 1,5,-1
 24 -24 l 1,6,-1
 16 -24 l 1,7,-1
 16 40 l 1,8,-1
 0 40 l 1,9,-1
 0 48 l 25,0,-1
EndSplineSet
EndChar

StartChar: SF250000
Encoding: 9559 9559 639
Width: 64
Flags: W
HStem: 32 8<0 16> 48 8<0 32>
VStem: 16 8<-24 32> 32 8<-24 48>
LayerCount: 2
Fore
SplineSet
0 40 m 29,0,-1
 24 40 l 1,1,-1
 24 -24 l 1,2,-1
 16 -24 l 1,3,-1
 16 32 l 1,4,-1
 0 32 l 1,5,-1
 0 40 l 29,0,-1
0 56 m 25,6,-1
 40 56 l 1,7,-1
 40 -24 l 1,8,-1
 32 -24 l 1,9,-1
 32 48 l 1,10,-1
 0 48 l 1,11,-1
 0 56 l 25,6,-1
EndSplineSet
EndChar

StartChar: SF500000
Encoding: 9560 9560 640
Width: 64
Flags: W
HStem: 32 8<32 64> 48 8<32 64>
VStem: 24 8<40 48 56 104>
LayerCount: 2
Fore
SplineSet
24 104 m 29,0,-1
 32 104 l 1,1,-1
 32 56 l 1,2,-1
 64 56 l 1,3,-1
 64 48 l 1,4,-1
 32 48 l 1,5,-1
 32 40 l 1,6,-1
 64 40 l 1,7,-1
 64 32 l 1,8,-1
 24 32 l 1,9,-1
 24 104 l 29,0,-1
EndSplineSet
EndChar

StartChar: SF490000
Encoding: 9561 9561 641
Width: 64
Flags: W
HStem: 40 8<24 32 40 64>
VStem: 16 8<48 104> 32 8<48 104>
LayerCount: 2
Fore
SplineSet
16 104 m 29,0,-1
 24 104 l 1,1,-1
 24 48 l 1,2,-1
 32 48 l 1,3,-1
 32 104 l 1,4,-1
 40 104 l 1,5,-1
 40 48 l 1,6,-1
 64 48 l 1,7,-1
 64 40 l 1,8,-1
 16 40 l 1,9,-1
 16 104 l 29,0,-1
EndSplineSet
EndChar

StartChar: SF380000
Encoding: 9562 9562 642
Width: 64
Flags: W
HStem: 32 8<24 64> 48 8<40 64>
VStem: 16 8<40 104> 32 8<56 104>
LayerCount: 2
Fore
SplineSet
32 104 m 25,0,-1
 40 104 l 1,1,-1
 40 56 l 1,2,-1
 64 56 l 1,3,-1
 64 48 l 1,4,-1
 32 48 l 1,5,-1
 32 104 l 25,0,-1
16 104 m 25,6,-1
 24 104 l 1,7,-1
 24 40 l 1,8,-1
 64 40 l 1,9,-1
 64 32 l 1,10,-1
 16 32 l 1,11,-1
 16 104 l 25,6,-1
EndSplineSet
EndChar

StartChar: SF280000
Encoding: 9563 9563 643
Width: 64
Flags: W
HStem: 32 8<0 24> 48 8<0 24>
VStem: 24 8<40 48 56 104>
LayerCount: 2
Fore
SplineSet
0 56 m 25,0,-1
 24 56 l 1,1,-1
 24 104 l 1,2,-1
 32 104 l 1,3,-1
 32 32 l 1,4,-1
 0 32 l 1,5,-1
 0 40 l 1,6,-1
 24 40 l 1,7,-1
 24 48 l 1,8,-1
 0 48 l 1,9,-1
 0 56 l 25,0,-1
EndSplineSet
EndChar

StartChar: SF270000
Encoding: 9564 9564 644
Width: 64
Flags: W
HStem: 40 8<0 16 24 32>
VStem: 16 8<48 104> 32 8<48 104>
LayerCount: 2
Fore
SplineSet
0 48 m 29,0,-1
 16 48 l 1,1,-1
 16 104 l 1,2,-1
 24 104 l 1,3,-1
 24 48 l 1,4,-1
 32 48 l 1,5,-1
 32 104 l 1,6,-1
 40 104 l 1,7,-1
 40 40 l 1,8,-1
 0 40 l 1,9,-1
 0 48 l 29,0,-1
EndSplineSet
EndChar

StartChar: SF260000
Encoding: 9565 9565 645
Width: 64
Flags: W
HStem: 32 8<0 32> 48 8<0 16>
VStem: 16 8<56 104> 32 8<40 104>
LayerCount: 2
Fore
SplineSet
0 40 m 29,0,-1
 32 40 l 1,1,-1
 32 104 l 1,2,-1
 40 104 l 1,3,-1
 40 32 l 1,4,-1
 0 32 l 1,5,-1
 0 40 l 29,0,-1
0 56 m 25,6,-1
 16 56 l 1,7,-1
 16 104 l 1,8,-1
 24 104 l 1,9,-1
 24 48 l 1,10,-1
 0 48 l 1,11,-1
 0 56 l 25,6,-1
EndSplineSet
EndChar

StartChar: SF360000
Encoding: 9566 9566 646
Width: 64
Flags: W
HStem: 32 8<32 64> 48 8<32 64>
VStem: 24 8<-24 32 40 48 56 104>
LayerCount: 2
Fore
SplineSet
24 104 m 29,0,-1
 32 104 l 1,1,-1
 32 56 l 1,2,-1
 64 56 l 1,3,-1
 64 48 l 1,4,-1
 32 48 l 1,5,-1
 32 40 l 1,6,-1
 64 40 l 1,7,-1
 64 32 l 1,8,-1
 32 32 l 1,9,-1
 32 -24 l 1,10,-1
 24 -24 l 1,11,-1
 24 104 l 29,0,-1
EndSplineSet
EndChar

StartChar: SF370000
Encoding: 9567 9567 647
Width: 64
Flags: W
HStem: 40 8<40 64>
VStem: 16 8<-24 104> 32 8<-24 40 48 104>
LayerCount: 2
Fore
SplineSet
32 104 m 25,0,-1
 40 104 l 1,1,-1
 40 48 l 1,2,-1
 64 48 l 1,3,-1
 64 40 l 1,4,-1
 40 40 l 1,5,-1
 40 -24 l 1,6,-1
 32 -24 l 1,7,-1
 32 104 l 25,0,-1
16 104 m 25,8,-1
 24 104 l 1,9,-1
 24 -24 l 1,10,-1
 16 -24 l 1,11,-1
 16 104 l 25,8,-1
EndSplineSet
EndChar

StartChar: SF420000
Encoding: 9568 9568 648
Width: 64
Flags: W
HStem: 32 8<40 64> 48 8<40 64>
VStem: 16 8<-24 104> 32 8<-24 32 56 104>
LayerCount: 2
Fore
SplineSet
32 40 m 1,0,-1
 64 40 l 1,1,-1
 64 32 l 1,2,-1
 40 32 l 1,3,-1
 40 -24 l 1,4,-1
 32 -24 l 1,5,-1
 32 40 l 1,0,-1
32 104 m 29,6,-1
 40 104 l 1,7,-1
 40 56 l 1,8,-1
 64 56 l 1,9,-1
 64 48 l 1,10,-1
 32 48 l 1,11,-1
 32 104 l 29,6,-1
16 104 m 29,12,-1
 24 104 l 1,13,-1
 24 -24 l 1,14,-1
 16 -24 l 1,15,-1
 16 104 l 29,12,-1
EndSplineSet
EndChar

StartChar: SF190000
Encoding: 9569 9569 649
Width: 64
Flags: W
HStem: 32 8<0 24> 48 8<0 24>
VStem: 24 8<-24 32 40 48 56 104>
LayerCount: 2
Fore
SplineSet
0 56 m 25,0,-1
 24 56 l 1,1,-1
 24 104 l 1,2,-1
 32 104 l 1,3,-1
 32 -24 l 1,4,-1
 24 -24 l 1,5,-1
 24 32 l 1,6,-1
 0 32 l 1,7,-1
 0 40 l 1,8,-1
 24 40 l 1,9,-1
 24 48 l 1,10,-1
 0 48 l 1,11,-1
 0 56 l 25,0,-1
EndSplineSet
EndChar

StartChar: SF200000
Encoding: 9570 9570 650
Width: 64
Flags: MW
HStem: 40 8<0 16>
VStem: 16 8<-24 40 48 104> 32 8<-24 104>
LayerCount: 2
Fore
SplineSet
32 104 m 29,0,-1
 40 104 l 1,1,-1
 40 -24 l 1,2,-1
 32 -24 l 1,3,-1
 32 104 l 29,0,-1
0 48 m 25,4,-1
 16 48 l 1,5,-1
 16 104 l 1,6,-1
 24 104 l 1,7,-1
 24 -24 l 1,8,-1
 16 -24 l 1,9,-1
 16 40 l 1,10,-1
 0 40 l 1,11,-1
 0 48 l 25,4,-1
EndSplineSet
EndChar

StartChar: SF230000
Encoding: 9571 9571 651
Width: 64
Flags: MW
HStem: 32 8<0 16> 48 8<0 16>
VStem: 16 8<-24 32 56 104> 32 8<-24 104>
LayerCount: 2
Fore
SplineSet
32 104 m 29,0,-1
 40 104 l 1,1,-1
 40 -24 l 1,2,-1
 32 -24 l 1,3,-1
 32 104 l 29,0,-1
0 40 m 25,4,-1
 24 40 l 1,5,-1
 24 -24 l 1,6,-1
 16 -24 l 1,7,-1
 16 32 l 1,8,-1
 0 32 l 1,9,-1
 0 40 l 25,4,-1
0 56 m 25,10,-1
 16 56 l 1,11,-1
 16 104 l 1,12,-1
 24 104 l 1,13,-1
 24 48 l 1,14,-1
 0 48 l 1,15,-1
 0 56 l 25,10,-1
EndSplineSet
EndChar

StartChar: SF470000
Encoding: 9572 9572 652
Width: 64
Flags: MW
HStem: 32 8<0 24 32 64> 48 8<0 64>
VStem: 24 8<-24 32>
LayerCount: 2
Fore
SplineSet
0 40 m 25,0,-1
 64 40 l 1,1,-1
 64 32 l 1,2,-1
 32 32 l 1,3,-1
 32 -24 l 1,4,-1
 24 -24 l 1,5,-1
 24 32 l 1,6,-1
 0 32 l 1,7,-1
 0 40 l 25,0,-1
0 56 m 25,8,-1
 64 56 l 1,9,-1
 64 48 l 1,10,-1
 0 48 l 1,11,-1
 0 56 l 25,8,-1
EndSplineSet
EndChar

StartChar: SF480000
Encoding: 9573 9573 653
Width: 64
Flags: W
HStem: 40 8<0 16 24 32 40 64>
VStem: 16 8<-24 40> 32 8<-24 40>
LayerCount: 2
Fore
SplineSet
0 48 m 29,0,-1
 64 48 l 1,1,-1
 64 40 l 1,2,-1
 40 40 l 1,3,-1
 40 -24 l 1,4,-1
 32 -24 l 1,5,-1
 32 40 l 1,6,-1
 24 40 l 1,7,-1
 24 -24 l 1,8,-1
 16 -24 l 1,9,-1
 16 40 l 1,10,-1
 0 40 l 1,11,-1
 0 48 l 29,0,-1
EndSplineSet
EndChar

StartChar: SF410000
Encoding: 9574 9574 654
Width: 64
Flags: MW
HStem: 32 8<0 16 40 64> 48 8<0 64>
VStem: 16 8<-24 32> 32 8<-24 32>
LayerCount: 2
Fore
SplineSet
32 40 m 25,0,-1
 64 40 l 1,1,-1
 64 32 l 1,2,-1
 40 32 l 1,3,-1
 40 -24 l 1,4,-1
 32 -24 l 1,5,-1
 32 40 l 25,0,-1
0 40 m 25,6,-1
 24 40 l 1,7,-1
 24 -24 l 1,8,-1
 16 -24 l 1,9,-1
 16 32 l 1,10,-1
 0 32 l 1,11,-1
 0 40 l 25,6,-1
0 56 m 5,12,-1
 64 56 l 1,13,-1
 64 48 l 1,14,-1
 0 48 l 1,15,-1
 0 56 l 5,12,-1
EndSplineSet
EndChar

StartChar: SF450000
Encoding: 9575 9575 655
Width: 64
Flags: W
HStem: 32 8<0 64> 48 8<0 24 32 64>
VStem: 24 8<56 104>
LayerCount: 2
Fore
SplineSet
0 40 m 29,0,-1
 64 40 l 1,1,-1
 64 32 l 1,2,-1
 0 32 l 1,3,-1
 0 40 l 29,0,-1
0 56 m 25,4,-1
 24 56 l 1,5,-1
 24 104 l 1,6,-1
 32 104 l 1,7,-1
 32 56 l 1,8,-1
 64 56 l 1,9,-1
 64 48 l 1,10,-1
 0 48 l 1,11,-1
 0 56 l 25,4,-1
EndSplineSet
EndChar

StartChar: SF460000
Encoding: 9576 9576 656
Width: 64
Flags: W
HStem: 40 8<0 16 24 32 40 64>
VStem: 16 8<48 104> 32 8<48 104>
LayerCount: 2
Fore
SplineSet
0 48 m 29,0,-1
 16 48 l 1,1,-1
 16 104 l 1,2,-1
 24 104 l 1,3,-1
 24 48 l 1,4,-1
 32 48 l 1,5,-1
 32 104 l 1,6,-1
 40 104 l 1,7,-1
 40 48 l 1,8,-1
 64 48 l 1,9,-1
 64 40 l 1,10,-1
 0 40 l 1,11,-1
 0 48 l 29,0,-1
EndSplineSet
EndChar

StartChar: SF400000
Encoding: 9577 9577 657
Width: 64
Flags: W
HStem: 32 8<0 64> 48 8<0 16 40 64>
VStem: 16 8<56 104> 32 8<56 104>
LayerCount: 2
Fore
SplineSet
0 40 m 25,0,-1
 64 40 l 1,1,-1
 64 32 l 1,2,-1
 0 32 l 1,3,-1
 0 40 l 25,0,-1
32 104 m 29,4,-1
 40 104 l 1,5,-1
 40 56 l 1,6,-1
 64 56 l 1,7,-1
 64 48 l 1,8,-1
 32 48 l 1,9,-1
 32 104 l 29,4,-1
0 56 m 25,10,-1
 16 56 l 1,11,-1
 16 104 l 1,12,-1
 24 104 l 1,13,-1
 24 48 l 1,14,-1
 0 48 l 1,15,-1
 0 56 l 25,10,-1
EndSplineSet
EndChar

StartChar: SF540000
Encoding: 9578 9578 658
Width: 64
Flags: W
HStem: 32 8<0 24 32 64> 48 8<0 24 32 64>
VStem: 24 8<-24 32 40 48 56 104>
LayerCount: 2
Fore
SplineSet
24 104 m 29,0,-1
 32 104 l 1,1,-1
 32 56 l 1,2,-1
 64 56 l 1,3,-1
 64 48 l 1,4,-1
 32 48 l 1,5,-1
 32 40 l 1,6,-1
 64 40 l 1,7,-1
 64 32 l 1,8,-1
 32 32 l 1,9,-1
 32 -24 l 1,10,-1
 24 -24 l 1,11,-1
 24 32 l 1,12,-1
 0 32 l 1,13,-1
 0 40 l 1,14,-1
 24 40 l 1,15,-1
 24 48 l 1,16,-1
 0 48 l 1,17,-1
 0 56 l 1,18,-1
 24 56 l 1,19,-1
 24 104 l 29,0,-1
EndSplineSet
EndChar

StartChar: SF530000
Encoding: 9579 9579 659
Width: 64
Flags: W
HStem: 40 8<0 16 24 32 40 64>
VStem: 16 8<-24 40 48 104> 32 8<-24 40 48 104>
LayerCount: 2
Fore
SplineSet
0 48 m 29,0,-1
 16 48 l 1,1,-1
 16 104 l 1,2,-1
 24 104 l 1,3,-1
 24 48 l 1,4,-1
 32 48 l 1,5,-1
 32 104 l 1,6,-1
 40 104 l 1,7,-1
 40 48 l 1,8,-1
 64 48 l 1,9,-1
 64 40 l 1,10,-1
 40 40 l 1,11,-1
 40 -24 l 1,12,-1
 32 -24 l 1,13,-1
 32 40 l 1,14,-1
 24 40 l 1,15,-1
 24 -24 l 1,16,-1
 16 -24 l 1,17,-1
 16 40 l 1,18,-1
 0 40 l 1,19,-1
 0 48 l 29,0,-1
EndSplineSet
EndChar

StartChar: SF440000
Encoding: 9580 9580 660
Width: 64
Flags: MW
HStem: 32 8<0 16 40 64> 48 8<0 16 40 64>
VStem: 16 8<-24 32 56 104> 32 8<-24 32 56 104>
LayerCount: 2
Fore
SplineSet
32 40 m 29,0,-1
 64 40 l 1,1,-1
 64 32 l 1,2,-1
 40 32 l 1,3,-1
 40 -24 l 1,4,-1
 32 -24 l 1,5,-1
 32 40 l 29,0,-1
0 40 m 25,6,-1
 24 40 l 1,7,-1
 24 -24 l 1,8,-1
 16 -24 l 1,9,-1
 16 32 l 1,10,-1
 0 32 l 1,11,-1
 0 40 l 25,6,-1
32 104 m 25,12,-1
 40 104 l 1,13,-1
 40 56 l 1,14,-1
 64 56 l 1,15,-1
 64 48 l 1,16,-1
 32 48 l 1,17,-1
 32 104 l 25,12,-1
0 56 m 25,18,-1
 16 56 l 1,19,-1
 16 104 l 1,20,-1
 24 104 l 1,21,-1
 24 48 l 1,22,-1
 0 48 l 1,23,-1
 0 56 l 25,18,-1
EndSplineSet
EndChar

StartChar: upblock
Encoding: 9600 9600 661
Width: 64
Flags: W
HStem: 40 64<0 64>
VStem: 0 64<40 104>
LayerCount: 2
Fore
SplineSet
0 104 m 25,0,-1
 64 104 l 1,1,-1
 64 40 l 1,2,-1
 0 40 l 1,3,-1
 0 104 l 25,0,-1
EndSplineSet
EndChar

StartChar: dnblock
Encoding: 9604 9604 662
Width: 64
Flags: W
HStem: -24 64<0 64>
VStem: 0 64<-24 40>
LayerCount: 2
Fore
SplineSet
0 40 m 29,0,-1
 64 40 l 1,1,-1
 64 -24 l 1,2,-1
 0 -24 l 1,3,-1
 0 40 l 29,0,-1
EndSplineSet
EndChar

StartChar: block
Encoding: 9608 9608 663
Width: 64
Flags: W
VStem: 0 64<-24 104>
LayerCount: 2
Fore
SplineSet
0 104 m 29,0,-1
 64 104 l 1,1,-1
 64 -24 l 1,2,-1
 0 -24 l 1,3,-1
 0 104 l 29,0,-1
EndSplineSet
EndChar

StartChar: lfblock
Encoding: 9612 9612 664
Width: 64
Flags: W
VStem: 0 32<-24 104>
LayerCount: 2
Fore
SplineSet
0 104 m 25,0,-1
 32 104 l 1,1,-1
 32 -24 l 1,2,-1
 0 -24 l 1,3,-1
 0 104 l 25,0,-1
EndSplineSet
EndChar

StartChar: rtblock
Encoding: 9616 9616 665
Width: 64
Flags: W
VStem: 32 32<-24 104>
LayerCount: 2
Fore
SplineSet
32 104 m 25,0,-1
 64 104 l 1,1,-1
 64 -24 l 1,2,-1
 32 -24 l 1,3,-1
 32 104 l 25,0,-1
EndSplineSet
EndChar

StartChar: ltshade
Encoding: 9617 9617 666
Width: 64
Flags: W
HStem: -16 8<0 8 16 24 32 40 48 56> 0 8<0 8 16 24 32 40 48 56> 16 8<0 8 16 24 32 40 48 56> 32 8<0 8 16 24 32 40 48 56> 48 8<0 8 16 24 32 40 48 56> 64 8<0 8 16 24 32 40 48 56> 80 8<0 8 16 24 32 40 48 56> 96 8<0 8 16 24 32 40 48 56>
VStem: 0 8<-16 -8 0 8 16 24 32 40 48 56 64 72 80 88 96 104> 16 8<-16 -8 0 8 16 24 32 40 48 56 64 72 80 88 96 104> 32 8<-16 -8 0 8 16 24 32 40 48 56 64 72 80 88 96 104> 48 8<-16 -8 0 8 16 24 32 40 48 56 64 72 80 88 96 104>
LayerCount: 2
Fore
SplineSet
48 -8 m 29,0,-1
 56 -8 l 1,1,-1
 56 -16 l 1,2,-1
 48 -16 l 1,3,-1
 48 -8 l 29,0,-1
32 -8 m 29,4,-1
 40 -8 l 1,5,-1
 40 -16 l 1,6,-1
 32 -16 l 1,7,-1
 32 -8 l 29,4,-1
16 -8 m 29,8,-1
 24 -8 l 1,9,-1
 24 -16 l 1,10,-1
 16 -16 l 1,11,-1
 16 -8 l 29,8,-1
0 -8 m 29,12,-1
 8 -8 l 1,13,-1
 8 -16 l 1,14,-1
 0 -16 l 1,15,-1
 0 -8 l 29,12,-1
48 8 m 29,16,-1
 56 8 l 1,17,-1
 56 0 l 1,18,-1
 48 0 l 1,19,-1
 48 8 l 29,16,-1
32 8 m 29,20,-1
 40 8 l 1,21,-1
 40 0 l 1,22,-1
 32 0 l 1,23,-1
 32 8 l 29,20,-1
16 8 m 29,24,-1
 24 8 l 1,25,-1
 24 0 l 1,26,-1
 16 0 l 1,27,-1
 16 8 l 29,24,-1
0 8 m 29,28,-1
 8 8 l 1,29,-1
 8 0 l 1,30,-1
 0 0 l 1,31,-1
 0 8 l 29,28,-1
48 24 m 29,32,-1
 56 24 l 1,33,-1
 56 16 l 1,34,-1
 48 16 l 1,35,-1
 48 24 l 29,32,-1
32 24 m 29,36,-1
 40 24 l 1,37,-1
 40 16 l 1,38,-1
 32 16 l 1,39,-1
 32 24 l 29,36,-1
16 24 m 29,40,-1
 24 24 l 1,41,-1
 24 16 l 1,42,-1
 16 16 l 1,43,-1
 16 24 l 29,40,-1
0 24 m 29,44,-1
 8 24 l 1,45,-1
 8 16 l 1,46,-1
 0 16 l 1,47,-1
 0 24 l 29,44,-1
48 40 m 29,48,-1
 56 40 l 1,49,-1
 56 32 l 1,50,-1
 48 32 l 1,51,-1
 48 40 l 29,48,-1
32 40 m 29,52,-1
 40 40 l 1,53,-1
 40 32 l 1,54,-1
 32 32 l 1,55,-1
 32 40 l 29,52,-1
16 40 m 29,56,-1
 24 40 l 1,57,-1
 24 32 l 1,58,-1
 16 32 l 1,59,-1
 16 40 l 29,56,-1
0 40 m 29,60,-1
 8 40 l 1,61,-1
 8 32 l 1,62,-1
 0 32 l 1,63,-1
 0 40 l 29,60,-1
48 56 m 29,64,-1
 56 56 l 1,65,-1
 56 48 l 1,66,-1
 48 48 l 1,67,-1
 48 56 l 29,64,-1
32 56 m 29,68,-1
 40 56 l 1,69,-1
 40 48 l 1,70,-1
 32 48 l 1,71,-1
 32 56 l 29,68,-1
16 56 m 29,72,-1
 24 56 l 1,73,-1
 24 48 l 1,74,-1
 16 48 l 1,75,-1
 16 56 l 29,72,-1
0 56 m 29,76,-1
 8 56 l 1,77,-1
 8 48 l 1,78,-1
 0 48 l 1,79,-1
 0 56 l 29,76,-1
48 72 m 29,80,-1
 56 72 l 1,81,-1
 56 64 l 1,82,-1
 48 64 l 1,83,-1
 48 72 l 29,80,-1
32 72 m 29,84,-1
 40 72 l 1,85,-1
 40 64 l 1,86,-1
 32 64 l 1,87,-1
 32 72 l 29,84,-1
16 72 m 29,88,-1
 24 72 l 1,89,-1
 24 64 l 1,90,-1
 16 64 l 1,91,-1
 16 72 l 29,88,-1
0 72 m 29,92,-1
 8 72 l 1,93,-1
 8 64 l 1,94,-1
 0 64 l 1,95,-1
 0 72 l 29,92,-1
48 88 m 29,96,-1
 56 88 l 1,97,-1
 56 80 l 1,98,-1
 48 80 l 1,99,-1
 48 88 l 29,96,-1
32 88 m 29,100,-1
 40 88 l 1,101,-1
 40 80 l 1,102,-1
 32 80 l 1,103,-1
 32 88 l 29,100,-1
16 88 m 29,104,-1
 24 88 l 1,105,-1
 24 80 l 1,106,-1
 16 80 l 1,107,-1
 16 88 l 29,104,-1
0 88 m 29,108,-1
 8 88 l 1,109,-1
 8 80 l 1,110,-1
 0 80 l 1,111,-1
 0 88 l 29,108,-1
48 104 m 29,112,-1
 56 104 l 1,113,-1
 56 96 l 1,114,-1
 48 96 l 1,115,-1
 48 104 l 29,112,-1
32 104 m 29,116,-1
 40 104 l 1,117,-1
 40 96 l 1,118,-1
 32 96 l 1,119,-1
 32 104 l 29,116,-1
16 104 m 29,120,-1
 24 104 l 1,121,-1
 24 96 l 1,122,-1
 16 96 l 1,123,-1
 16 104 l 29,120,-1
0 104 m 29,124,-1
 8 104 l 1,125,-1
 8 96 l 1,126,-1
 0 96 l 1,127,-1
 0 104 l 29,124,-1
EndSplineSet
EndChar

StartChar: shade
Encoding: 9618 9618 667
Width: 64
Flags: MW
LayerCount: 2
Fore
SplineSet
56 -16 m 29,0,-1
 64 -16 l 1,1,-1
 64 -24 l 1,2,-1
 56 -24 l 1,3,-1
 56 -16 l 29,0,-1
40 -16 m 25,4,-1
 48 -16 l 1,5,-1
 48 -24 l 1,6,-1
 40 -24 l 1,7,-1
 40 -16 l 25,4,-1
24 -16 m 25,8,-1
 32 -16 l 1,9,-1
 32 -24 l 1,10,-1
 24 -24 l 1,11,-1
 24 -16 l 25,8,-1
8 -16 m 25,12,-1
 16 -16 l 1,13,-1
 16 -24 l 1,14,-1
 8 -24 l 1,15,-1
 8 -16 l 25,12,-1
56 0 m 25,16,-1
 64 0 l 1,17,-1
 64 -8 l 1,18,-1
 56 -8 l 1,19,-1
 56 0 l 25,16,-1
40 0 m 25,20,-1
 48 0 l 1,21,-1
 48 -8 l 1,22,-1
 40 -8 l 1,23,-1
 40 0 l 25,20,-1
24 0 m 25,24,-1
 32 0 l 1,25,-1
 32 -8 l 1,26,-1
 24 -8 l 1,27,-1
 24 0 l 25,24,-1
8 0 m 25,28,-1
 16 0 l 1,29,-1
 16 -8 l 1,30,-1
 8 -8 l 1,31,-1
 8 0 l 25,28,-1
56 16 m 25,32,-1
 64 16 l 1,33,-1
 64 8 l 1,34,-1
 56 8 l 1,35,-1
 56 16 l 25,32,-1
40 16 m 25,36,-1
 48 16 l 1,37,-1
 48 8 l 1,38,-1
 40 8 l 1,39,-1
 40 16 l 25,36,-1
24 16 m 25,40,-1
 32 16 l 1,41,-1
 32 8 l 1,42,-1
 24 8 l 1,43,-1
 24 16 l 25,40,-1
8 16 m 25,44,-1
 16 16 l 1,45,-1
 16 8 l 1,46,-1
 8 8 l 1,47,-1
 8 16 l 25,44,-1
56 32 m 25,48,-1
 64 32 l 1,49,-1
 64 24 l 1,50,-1
 56 24 l 1,51,-1
 56 32 l 25,48,-1
40 32 m 25,52,-1
 48 32 l 1,53,-1
 48 24 l 1,54,-1
 40 24 l 1,55,-1
 40 32 l 25,52,-1
24 32 m 25,56,-1
 32 32 l 1,57,-1
 32 24 l 1,58,-1
 24 24 l 1,59,-1
 24 32 l 25,56,-1
8 32 m 25,60,-1
 16 32 l 1,61,-1
 16 24 l 1,62,-1
 8 24 l 1,63,-1
 8 32 l 25,60,-1
56 48 m 25,64,-1
 64 48 l 1,65,-1
 64 40 l 1,66,-1
 56 40 l 1,67,-1
 56 48 l 25,64,-1
40 48 m 25,68,-1
 48 48 l 1,69,-1
 48 40 l 1,70,-1
 40 40 l 1,71,-1
 40 48 l 25,68,-1
24 48 m 25,72,-1
 32 48 l 1,73,-1
 32 40 l 1,74,-1
 24 40 l 1,75,-1
 24 48 l 25,72,-1
8 48 m 25,76,-1
 16 48 l 1,77,-1
 16 40 l 1,78,-1
 8 40 l 1,79,-1
 8 48 l 25,76,-1
56 64 m 25,80,-1
 64 64 l 1,81,-1
 64 56 l 1,82,-1
 56 56 l 1,83,-1
 56 64 l 25,80,-1
40 64 m 25,84,-1
 48 64 l 1,85,-1
 48 56 l 1,86,-1
 40 56 l 1,87,-1
 40 64 l 25,84,-1
24 64 m 25,88,-1
 32 64 l 1,89,-1
 32 56 l 1,90,-1
 24 56 l 1,91,-1
 24 64 l 25,88,-1
8 64 m 25,92,-1
 16 64 l 1,93,-1
 16 56 l 1,94,-1
 8 56 l 1,95,-1
 8 64 l 25,92,-1
56 80 m 25,96,-1
 64 80 l 1,97,-1
 64 72 l 1,98,-1
 56 72 l 1,99,-1
 56 80 l 25,96,-1
40 80 m 25,100,-1
 48 80 l 1,101,-1
 48 72 l 1,102,-1
 40 72 l 1,103,-1
 40 80 l 25,100,-1
24 80 m 25,104,-1
 32 80 l 1,105,-1
 32 72 l 1,106,-1
 24 72 l 1,107,-1
 24 80 l 25,104,-1
8 80 m 25,108,-1
 16 80 l 1,109,-1
 16 72 l 1,110,-1
 8 72 l 1,111,-1
 8 80 l 25,108,-1
56 96 m 25,112,-1
 64 96 l 1,113,-1
 64 88 l 1,114,-1
 56 88 l 1,115,-1
 56 96 l 25,112,-1
40 96 m 25,116,-1
 48 96 l 1,117,-1
 48 88 l 1,118,-1
 40 88 l 1,119,-1
 40 96 l 25,116,-1
24 96 m 25,120,-1
 32 96 l 1,121,-1
 32 88 l 1,122,-1
 24 88 l 1,123,-1
 24 96 l 25,120,-1
8 96 m 25,124,-1
 16 96 l 1,125,-1
 16 88 l 1,126,-1
 8 88 l 1,127,-1
 8 96 l 25,124,-1
48 -8 m 25,128,-1
 56 -8 l 1,129,-1
 56 -16 l 1,130,-1
 48 -16 l 1,131,-1
 48 -8 l 25,128,-1
32 -8 m 25,132,-1
 40 -8 l 1,133,-1
 40 -16 l 1,134,-1
 32 -16 l 1,135,-1
 32 -8 l 25,132,-1
16 -8 m 25,136,-1
 24 -8 l 1,137,-1
 24 -16 l 1,138,-1
 16 -16 l 1,139,-1
 16 -8 l 25,136,-1
0 -8 m 25,140,-1
 8 -8 l 1,141,-1
 8 -16 l 1,142,-1
 0 -16 l 1,143,-1
 0 -8 l 25,140,-1
48 8 m 25,144,-1
 56 8 l 1,145,-1
 56 0 l 1,146,-1
 48 0 l 1,147,-1
 48 8 l 25,144,-1
32 8 m 25,148,-1
 40 8 l 1,149,-1
 40 0 l 1,150,-1
 32 0 l 1,151,-1
 32 8 l 25,148,-1
16 8 m 25,152,-1
 24 8 l 1,153,-1
 24 0 l 1,154,-1
 16 0 l 1,155,-1
 16 8 l 25,152,-1
0 8 m 25,156,-1
 8 8 l 1,157,-1
 8 0 l 1,158,-1
 0 0 l 1,159,-1
 0 8 l 25,156,-1
48 24 m 25,160,-1
 56 24 l 1,161,-1
 56 16 l 1,162,-1
 48 16 l 1,163,-1
 48 24 l 25,160,-1
32 24 m 25,164,-1
 40 24 l 1,165,-1
 40 16 l 1,166,-1
 32 16 l 1,167,-1
 32 24 l 25,164,-1
16 24 m 25,168,-1
 24 24 l 1,169,-1
 24 16 l 1,170,-1
 16 16 l 1,171,-1
 16 24 l 25,168,-1
0 24 m 25,172,-1
 8 24 l 1,173,-1
 8 16 l 1,174,-1
 0 16 l 1,175,-1
 0 24 l 25,172,-1
48 40 m 25,176,-1
 56 40 l 1,177,-1
 56 32 l 1,178,-1
 48 32 l 1,179,-1
 48 40 l 25,176,-1
32 40 m 25,180,-1
 40 40 l 1,181,-1
 40 32 l 1,182,-1
 32 32 l 1,183,-1
 32 40 l 25,180,-1
16 40 m 25,184,-1
 24 40 l 1,185,-1
 24 32 l 1,186,-1
 16 32 l 1,187,-1
 16 40 l 25,184,-1
0 40 m 25,188,-1
 8 40 l 1,189,-1
 8 32 l 1,190,-1
 0 32 l 1,191,-1
 0 40 l 25,188,-1
48 56 m 25,192,-1
 56 56 l 1,193,-1
 56 48 l 1,194,-1
 48 48 l 1,195,-1
 48 56 l 25,192,-1
32 56 m 25,196,-1
 40 56 l 1,197,-1
 40 48 l 1,198,-1
 32 48 l 1,199,-1
 32 56 l 25,196,-1
16 56 m 25,200,-1
 24 56 l 1,201,-1
 24 48 l 1,202,-1
 16 48 l 1,203,-1
 16 56 l 25,200,-1
0 56 m 25,204,-1
 8 56 l 1,205,-1
 8 48 l 1,206,-1
 0 48 l 1,207,-1
 0 56 l 25,204,-1
48 72 m 25,208,-1
 56 72 l 1,209,-1
 56 64 l 1,210,-1
 48 64 l 1,211,-1
 48 72 l 25,208,-1
32 72 m 25,212,-1
 40 72 l 1,213,-1
 40 64 l 1,214,-1
 32 64 l 1,215,-1
 32 72 l 25,212,-1
16 72 m 25,216,-1
 24 72 l 1,217,-1
 24 64 l 1,218,-1
 16 64 l 1,219,-1
 16 72 l 25,216,-1
0 72 m 25,220,-1
 8 72 l 1,221,-1
 8 64 l 1,222,-1
 0 64 l 1,223,-1
 0 72 l 25,220,-1
48 88 m 25,224,-1
 56 88 l 1,225,-1
 56 80 l 1,226,-1
 48 80 l 1,227,-1
 48 88 l 25,224,-1
32 88 m 25,228,-1
 40 88 l 1,229,-1
 40 80 l 1,230,-1
 32 80 l 1,231,-1
 32 88 l 25,228,-1
16 88 m 25,232,-1
 24 88 l 1,233,-1
 24 80 l 1,234,-1
 16 80 l 1,235,-1
 16 88 l 25,232,-1
0 88 m 25,236,-1
 8 88 l 1,237,-1
 8 80 l 1,238,-1
 0 80 l 1,239,-1
 0 88 l 25,236,-1
48 104 m 25,240,-1
 56 104 l 1,241,-1
 56 96 l 1,242,-1
 48 96 l 1,243,-1
 48 104 l 25,240,-1
32 104 m 25,244,-1
 40 104 l 1,245,-1
 40 96 l 1,246,-1
 32 96 l 1,247,-1
 32 104 l 25,244,-1
16 104 m 25,248,-1
 24 104 l 1,249,-1
 24 96 l 1,250,-1
 16 96 l 1,251,-1
 16 104 l 25,248,-1
0 104 m 25,252,-1
 8 104 l 1,253,-1
 8 96 l 1,254,-1
 0 96 l 1,255,-1
 0 104 l 25,252,-1
EndSplineSet
EndChar

StartChar: dkshade
Encoding: 9619 9619 668
Width: 64
Flags: MW
HStem: -16 8<8 16 24 32 40 48 56 64> 0 8<8 16 24 32 40 48 56 64> 16 8<8 16 24 32 40 48 56 64> 32 8<8 16 24 32 40 48 56 64> 48 8<8 16 24 32 40 48 56 64> 64 8<8 16 24 32 40 48 56 64> 80 8<8 16 24 32 40 48 56 64> 96 8<8 16 24 32 40 48 56 64>
VStem: 0 8<-24 -16 -8 0 8 16 24 32 40 48 56 64 72 80 88 96> 16 8<-24 -16 -8 0 8 16 24 32 40 48 56 64 72 80 88 96> 32 8<-24 -16 -8 0 8 16 24 32 40 48 56 64 72 80 88 96> 48 8<-24 -16 -8 0 8 16 24 32 40 48 56 64 72 80 88 96>
LayerCount: 2
Fore
SplineSet
0 -24 m 1,0,-1
 0 104 l 1,1,-1
 64 104 l 1,2,-1
 64 96 l 1,3,-1
 56 96 l 1,4,-1
 56 88 l 1,5,-1
 64 88 l 1,6,-1
 64 80 l 1,7,-1
 56 80 l 1,8,-1
 56 72 l 1,9,-1
 64 72 l 1,10,-1
 64 64 l 1,11,-1
 56 64 l 1,12,-1
 56 56 l 1,13,-1
 64 56 l 1,14,-1
 64 48 l 1,15,-1
 56 48 l 1,16,-1
 56 40 l 1,17,-1
 64 40 l 1,18,-1
 64 32 l 1,19,-1
 56 32 l 1,20,-1
 56 24 l 1,21,-1
 64 24 l 1,22,-1
 64 16 l 1,23,-1
 56 16 l 1,24,-1
 56 8 l 1,25,-1
 64 8 l 1,26,-1
 64 0 l 1,27,-1
 56 0 l 1,28,-1
 56 -8 l 1,29,-1
 64 -8 l 1,30,-1
 64 -16 l 1,31,-1
 56 -16 l 1,32,-1
 56 -24 l 1,33,-1
 48 -24 l 1,34,-1
 48 -16 l 1,35,-1
 40 -16 l 1,36,-1
 40 -24 l 1,37,-1
 32 -24 l 1,38,-1
 32 -16 l 1,39,-1
 24 -16 l 1,40,-1
 24 -24 l 1,41,-1
 16 -24 l 1,42,-1
 16 -16 l 1,43,-1
 8 -16 l 1,44,-1
 8 -24 l 1,45,-1
 0 -24 l 1,0,-1
8 96 m 1,46,-1
 8 88 l 1,47,-1
 16 88 l 1,48,-1
 16 96 l 1,49,-1
 8 96 l 1,46,-1
24 96 m 1,50,-1
 24 88 l 1,51,-1
 32 88 l 1,52,-1
 32 96 l 1,53,-1
 24 96 l 1,50,-1
40 96 m 1,54,-1
 40 88 l 1,55,-1
 48 88 l 1,56,-1
 48 96 l 1,57,-1
 40 96 l 1,54,-1
8 80 m 1,58,-1
 8 72 l 1,59,-1
 16 72 l 1,60,-1
 16 80 l 1,61,-1
 8 80 l 1,58,-1
24 80 m 1,62,-1
 24 72 l 1,63,-1
 32 72 l 1,64,-1
 32 80 l 1,65,-1
 24 80 l 1,62,-1
40 80 m 1,66,-1
 40 72 l 1,67,-1
 48 72 l 1,68,-1
 48 80 l 1,69,-1
 40 80 l 1,66,-1
8 64 m 1,70,-1
 8 56 l 1,71,-1
 16 56 l 1,72,-1
 16 64 l 1,73,-1
 8 64 l 1,70,-1
24 64 m 1,74,-1
 24 56 l 1,75,-1
 32 56 l 1,76,-1
 32 64 l 1,77,-1
 24 64 l 1,74,-1
40 64 m 1,78,-1
 40 56 l 1,79,-1
 48 56 l 1,80,-1
 48 64 l 1,81,-1
 40 64 l 1,78,-1
8 48 m 1,82,-1
 8 40 l 1,83,-1
 16 40 l 1,84,-1
 16 48 l 1,85,-1
 8 48 l 1,82,-1
24 48 m 1,86,-1
 24 40 l 1,87,-1
 32 40 l 1,88,-1
 32 48 l 1,89,-1
 24 48 l 1,86,-1
40 48 m 1,90,-1
 40 40 l 1,91,-1
 48 40 l 1,92,-1
 48 48 l 1,93,-1
 40 48 l 1,90,-1
8 32 m 1,94,-1
 8 24 l 1,95,-1
 16 24 l 1,96,-1
 16 32 l 1,97,-1
 8 32 l 1,94,-1
24 32 m 1,98,-1
 24 24 l 1,99,-1
 32 24 l 1,100,-1
 32 32 l 1,101,-1
 24 32 l 1,98,-1
40 32 m 1,102,-1
 40 24 l 1,103,-1
 48 24 l 1,104,-1
 48 32 l 1,105,-1
 40 32 l 1,102,-1
8 16 m 1,106,-1
 8 8 l 1,107,-1
 16 8 l 1,108,-1
 16 16 l 1,109,-1
 8 16 l 1,106,-1
24 16 m 1,110,-1
 24 8 l 1,111,-1
 32 8 l 1,112,-1
 32 16 l 1,113,-1
 24 16 l 1,110,-1
40 16 m 1,114,-1
 40 8 l 1,115,-1
 48 8 l 1,116,-1
 48 16 l 1,117,-1
 40 16 l 1,114,-1
8 0 m 1,118,-1
 8 -8 l 1,119,-1
 16 -8 l 1,120,-1
 16 0 l 1,121,-1
 8 0 l 1,118,-1
24 0 m 1,122,-1
 24 -8 l 1,123,-1
 32 -8 l 1,124,-1
 32 0 l 1,125,-1
 24 0 l 1,122,-1
40 0 m 1,126,-1
 40 -8 l 1,127,-1
 48 -8 l 1,128,-1
 48 0 l 1,129,-1
 40 0 l 1,126,-1
EndSplineSet
EndChar

StartChar: filledbox
Encoding: 9632 9632 669
Width: 64
Flags: W
HStem: 16 40<8 48>
VStem: 8 40<16 56>
LayerCount: 2
Fore
SplineSet
8 56 m 1,0,-1
 48 56 l 1,1,-1
 48 16 l 1,2,-1
 8 16 l 1,3,-1
 8 56 l 1,0,-1
EndSplineSet
EndChar

StartChar: H22073
Encoding: 9633 9633 670
Width: 64
Flags: W
HStem: 16 8<16 40> 48 8<16 40>
VStem: 8 8<24 48> 40 8<24 48>
LayerCount: 2
Fore
SplineSet
40 48 m 1,0,-1
 16 48 l 1,1,-1
 16 24 l 1,2,-1
 40 24 l 1,3,-1
 40 48 l 1,0,-1
8 56 m 1,4,-1
 48 56 l 1,5,-1
 48 16 l 1,6,-1
 8 16 l 1,7,-1
 8 56 l 1,4,-1
EndSplineSet
EndChar

StartChar: H18543
Encoding: 9642 9642 671
Width: 64
Flags: W
HStem: 24 24<16 40>
VStem: 16 24<24 48>
LayerCount: 2
Fore
SplineSet
16 48 m 5,0,-1
 40 48 l 1,1,-1
 40 24 l 1,2,-1
 16 24 l 1,3,-1
 16 48 l 5,0,-1
EndSplineSet
EndChar

StartChar: H18551
Encoding: 9643 9643 672
Width: 64
Flags: W
HStem: 24 8<24 32> 40 8<24 32>
VStem: 16 8<32 40> 32 8<32 40>
LayerCount: 2
Fore
SplineSet
32 40 m 29,0,-1
 24 40 l 1,1,-1
 24 32 l 1,2,-1
 32 32 l 1,3,-1
 32 40 l 29,0,-1
16 48 m 5,4,-1
 40 48 l 1,5,-1
 40 24 l 1,6,-1
 16 24 l 1,7,-1
 16 48 l 5,4,-1
EndSplineSet
EndChar

StartChar: filledrect
Encoding: 9644 9644 673
Width: 64
Flags: W
HStem: 8 64<8 56>
VStem: 8 48<8 72>
LayerCount: 2
Fore
SplineSet
8 72 m 25,0,-1
 56 72 l 1,1,-1
 56 8 l 1,2,-1
 8 8 l 1,3,-1
 8 72 l 25,0,-1
EndSplineSet
EndChar

StartChar: triagup
Encoding: 9650 9650 674
Width: 64
Flags: MW
LayerCount: 2
Fore
SplineSet
8 8 m 29,0,-1
 32 72 l 1,1,-1
 56 8 l 1,2,-1
 8 8 l 29,0,-1
EndSplineSet
EndChar

StartChar: triagdn
Encoding: 9660 9660 675
Width: 64
Flags: MW
LayerCount: 2
Fore
SplineSet
56 72 m 29,0,-1
 32 8 l 1,1,-1
 8 72 l 1,2,-1
 56 72 l 29,0,-1
EndSplineSet
EndChar

StartChar: uni25B6
Encoding: 9654 9654 676
Width: 64
Flags: MW
LayerCount: 2
Fore
SplineSet
8 72 m 29,0,-1
 56 40 l 1,1,-1
 8 8 l 1,2,-1
 8 72 l 29,0,-1
EndSplineSet
EndChar

StartChar: uni25C0
Encoding: 9664 9664 677
Width: 64
Flags: MW
LayerCount: 2
Fore
SplineSet
56 8 m 29,0,-1
 8 40 l 1,1,-1
 56 72 l 1,2,-1
 56 8 l 29,0,-1
EndSplineSet
EndChar

StartChar: lozenge
Encoding: 9674 9674 678
Width: 64
Flags: MW
LayerCount: 2
Fore
SplineSet
8 40 m 5,0,-1
 32 64 l 1,1,-1
 56 40 l 1,2,-1
 32 16 l 1,3,-1
 8 40 l 5,0,-1
EndSplineSet
EndChar

StartChar: circle
Encoding: 9675 9675 679
Width: 64
Flags: W
HStem: 16 8<24 40> 56 8<24 40>
VStem: 8 8<32 48> 48 8<32 48>
LayerCount: 2
Fore
SplineSet
8 52 m 5,0,-1
 20 64 l 1,1,-1
 44 64 l 1,2,-1
 56 52 l 1,3,-1
 56 28 l 1,4,-1
 44 16 l 1,5,-1
 20 16 l 1,6,-1
 8 28 l 1,7,-1
 8 52 l 5,0,-1
16 32 m 5,8,-1
 24 24 l 1,9,-1
 40 24 l 1,10,-1
 48 32 l 1,11,-1
 48 48 l 1,12,-1
 40 56 l 1,13,-1
 24 56 l 1,14,-1
 16 48 l 1,15,-1
 16 32 l 5,8,-1
EndSplineSet
EndChar

StartChar: H18533
Encoding: 9679 9679 680
Width: 64
Flags: W
HStem: 24 32<24 40>
VStem: 16 32<32 48>
LayerCount: 2
Fore
SplineSet
16 32 m 5,0,-1
 16 48 l 1,1,-1
 24 56 l 1,2,-1
 40 56 l 1,3,-1
 48 48 l 1,4,-1
 48 32 l 1,5,-1
 40 24 l 1,6,-1
 24 24 l 1,7,-1
 16 32 l 5,0,-1
EndSplineSet
EndChar

StartChar: invbullet
Encoding: 9688 9688 681
Width: 64
Flags: W
VStem: 0 16<32 48> 48 16<32 48>
LayerCount: 2
Fore
SplineSet
0 104 m 25,0,-1
 64 104 l 1,1,-1
 64 -24 l 1,2,-1
 0 -24 l 1,3,-1
 0 104 l 25,0,-1
16 32 m 5,4,-1
 24 24 l 1,5,-1
 40 24 l 1,6,-1
 48 32 l 1,7,-1
 48 48 l 1,8,-1
 40 56 l 1,9,-1
 24 56 l 1,10,-1
 16 48 l 1,11,-1
 16 32 l 5,4,-1
EndSplineSet
EndChar

StartChar: invcircle
Encoding: 9689 9689 682
Width: 64
Flags: MW
VStem: 0 8<28 52> 56 8<28 52>
LayerCount: 2
Fore
SplineSet
8 52 m 5,0,-1
 8 28 l 1,1,-1
 20 16 l 1,2,-1
 44 16 l 1,3,-1
 56 28 l 1,4,-1
 56 52 l 1,5,-1
 44 64 l 1,6,-1
 20 64 l 1,7,-1
 8 52 l 5,0,-1
16 32 m 5,8,-1
 16 48 l 1,9,-1
 24 56 l 1,10,-1
 40 56 l 1,11,-1
 48 48 l 1,12,-1
 48 32 l 1,13,-1
 40 24 l 1,14,-1
 24 24 l 1,15,-1
 16 32 l 5,8,-1
0 104 m 25,16,-1
 64 104 l 1,17,-1
 64 -24 l 1,18,-1
 0 -24 l 1,19,-1
 0 104 l 25,16,-1
EndSplineSet
EndChar

StartChar: openbullet
Encoding: 9702 9702 683
Width: 64
Flags: W
HStem: 24 8<24 32> 40 8<24 32>
VStem: 16 8<32 40> 32 8<32 40>
LayerCount: 2
Fore
SplineSet
32 40 m 25,0,-1
 24 40 l 1,1,-1
 24 32 l 1,2,-1
 32 32 l 1,3,-1
 32 40 l 25,0,-1
24 48 m 1,4,-1
 32 48 l 1,5,-1
 40 40 l 1,6,-1
 40 32 l 1,7,-1
 32 24 l 1,8,-1
 24 24 l 1,9,-1
 16 32 l 1,10,-1
 16 40 l 1,11,-1
 24 48 l 1,4,-1
EndSplineSet
EndChar

StartChar: smileface
Encoding: 9786 9786 684
Width: 64
Flags: MW
HStem: 16 8<8 24 32 48> 48 8<16 24 32 40> 64 8<8 48>
VStem: 0 8<24 64> 16 8<48 56> 32 8<48 56> 48 8<24 64>
LayerCount: 2
Fore
SplineSet
0 24 m 1,0,-1
 0 64 l 1,1,-1
 8 72 l 1,2,-1
 48 72 l 1,3,-1
 56 64 l 1,4,-1
 56 24 l 1,5,-1
 48 16 l 1,6,-1
 8 16 l 1,7,-1
 0 24 l 1,0,-1
48 64 m 5,8,-1
 8 64 l 1,9,-1
 8 24 l 1,10,-1
 24 24 l 1,11,-1
 16 32 l 1,12,-1
 16 40 l 1,13,-1
 40 40 l 1,14,-1
 40 32 l 1,15,-1
 32 24 l 1,16,-1
 48 24 l 1,17,-1
 48 64 l 5,8,-1
16 56 m 1,18,-1
 24 56 l 1,19,-1
 24 48 l 1,20,-1
 16 48 l 1,21,-1
 16 56 l 1,18,-1
32 56 m 1,22,-1
 40 56 l 1,23,-1
 40 48 l 1,24,-1
 32 48 l 1,25,-1
 32 56 l 1,22,-1
EndSplineSet
EndChar

StartChar: invsmileface
Encoding: 9787 9787 685
Width: 64
Flags: W
HStem: 16 8<24 32> 40 8<16 24 32 40> 56 16<16 24 32 40>
VStem: 0 16<32 40 48 56> 40 16<32 40 48 56>
LayerCount: 2
Fore
SplineSet
40 40 m 25,0,-1
 16 40 l 1,1,-1
 16 32 l 1,2,-1
 24 24 l 1,3,-1
 32 24 l 1,4,-1
 40 32 l 1,5,-1
 40 40 l 25,0,-1
40 56 m 25,6,-1
 32 56 l 1,7,-1
 32 48 l 1,8,-1
 40 48 l 1,9,-1
 40 56 l 25,6,-1
0 24 m 1,10,-1
 0 64 l 1,11,-1
 8 72 l 1,12,-1
 48 72 l 1,13,-1
 56 64 l 1,14,-1
 56 24 l 1,15,-1
 48 16 l 1,16,-1
 8 16 l 1,17,-1
 0 24 l 1,10,-1
24 48 m 1,18,-1
 24 56 l 1,19,-1
 16 56 l 1,20,-1
 16 48 l 1,21,-1
 24 48 l 1,18,-1
EndSplineSet
EndChar

StartChar: sun
Encoding: 9788 9788 686
Width: 64
Flags: MW
HStem: 24 8<16 24 32 40> 40 8<0 8 48 56> 56 8<16 24 32 40>
VStem: 8 8<32 40 48 56> 24 8<16 24 64 72> 40 8<32 40 48 56>
CounterMasks: 1 fc
LayerCount: 2
Fore
SplineSet
40 56 m 25,0,-1
 16 56 l 1,1,-1
 16 32 l 1,2,-1
 40 32 l 1,3,-1
 40 56 l 25,0,-1
0 48 m 1,4,-1
 8 48 l 1,5,-1
 8 60 l 1,6,-1
 0 68 l 1,7,-1
 0 72 l 1,8,-1
 4 72 l 1,9,-1
 12 64 l 1,10,-1
 24 64 l 1,11,-1
 24 72 l 1,12,-1
 32 72 l 1,13,-1
 32 64 l 1,14,-1
 44 64 l 1,15,-1
 52 72 l 1,16,-1
 56 72 l 1,17,-1
 56 68 l 1,18,-1
 48 60 l 1,19,-1
 48 48 l 1,20,-1
 56 48 l 1,21,-1
 56 40 l 1,22,-1
 48 40 l 1,23,-1
 48 28 l 1,24,-1
 56 20 l 1,25,-1
 56 16 l 1,26,-1
 52 16 l 1,27,-1
 44 24 l 1,28,-1
 32 24 l 1,29,-1
 32 16 l 1,30,-1
 24 16 l 1,31,-1
 24 24 l 1,32,-1
 12 24 l 1,33,-1
 4 16 l 1,34,-1
 0 16 l 1,35,-1
 0 20 l 1,36,-1
 8 28 l 1,37,-1
 8 40 l 1,38,-1
 0 40 l 1,39,-1
 0 48 l 1,4,-1
EndSplineSet
EndChar

StartChar: female
Encoding: 9792 9792 687
Width: 64
Flags: MW
HStem: 24 8<16 24 32 40> 40 8<16 24 32 40> 64 8<16 40>
VStem: 8 8<48 64> 24 8<16 24 32 40> 40 8<48 64>
LayerCount: 2
Fore
SplineSet
40 64 m 29,0,-1
 16 64 l 1,1,-1
 16 48 l 1,2,-1
 40 48 l 1,3,-1
 40 64 l 29,0,-1
24 16 m 1,4,-1
 24 24 l 1,5,-1
 16 24 l 1,6,-1
 16 32 l 1,7,-1
 24 32 l 1,8,-1
 24 40 l 1,9,-1
 16 40 l 1,10,-1
 8 48 l 1,11,-1
 8 64 l 1,12,-1
 16 72 l 1,13,-1
 40 72 l 1,14,-1
 48 64 l 1,15,-1
 48 48 l 1,16,-1
 40 40 l 1,17,-1
 32 40 l 1,18,-1
 32 32 l 1,19,-1
 40 32 l 1,20,-1
 40 24 l 1,21,-1
 32 24 l 1,22,-1
 32 16 l 1,23,-1
 24 16 l 1,4,-1
EndSplineSet
EndChar

StartChar: male
Encoding: 9794 9794 688
Width: 64
Flags: W
HStem: 16 8<8 24> 40 8<8 24> 64 8<24 44>
VStem: 0 8<24 40> 24 8<24 40> 48 8<40 60>
CounterMasks: 1 fc
LayerCount: 2
Fore
SplineSet
24 40 m 25,0,-1
 8 40 l 1,1,-1
 8 24 l 1,2,-1
 24 24 l 1,3,-1
 24 40 l 25,0,-1
0 40 m 1,4,-1
 8 48 l 1,5,-1
 28 48 l 1,6,-1
 44 64 l 1,7,-1
 24 64 l 1,8,-1
 24 72 l 1,9,-1
 56 72 l 1,10,-1
 56 40 l 1,11,-1
 48 40 l 1,12,-1
 48 60 l 1,13,-1
 32 44 l 1,14,-1
 32 24 l 1,15,-1
 24 16 l 1,16,-1
 8 16 l 1,17,-1
 0 24 l 1,18,-1
 0 40 l 1,4,-1
EndSplineSet
EndChar

StartChar: spade
Encoding: 9824 9824 689
Width: 64
Flags: W
HStem: 16 8<16 24 32 40>
VStem: 24 8<24 32>
LayerCount: 2
Fore
SplineSet
16 16 m 29,0,-1
 16 24 l 1,1,-1
 24 24 l 1,2,-1
 24 32 l 1,3,-1
 8 32 l 1,4,-1
 0 40 l 1,5,-1
 0 48 l 1,6,-1
 28 72 l 1,7,-1
 56 48 l 1,8,-1
 56 40 l 1,9,-1
 48 32 l 1,10,-1
 32 32 l 1,11,-1
 32 24 l 1,12,-1
 40 24 l 1,13,-1
 40 16 l 1,14,-1
 16 16 l 29,0,-1
EndSplineSet
EndChar

StartChar: club
Encoding: 9827 9827 690
Width: 64
Flags: MW
HStem: 16 8<16 24 32 40> 40 8<20 24 32 36>
VStem: 24 8<24 40 48 52>
LayerCount: 2
Fore
SplineSet
16 16 m 25,0,-1
 16 24 l 1,1,-1
 24 24 l 1,2,-1
 24 40 l 1,3,-1
 20 40 l 1,4,-1
 12 32 l 1,5,-1
 8 32 l 1,6,-1
 0 40 l 1,7,-1
 0 48 l 1,8,-1
 8 56 l 1,9,-1
 12 56 l 1,10,-1
 20 48 l 1,11,-1
 24 48 l 1,12,-1
 24 52 l 1,13,-1
 16 60 l 1,14,-1
 16 64 l 1,15,-1
 24 72 l 1,16,-1
 32 72 l 1,17,-1
 40 64 l 1,18,-1
 40 60 l 1,19,-1
 32 52 l 1,20,-1
 32 48 l 1,21,-1
 36 48 l 1,22,-1
 44 56 l 1,23,-1
 48 56 l 1,24,-1
 56 48 l 1,25,-1
 56 40 l 1,26,-1
 48 32 l 1,27,-1
 44 32 l 1,28,-1
 36 40 l 1,29,-1
 32 40 l 1,30,-1
 32 24 l 1,31,-1
 40 24 l 1,32,-1
 40 16 l 1,33,-1
 16 16 l 25,0,-1
EndSplineSet
EndChar

StartChar: heart
Encoding: 9829 9829 691
Width: 64
Flags: W
LayerCount: 2
Fore
SplineSet
28 16 m 1,0,-1
 0 40 l 1,1,-1
 0 60 l 1,2,-1
 12 72 l 1,3,-1
 20 72 l 1,4,-1
 28 64 l 1,5,-1
 36 72 l 1,6,-1
 44 72 l 1,7,-1
 56 60 l 1,8,-1
 56 40 l 1,9,-1
 28 16 l 1,0,-1
EndSplineSet
EndChar

StartChar: diamond
Encoding: 9830 9830 692
Width: 64
Flags: W
LayerCount: 2
Fore
SplineSet
0 44 m 29,0,-1
 28 72 l 1,1,-1
 56 44 l 1,2,-1
 28 16 l 1,3,-1
 0 44 l 29,0,-1
EndSplineSet
EndChar

StartChar: musicalnote
Encoding: 9834 9834 693
Width: 64
Flags: MW
VStem: 24 8<32 64> 48 8<56 64>
LayerCount: 2
Fore
SplineSet
0 12 m 1,0,-1
 0 20 l 1,1,-1
 12 32 l 1,2,-1
 24 32 l 1,3,-1
 24 88 l 1,4,-1
 36 88 l 1,5,-1
 56 68 l 1,6,-1
 56 56 l 1,7,-1
 48 56 l 1,8,-1
 48 64 l 1,9,-1
 32 64 l 1,10,-1
 32 12 l 1,11,-1
 20 0 l 1,12,-1
 12 0 l 1,13,-1
 0 12 l 1,0,-1
EndSplineSet
EndChar

StartChar: musicalnotedbl
Encoding: 9835 9835 694
Width: 64
Flags: MW
HStem: 72 16<24 48>
VStem: 16 8<24 72> 48 8<24 72>
LayerCount: 2
Fore
SplineSet
0 16 m 1,0,-1
 8 24 l 1,1,-1
 16 24 l 1,2,-1
 16 88 l 1,3,-1
 56 88 l 1,4,-1
 56 0 l 1,5,-1
 40 0 l 1,6,-1
 32 8 l 1,7,-1
 32 16 l 1,8,-1
 40 24 l 1,9,-1
 48 24 l 1,10,-1
 48 72 l 1,11,-1
 24 72 l 1,12,-1
 24 0 l 1,13,-1
 8 0 l 1,14,-1
 0 8 l 1,15,-1
 0 16 l 1,0,-1
EndSplineSet
EndChar
